%TF.GenerationSoftware,KiCad,Pcbnew,7.0.10*%
%TF.CreationDate,2024-07-12T16:17:24+02:00*%
%TF.ProjectId,MouthIO_v3,4d6f7574-6849-44f5-9f76-332e6b696361,rev?*%
%TF.SameCoordinates,Original*%
%TF.FileFunction,Copper,L3,Inr*%
%TF.FilePolarity,Positive*%
%FSLAX46Y46*%
G04 Gerber Fmt 4.6, Leading zero omitted, Abs format (unit mm)*
G04 Created by KiCad (PCBNEW 7.0.10) date 2024-07-12 16:17:24*
%MOMM*%
%LPD*%
G01*
G04 APERTURE LIST*
%TA.AperFunction,ComponentPad*%
%ADD10O,2.000000X1.000000*%
%TD*%
%TA.AperFunction,ViaPad*%
%ADD11C,0.504800*%
%TD*%
%TA.AperFunction,Conductor*%
%ADD12C,0.250000*%
%TD*%
%TA.AperFunction,Conductor*%
%ADD13C,0.200000*%
%TD*%
G04 APERTURE END LIST*
D10*
%TO.N,GND*%
%TO.C,USB-C0*%
X151901100Y-100683600D03*
X151901100Y-109323600D03*
X156051100Y-100683600D03*
X156051100Y-109323600D03*
%TD*%
D11*
%TO.N,GND*%
X148330000Y-109870000D03*
X148921100Y-103293600D03*
X146501100Y-105003600D03*
X143863120Y-101126942D03*
X140440000Y-102303600D03*
X143237600Y-109227600D03*
X141020000Y-102303600D03*
X142120832Y-102117974D03*
X146501100Y-103803600D03*
X139235745Y-102290884D03*
X145251100Y-100303600D03*
X146501100Y-106343600D03*
X143340000Y-101127400D03*
X145301100Y-105003600D03*
X139837692Y-102314308D03*
X142490000Y-101760000D03*
X142875000Y-101375000D03*
X138532409Y-109162963D03*
X155719063Y-106076958D03*
X140790000Y-109000000D03*
X141580000Y-102303600D03*
X145993538Y-101206000D03*
X138600000Y-102300000D03*
X147701100Y-105003600D03*
%TO.N,+3V3*%
X152710287Y-103704942D03*
X156840000Y-107300000D03*
X147431100Y-108323600D03*
X143648700Y-101832203D03*
X143545803Y-107614754D03*
X139415665Y-109063902D03*
X155244347Y-105556005D03*
X146691100Y-101453600D03*
X138550000Y-106620000D03*
X155460000Y-101700000D03*
%TO.N,/EN_LDO*%
X153932400Y-106557600D03*
X148831928Y-106904431D03*
%TO.N,Net-(D2-PadA)*%
X149551475Y-108502012D03*
X141461437Y-106617600D03*
%TO.N,+VBAT*%
X153830000Y-107200000D03*
X150501100Y-101162200D03*
X155845189Y-104936042D03*
%TO.N,Net-(R1-Pad2)*%
X143061549Y-107102656D03*
%TO.N,Net-(USB-C0-CC1)*%
X152690000Y-106070000D03*
%TO.N,Net-(USB-C0-CC2)*%
X149922593Y-106130615D03*
%TO.N,/GPIO19_DP*%
X150101100Y-104603600D03*
%TO.N,/GPIO18_DM*%
X149951100Y-105253600D03*
%TO.N,/GPIO6_DIN*%
X144200816Y-107043609D03*
%TO.N,/GPIO5_BUTTON*%
X143256000Y-106426000D03*
X149525590Y-109750299D03*
%TO.N,/GPIO4_ADC*%
X152232217Y-102975112D03*
X143151100Y-105853600D03*
%TO.N,/GPIO0_CS0*%
X143708033Y-102690000D03*
X140540000Y-103090000D03*
%TO.N,/GPIO1_CS1*%
X143213279Y-103191961D03*
X140556181Y-105289737D03*
%TO.N,/GPIO10_SCL*%
X140777573Y-109704693D03*
X146427859Y-108948437D03*
%TO.N,/GPIO9_STRP_SDA*%
X145648595Y-109024246D03*
X140755600Y-106609878D03*
%TO.N,/GPIO7_CSEND*%
X140568809Y-104461155D03*
X144520000Y-107570000D03*
%TO.N,Net-(U3-ISEL2)*%
X152981709Y-104529067D03*
X148351294Y-107458514D03*
%TD*%
D12*
%TO.N,+3V3*%
X154715229Y-101700000D02*
X152710287Y-103704942D01*
X155244347Y-105556005D02*
X154825214Y-105556005D01*
X154825214Y-105556005D02*
X152974151Y-103704942D01*
X155460000Y-101700000D02*
X154715229Y-101700000D01*
X152974151Y-103704942D02*
X152710287Y-103704942D01*
D13*
%TO.N,+VBAT*%
X153380000Y-105630000D02*
X153090000Y-105340000D01*
X153380000Y-106786412D02*
X153380000Y-105630000D01*
X153793588Y-107200000D02*
X153380000Y-106786412D01*
X153830000Y-107200000D02*
X153793588Y-107200000D01*
X150501100Y-103906250D02*
X150501100Y-101162200D01*
X153090000Y-105340000D02*
X151934850Y-105340000D01*
X151934850Y-105340000D02*
X150501100Y-103906250D01*
%TO.N,/GPIO5_BUTTON*%
X144363291Y-106426000D02*
X143256000Y-106426000D01*
X144733291Y-106796000D02*
X144363291Y-106426000D01*
X146571291Y-106796000D02*
X144733291Y-106796000D01*
X149525590Y-109750299D02*
X146571291Y-106796000D01*
D12*
%TO.N,/GPIO0_CS0*%
X142415439Y-102614561D02*
X143632594Y-102614561D01*
X140540000Y-103090000D02*
X141940000Y-103090000D01*
X143632594Y-102614561D02*
X143708033Y-102690000D01*
X141940000Y-103090000D02*
X142415439Y-102614561D01*
D13*
%TO.N,/GPIO1_CS1*%
X140556181Y-105289737D02*
X140970263Y-105289737D01*
X140970263Y-105289737D02*
X143068039Y-103191961D01*
X143068039Y-103191961D02*
X143213279Y-103191961D01*
%TO.N,/GPIO10_SCL*%
X140852880Y-109780000D02*
X140777573Y-109704693D01*
X146427859Y-108948437D02*
X146427859Y-109026194D01*
X145674053Y-109780000D02*
X140852880Y-109780000D01*
X146427859Y-109026194D02*
X145674053Y-109780000D01*
D12*
%TO.N,/GPIO9_STRP_SDA*%
X145274349Y-108650000D02*
X145648595Y-109024246D01*
X140760000Y-108044753D02*
X141365247Y-108650000D01*
X140760000Y-106614278D02*
X140760000Y-108044753D01*
X141365247Y-108650000D02*
X145274349Y-108650000D01*
X140755600Y-106609878D02*
X140760000Y-106614278D01*
D13*
%TO.N,/GPIO7_CSEND*%
X142170000Y-106480000D02*
X141747478Y-106057478D01*
X143884000Y-108206000D02*
X143356000Y-108206000D01*
X143356000Y-108206000D02*
X142170000Y-107020000D01*
X140000000Y-105660000D02*
X140000000Y-105029964D01*
X141747478Y-106057478D02*
X140397478Y-106057478D01*
X140000000Y-105029964D02*
X140568809Y-104461155D01*
X142170000Y-107020000D02*
X142170000Y-106480000D01*
X144520000Y-107570000D02*
X143884000Y-108206000D01*
X140397478Y-106057478D02*
X140000000Y-105660000D01*
%TD*%
%TA.AperFunction,Conductor*%
%TO.N,GND*%
G36*
X142176598Y-102392810D02*
G01*
X142173711Y-102395960D01*
X141819526Y-102750148D01*
X141784878Y-102764500D01*
X140879603Y-102764500D01*
X140844955Y-102750148D01*
X140842571Y-102747587D01*
X140839639Y-102744203D01*
X140814012Y-102727734D01*
X140755298Y-102690001D01*
X140730073Y-102673790D01*
X140605118Y-102637100D01*
X140605117Y-102637100D01*
X140474883Y-102637100D01*
X140474881Y-102637100D01*
X140349926Y-102673790D01*
X140240362Y-102744202D01*
X140155081Y-102842622D01*
X140155080Y-102842624D01*
X140155079Y-102842625D01*
X140155079Y-102842626D01*
X140151085Y-102851370D01*
X140100975Y-102961093D01*
X140082443Y-103089998D01*
X140082443Y-103090001D01*
X140100975Y-103218906D01*
X140125757Y-103273168D01*
X140155079Y-103337374D01*
X140155080Y-103337375D01*
X140155081Y-103337377D01*
X140237430Y-103432413D01*
X140240364Y-103435799D01*
X140304494Y-103477012D01*
X140349926Y-103506209D01*
X140412403Y-103524554D01*
X140474883Y-103542900D01*
X140474888Y-103542900D01*
X140605112Y-103542900D01*
X140605117Y-103542900D01*
X140730076Y-103506208D01*
X140839636Y-103435799D01*
X140839639Y-103435796D01*
X140842571Y-103432413D01*
X140876106Y-103415625D01*
X140879603Y-103415500D01*
X141923641Y-103415500D01*
X141927911Y-103415686D01*
X141930686Y-103415928D01*
X141968807Y-103419264D01*
X142008457Y-103408638D01*
X142012618Y-103407715D01*
X142053045Y-103400588D01*
X142060054Y-103396540D01*
X142071871Y-103391646D01*
X142079684Y-103389554D01*
X142113314Y-103366004D01*
X142116885Y-103363729D01*
X142152455Y-103343194D01*
X142178854Y-103311731D01*
X142181720Y-103308604D01*
X142535914Y-102954413D01*
X142570562Y-102940061D01*
X142754178Y-102940061D01*
X142788826Y-102954413D01*
X142803178Y-102989061D01*
X142798749Y-103009417D01*
X142779841Y-103050817D01*
X142769918Y-103065109D01*
X140905211Y-104929816D01*
X140870563Y-104944168D01*
X140844072Y-104936390D01*
X140843532Y-104936043D01*
X140819695Y-104920724D01*
X140798307Y-104889919D01*
X140804965Y-104853012D01*
X140819694Y-104838283D01*
X140868445Y-104806954D01*
X140953730Y-104708529D01*
X141007832Y-104590064D01*
X141007832Y-104590062D01*
X141007833Y-104590061D01*
X141026366Y-104461156D01*
X141026366Y-104461153D01*
X141007833Y-104332248D01*
X141003838Y-104323501D01*
X140953730Y-104213781D01*
X140930862Y-104187390D01*
X140868446Y-104115357D01*
X140868445Y-104115356D01*
X140758885Y-104044947D01*
X140758882Y-104044945D01*
X140633927Y-104008255D01*
X140633926Y-104008255D01*
X140503692Y-104008255D01*
X140503690Y-104008255D01*
X140378735Y-104044945D01*
X140269171Y-104115357D01*
X140183890Y-104213777D01*
X140183889Y-104213779D01*
X140129784Y-104332248D01*
X140111252Y-104461153D01*
X140111252Y-104461158D01*
X140111857Y-104465367D01*
X140102582Y-104501705D01*
X140098004Y-104506987D01*
X139827825Y-104777166D01*
X139819374Y-104783248D01*
X139819393Y-104783272D01*
X139815768Y-104786009D01*
X139783358Y-104821559D01*
X139781797Y-104823194D01*
X139767833Y-104837158D01*
X139767824Y-104837169D01*
X139765790Y-104840137D01*
X139761587Y-104845442D01*
X139740085Y-104869029D01*
X139740083Y-104869032D01*
X139734436Y-104883608D01*
X139729172Y-104893594D01*
X139720343Y-104906483D01*
X139720343Y-104906484D01*
X139713036Y-104937547D01*
X139711030Y-104944026D01*
X139710037Y-104946590D01*
X139699660Y-104973380D01*
X139699500Y-104973792D01*
X139699500Y-104989417D01*
X139698198Y-105000636D01*
X139694621Y-105015840D01*
X139694621Y-105015845D01*
X139698306Y-105042264D01*
X139699030Y-105047450D01*
X139699500Y-105054220D01*
X139699500Y-105602990D01*
X139697824Y-105613261D01*
X139697854Y-105613266D01*
X139697227Y-105617759D01*
X139697227Y-105617764D01*
X139697227Y-105617765D01*
X139699182Y-105660045D01*
X139699448Y-105665809D01*
X139699500Y-105668071D01*
X139699500Y-105687843D01*
X139700159Y-105691369D01*
X139700941Y-105698109D01*
X139702026Y-105721588D01*
X139702415Y-105729990D01*
X139702415Y-105729994D01*
X139708728Y-105744291D01*
X139712067Y-105755075D01*
X139714938Y-105770429D01*
X139714940Y-105770435D01*
X139731734Y-105797559D01*
X139734897Y-105803560D01*
X139747792Y-105832764D01*
X139747793Y-105832765D01*
X139758842Y-105843813D01*
X139765852Y-105852662D01*
X139771972Y-105862546D01*
X139774081Y-105865952D01*
X139799550Y-105885185D01*
X139804669Y-105889640D01*
X140144678Y-106229649D01*
X140150759Y-106238099D01*
X140150783Y-106238082D01*
X140153518Y-106241703D01*
X140153520Y-106241706D01*
X140189086Y-106274129D01*
X140190700Y-106275671D01*
X140204676Y-106289648D01*
X140204679Y-106289650D01*
X140204681Y-106289652D01*
X140207641Y-106291679D01*
X140212954Y-106295888D01*
X140214275Y-106297092D01*
X140236545Y-106317394D01*
X140251114Y-106323038D01*
X140261105Y-106328304D01*
X140273994Y-106337133D01*
X140273996Y-106337133D01*
X140273998Y-106337135D01*
X140305077Y-106344445D01*
X140311533Y-106346444D01*
X140319560Y-106349554D01*
X140346683Y-106375452D01*
X140347549Y-106412945D01*
X140346430Y-106415599D01*
X140316576Y-106480968D01*
X140316576Y-106480970D01*
X140298043Y-106609876D01*
X140298043Y-106609879D01*
X140316575Y-106738784D01*
X140333354Y-106775524D01*
X140370679Y-106857252D01*
X140370680Y-106857253D01*
X140370681Y-106857255D01*
X140422532Y-106917094D01*
X140434500Y-106949182D01*
X140434500Y-108028394D01*
X140434314Y-108032664D01*
X140430736Y-108073560D01*
X140441361Y-108113213D01*
X140442285Y-108117385D01*
X140449411Y-108157797D01*
X140449412Y-108157799D01*
X140453455Y-108164801D01*
X140458351Y-108176620D01*
X140460445Y-108184435D01*
X140483988Y-108218060D01*
X140486284Y-108221664D01*
X140506804Y-108257206D01*
X140506805Y-108257208D01*
X140538253Y-108283595D01*
X140541405Y-108286484D01*
X141123516Y-108868595D01*
X141126405Y-108871747D01*
X141152791Y-108903194D01*
X141152793Y-108903195D01*
X141188342Y-108923719D01*
X141191939Y-108926010D01*
X141225563Y-108949554D01*
X141233375Y-108951646D01*
X141245190Y-108956539D01*
X141252202Y-108960588D01*
X141292624Y-108967715D01*
X141296794Y-108968640D01*
X141336441Y-108979264D01*
X141377340Y-108975686D01*
X141381610Y-108975500D01*
X145119227Y-108975500D01*
X145153875Y-108989852D01*
X145179969Y-109015946D01*
X145193822Y-109043620D01*
X145207634Y-109139678D01*
X145209572Y-109153155D01*
X145263674Y-109271620D01*
X145263675Y-109271621D01*
X145263676Y-109271623D01*
X145348959Y-109370045D01*
X145378887Y-109389279D01*
X145400276Y-109420084D01*
X145393617Y-109456991D01*
X145362812Y-109478380D01*
X145352396Y-109479500D01*
X141203505Y-109479500D01*
X141168857Y-109465148D01*
X141163265Y-109458208D01*
X141077210Y-109358895D01*
X141077209Y-109358894D01*
X140967649Y-109288485D01*
X140967646Y-109288483D01*
X140842691Y-109251793D01*
X140842690Y-109251793D01*
X140712456Y-109251793D01*
X140712454Y-109251793D01*
X140587499Y-109288483D01*
X140477935Y-109358895D01*
X140392654Y-109457315D01*
X140392653Y-109457317D01*
X140338548Y-109575786D01*
X140320016Y-109704691D01*
X140320016Y-109704694D01*
X140338548Y-109833599D01*
X140359378Y-109879208D01*
X140392652Y-109952067D01*
X140392653Y-109952068D01*
X140392654Y-109952070D01*
X140477935Y-110050490D01*
X140477937Y-110050492D01*
X140585026Y-110119313D01*
X140587499Y-110120902D01*
X140626924Y-110132478D01*
X140656125Y-110156010D01*
X140660134Y-110193298D01*
X140636602Y-110222499D01*
X140613398Y-110228492D01*
X138043718Y-110243106D01*
X138008988Y-110228952D01*
X137994440Y-110194386D01*
X137994439Y-110194107D01*
X137994439Y-109063903D01*
X138958108Y-109063903D01*
X138976640Y-109192808D01*
X138998229Y-109240079D01*
X139030744Y-109311276D01*
X139030745Y-109311277D01*
X139030746Y-109311279D01*
X139109532Y-109402203D01*
X139116029Y-109409701D01*
X139209836Y-109469986D01*
X139225591Y-109480111D01*
X139288068Y-109498456D01*
X139350548Y-109516802D01*
X139350553Y-109516802D01*
X139480777Y-109516802D01*
X139480782Y-109516802D01*
X139605741Y-109480110D01*
X139715301Y-109409701D01*
X139800586Y-109311276D01*
X139854688Y-109192811D01*
X139854688Y-109192809D01*
X139854689Y-109192808D01*
X139873222Y-109063903D01*
X139873222Y-109063900D01*
X139854689Y-108934995D01*
X139840166Y-108903195D01*
X139800586Y-108816528D01*
X139734108Y-108739808D01*
X139715302Y-108718104D01*
X139715301Y-108718103D01*
X139605741Y-108647694D01*
X139605738Y-108647692D01*
X139480783Y-108611002D01*
X139480782Y-108611002D01*
X139350548Y-108611002D01*
X139350546Y-108611002D01*
X139225591Y-108647692D01*
X139116027Y-108718104D01*
X139030746Y-108816524D01*
X139030745Y-108816526D01*
X138976640Y-108934995D01*
X138958108Y-109063900D01*
X138958108Y-109063903D01*
X137994439Y-109063903D01*
X137994439Y-106620001D01*
X138092443Y-106620001D01*
X138110975Y-106748906D01*
X138130757Y-106792221D01*
X138165079Y-106867374D01*
X138165080Y-106867375D01*
X138165081Y-106867377D01*
X138248284Y-106963399D01*
X138250364Y-106965799D01*
X138359924Y-107036208D01*
X138359926Y-107036209D01*
X138415824Y-107052622D01*
X138484883Y-107072900D01*
X138484888Y-107072900D01*
X138615112Y-107072900D01*
X138615117Y-107072900D01*
X138740076Y-107036208D01*
X138849636Y-106965799D01*
X138934921Y-106867374D01*
X138989023Y-106748909D01*
X138989023Y-106748907D01*
X138989024Y-106748906D01*
X139007557Y-106620001D01*
X139007557Y-106619998D01*
X138989024Y-106491093D01*
X138971242Y-106452157D01*
X138934921Y-106372626D01*
X138932270Y-106369567D01*
X138849637Y-106274202D01*
X138849636Y-106274201D01*
X138747567Y-106208606D01*
X138740073Y-106203790D01*
X138615118Y-106167100D01*
X138615117Y-106167100D01*
X138484883Y-106167100D01*
X138484881Y-106167100D01*
X138359926Y-106203790D01*
X138250362Y-106274202D01*
X138165081Y-106372622D01*
X138165080Y-106372624D01*
X138110975Y-106491093D01*
X138092443Y-106619998D01*
X138092443Y-106620001D01*
X137994439Y-106620001D01*
X137994439Y-102495677D01*
X138008791Y-102461029D01*
X138042723Y-102446682D01*
X142182083Y-102386273D01*
X142176598Y-102392810D01*
G37*
%TD.AperFunction*%
%TA.AperFunction,Conductor*%
G36*
X146461172Y-107110852D02*
G01*
X147208187Y-107857867D01*
X147222539Y-107892515D01*
X147208187Y-107927163D01*
X147200030Y-107933736D01*
X147131464Y-107977800D01*
X147046181Y-108076222D01*
X147046180Y-108076224D01*
X146992075Y-108194693D01*
X146973543Y-108323598D01*
X146973543Y-108323601D01*
X146992075Y-108452506D01*
X147014685Y-108502013D01*
X147046179Y-108570974D01*
X147046180Y-108570975D01*
X147046181Y-108570977D01*
X147113626Y-108648813D01*
X147131464Y-108669399D01*
X147207795Y-108718453D01*
X147241026Y-108739809D01*
X147273646Y-108749387D01*
X147365983Y-108776500D01*
X147365988Y-108776500D01*
X147496212Y-108776500D01*
X147496217Y-108776500D01*
X147621176Y-108739808D01*
X147730736Y-108669399D01*
X147816021Y-108570974D01*
X147819707Y-108562901D01*
X147847151Y-108537346D01*
X147884630Y-108538681D01*
X147898927Y-108548607D01*
X149054785Y-109704465D01*
X149069137Y-109739113D01*
X149068639Y-109746083D01*
X149068033Y-109750299D01*
X149068033Y-109750301D01*
X149086565Y-109879205D01*
X149096996Y-109902045D01*
X149140669Y-109997673D01*
X149140670Y-109997674D01*
X149140671Y-109997676D01*
X149228139Y-110098620D01*
X149239982Y-110134204D01*
X149223195Y-110167740D01*
X149191386Y-110179707D01*
X140948801Y-110226585D01*
X140914071Y-110212431D01*
X140899523Y-110177865D01*
X140913677Y-110143135D01*
X140934717Y-110130571D01*
X140967646Y-110120902D01*
X140967646Y-110120901D01*
X140967649Y-110120901D01*
X141018412Y-110088277D01*
X141044903Y-110080500D01*
X145617043Y-110080500D01*
X145627314Y-110082175D01*
X145627319Y-110082146D01*
X145631812Y-110082772D01*
X145631814Y-110082771D01*
X145631818Y-110082773D01*
X145678389Y-110080620D01*
X145679864Y-110080552D01*
X145682126Y-110080500D01*
X145701896Y-110080500D01*
X145701897Y-110080500D01*
X145705418Y-110079841D01*
X145712160Y-110079058D01*
X145744045Y-110077585D01*
X145758346Y-110071269D01*
X145769124Y-110067932D01*
X145784486Y-110065061D01*
X145811623Y-110048258D01*
X145817603Y-110045105D01*
X145846818Y-110032206D01*
X145857872Y-110021150D01*
X145866715Y-110014146D01*
X145880005Y-110005919D01*
X145899244Y-109980440D01*
X145903687Y-109975335D01*
X146463589Y-109415435D01*
X146489634Y-109402398D01*
X146489613Y-109402324D01*
X146490023Y-109402203D01*
X146491263Y-109401583D01*
X146492967Y-109401337D01*
X146492976Y-109401337D01*
X146617935Y-109364645D01*
X146727495Y-109294236D01*
X146812780Y-109195811D01*
X146866882Y-109077346D01*
X146866882Y-109077344D01*
X146866883Y-109077343D01*
X146885416Y-108948438D01*
X146885416Y-108948435D01*
X146866883Y-108819530D01*
X146847231Y-108776499D01*
X146812780Y-108701063D01*
X146805548Y-108692717D01*
X146727496Y-108602639D01*
X146727495Y-108602638D01*
X146617935Y-108532229D01*
X146617932Y-108532227D01*
X146492977Y-108495537D01*
X146492976Y-108495537D01*
X146362742Y-108495537D01*
X146362740Y-108495537D01*
X146237785Y-108532227D01*
X146128221Y-108602639D01*
X146042414Y-108701666D01*
X146008878Y-108718453D01*
X145973294Y-108706610D01*
X145968350Y-108701666D01*
X145948232Y-108678448D01*
X145948231Y-108678447D01*
X145838671Y-108608038D01*
X145838668Y-108608036D01*
X145713713Y-108571346D01*
X145713712Y-108571346D01*
X145676317Y-108571346D01*
X145641669Y-108556994D01*
X145516073Y-108431398D01*
X145513196Y-108428259D01*
X145486804Y-108396806D01*
X145485924Y-108396298D01*
X145451260Y-108376284D01*
X145447656Y-108373988D01*
X145425691Y-108358608D01*
X145414033Y-108350446D01*
X145414032Y-108350445D01*
X145414031Y-108350445D01*
X145406216Y-108348351D01*
X145394397Y-108343455D01*
X145387395Y-108339412D01*
X145387393Y-108339411D01*
X145346981Y-108332285D01*
X145342815Y-108331362D01*
X145303156Y-108320736D01*
X145303155Y-108320736D01*
X145262260Y-108324314D01*
X145257990Y-108324500D01*
X144308767Y-108324500D01*
X144274119Y-108310148D01*
X144259767Y-108275500D01*
X144274119Y-108240852D01*
X144477719Y-108037252D01*
X144512367Y-108022900D01*
X144585112Y-108022900D01*
X144585117Y-108022900D01*
X144710076Y-107986208D01*
X144819636Y-107915799D01*
X144904921Y-107817374D01*
X144959023Y-107698909D01*
X144959023Y-107698907D01*
X144959024Y-107698906D01*
X144977557Y-107570001D01*
X144977557Y-107569998D01*
X144959024Y-107441093D01*
X144936102Y-107390902D01*
X144904921Y-107322626D01*
X144903200Y-107320640D01*
X144819637Y-107224202D01*
X144819636Y-107224201D01*
X144761315Y-107186721D01*
X144739927Y-107155916D01*
X144746585Y-107119009D01*
X144777391Y-107097620D01*
X144787807Y-107096500D01*
X146426524Y-107096500D01*
X146461172Y-107110852D01*
G37*
%TD.AperFunction*%
%TA.AperFunction,Conductor*%
G36*
X151035702Y-99955739D02*
G01*
X151050054Y-99990387D01*
X151035702Y-100025035D01*
X151027980Y-100031326D01*
X150915728Y-100105154D01*
X150915723Y-100105158D01*
X150795416Y-100232676D01*
X150795411Y-100232683D01*
X150707751Y-100384515D01*
X150707747Y-100384524D01*
X150657467Y-100552470D01*
X150657465Y-100552480D01*
X150657109Y-100558600D01*
X151624758Y-100558600D01*
X151597205Y-100655440D01*
X151607554Y-100767121D01*
X151628208Y-100808600D01*
X150802985Y-100808600D01*
X150776494Y-100800822D01*
X150691173Y-100745990D01*
X150566218Y-100709300D01*
X150566217Y-100709300D01*
X150435983Y-100709300D01*
X150435981Y-100709300D01*
X150311026Y-100745990D01*
X150201462Y-100816402D01*
X150116181Y-100914822D01*
X150116180Y-100914824D01*
X150062075Y-101033293D01*
X150043543Y-101162198D01*
X150043543Y-101162201D01*
X150062075Y-101291106D01*
X150090891Y-101354201D01*
X150116179Y-101409574D01*
X150116180Y-101409575D01*
X150116181Y-101409577D01*
X150188632Y-101493189D01*
X150200600Y-101525277D01*
X150200600Y-103849240D01*
X150198924Y-103859511D01*
X150198954Y-103859516D01*
X150198327Y-103864009D01*
X150200548Y-103912059D01*
X150200600Y-103914321D01*
X150200600Y-103934093D01*
X150201259Y-103937619D01*
X150202041Y-103944359D01*
X150203515Y-103976240D01*
X150203515Y-103976244D01*
X150209828Y-103990541D01*
X150213167Y-104001325D01*
X150216038Y-104016679D01*
X150216040Y-104016685D01*
X150232834Y-104043809D01*
X150235997Y-104049810D01*
X150248892Y-104079013D01*
X150248989Y-104079110D01*
X150249035Y-104079223D01*
X150251460Y-104082762D01*
X150250714Y-104083272D01*
X150263346Y-104113756D01*
X150248999Y-104148406D01*
X150214353Y-104162763D01*
X150200542Y-104160778D01*
X150166220Y-104150701D01*
X150166217Y-104150700D01*
X150035983Y-104150700D01*
X150035981Y-104150700D01*
X149911026Y-104187390D01*
X149801462Y-104257802D01*
X149716181Y-104356222D01*
X149716180Y-104356224D01*
X149662075Y-104474693D01*
X149643543Y-104603598D01*
X149643543Y-104603601D01*
X149662075Y-104732506D01*
X149703920Y-104824131D01*
X149705259Y-104861610D01*
X149685840Y-104885708D01*
X149651464Y-104907800D01*
X149566181Y-105006222D01*
X149566180Y-105006224D01*
X149512075Y-105124693D01*
X149493543Y-105253598D01*
X149493543Y-105253601D01*
X149512075Y-105382506D01*
X149535173Y-105433082D01*
X149566179Y-105500974D01*
X149566180Y-105500975D01*
X149566181Y-105500977D01*
X149647900Y-105595286D01*
X149651464Y-105599399D01*
X149717326Y-105641725D01*
X149738715Y-105672531D01*
X149732057Y-105709438D01*
X149717326Y-105724168D01*
X149622957Y-105784815D01*
X149537674Y-105883237D01*
X149537673Y-105883239D01*
X149483568Y-106001708D01*
X149465036Y-106130613D01*
X149465036Y-106130616D01*
X149483568Y-106259521D01*
X149500727Y-106297092D01*
X149537672Y-106377989D01*
X149537673Y-106377990D01*
X149537674Y-106377992D01*
X149601938Y-106452157D01*
X149622957Y-106476414D01*
X149732517Y-106546823D01*
X149732519Y-106546824D01*
X149772737Y-106558633D01*
X149857476Y-106583515D01*
X149857481Y-106583515D01*
X149987705Y-106583515D01*
X149987710Y-106583515D01*
X150112669Y-106546823D01*
X150222229Y-106476414D01*
X150307514Y-106377989D01*
X150361616Y-106259524D01*
X150361616Y-106259522D01*
X150361617Y-106259521D01*
X150380150Y-106130616D01*
X150380150Y-106130613D01*
X150361617Y-106001708D01*
X150352848Y-105982508D01*
X150307514Y-105883241D01*
X150300067Y-105874647D01*
X150233273Y-105797562D01*
X150222229Y-105784816D01*
X150222228Y-105784815D01*
X150156366Y-105742488D01*
X150134977Y-105711683D01*
X150141636Y-105674776D01*
X150156362Y-105660048D01*
X150250736Y-105599399D01*
X150336021Y-105500974D01*
X150390123Y-105382509D01*
X150390123Y-105382507D01*
X150390124Y-105382506D01*
X150408657Y-105253601D01*
X150408657Y-105253598D01*
X150390124Y-105124693D01*
X150380265Y-105103105D01*
X150348278Y-105033066D01*
X150346940Y-104995589D01*
X150366359Y-104971491D01*
X150400736Y-104949399D01*
X150486021Y-104850974D01*
X150540123Y-104732509D01*
X150540123Y-104732507D01*
X150540124Y-104732506D01*
X150558657Y-104603601D01*
X150558657Y-104603598D01*
X150543536Y-104498427D01*
X150552811Y-104462089D01*
X150585064Y-104442953D01*
X150621402Y-104452228D01*
X150626685Y-104456806D01*
X151682050Y-105512171D01*
X151688131Y-105520621D01*
X151688155Y-105520604D01*
X151690890Y-105524225D01*
X151690892Y-105524228D01*
X151726458Y-105556651D01*
X151728072Y-105558193D01*
X151742048Y-105572170D01*
X151742051Y-105572172D01*
X151742053Y-105572174D01*
X151745013Y-105574201D01*
X151750327Y-105578411D01*
X151773917Y-105599916D01*
X151788486Y-105605560D01*
X151798477Y-105610826D01*
X151811366Y-105619655D01*
X151811368Y-105619655D01*
X151811370Y-105619657D01*
X151842449Y-105626967D01*
X151848905Y-105628966D01*
X151878677Y-105640500D01*
X151894303Y-105640500D01*
X151905522Y-105641802D01*
X151920726Y-105645378D01*
X151920727Y-105645378D01*
X151920731Y-105645379D01*
X151947247Y-105641679D01*
X151952338Y-105640970D01*
X151959107Y-105640500D01*
X152355596Y-105640500D01*
X152390244Y-105654852D01*
X152404596Y-105689500D01*
X152392628Y-105721588D01*
X152305081Y-105822622D01*
X152305080Y-105822624D01*
X152250975Y-105941093D01*
X152232443Y-106069998D01*
X152232443Y-106070001D01*
X152250975Y-106198906D01*
X152272207Y-106245396D01*
X152305079Y-106317374D01*
X152305080Y-106317375D01*
X152305081Y-106317377D01*
X152390362Y-106415797D01*
X152390364Y-106415799D01*
X152499924Y-106486208D01*
X152499926Y-106486209D01*
X152562403Y-106504554D01*
X152624883Y-106522900D01*
X152624888Y-106522900D01*
X152755112Y-106522900D01*
X152755117Y-106522900D01*
X152873214Y-106488223D01*
X152880073Y-106486209D01*
X152880073Y-106486208D01*
X152880076Y-106486208D01*
X152989636Y-106415799D01*
X152989810Y-106415599D01*
X152993466Y-106411379D01*
X153027001Y-106394589D01*
X153062585Y-106406430D01*
X153079375Y-106439965D01*
X153079500Y-106443464D01*
X153079500Y-106729402D01*
X153077824Y-106739673D01*
X153077854Y-106739678D01*
X153077227Y-106744171D01*
X153079448Y-106792221D01*
X153079500Y-106794483D01*
X153079500Y-106814255D01*
X153080159Y-106817781D01*
X153080941Y-106824521D01*
X153082415Y-106856402D01*
X153082415Y-106856406D01*
X153088728Y-106870703D01*
X153092067Y-106881487D01*
X153094938Y-106896841D01*
X153094940Y-106896847D01*
X153111734Y-106923971D01*
X153114897Y-106929972D01*
X153127792Y-106959176D01*
X153127793Y-106959177D01*
X153138842Y-106970225D01*
X153145852Y-106979074D01*
X153150127Y-106985978D01*
X153154081Y-106992364D01*
X153179550Y-107011597D01*
X153184669Y-107016052D01*
X153361553Y-107192936D01*
X153375405Y-107220609D01*
X153386821Y-107300001D01*
X153390977Y-107328909D01*
X153390977Y-107328910D01*
X153403957Y-107357331D01*
X153445079Y-107447374D01*
X153445080Y-107447375D01*
X153445081Y-107447377D01*
X153515316Y-107528433D01*
X153530364Y-107545799D01*
X153637662Y-107614754D01*
X153639926Y-107616209D01*
X153698494Y-107633406D01*
X153764883Y-107652900D01*
X153764888Y-107652900D01*
X153895112Y-107652900D01*
X153895117Y-107652900D01*
X154020076Y-107616208D01*
X154129636Y-107545799D01*
X154214921Y-107447374D01*
X154269023Y-107328909D01*
X154269023Y-107328907D01*
X154269024Y-107328906D01*
X154287557Y-107200001D01*
X154287557Y-107199998D01*
X154269024Y-107071093D01*
X154258406Y-107047843D01*
X154218902Y-106961344D01*
X154217564Y-106923869D01*
X154229866Y-106906156D01*
X154229741Y-106906048D01*
X154230751Y-106904881D01*
X154231398Y-106903951D01*
X154232029Y-106903402D01*
X154232036Y-106903399D01*
X154317321Y-106804974D01*
X154371423Y-106686509D01*
X154371423Y-106686507D01*
X154371424Y-106686506D01*
X154389957Y-106557601D01*
X154389957Y-106557598D01*
X154371424Y-106428693D01*
X154362890Y-106410006D01*
X154317321Y-106310226D01*
X154314826Y-106307347D01*
X154232037Y-106211802D01*
X154232036Y-106211801D01*
X154130182Y-106146344D01*
X154122473Y-106141390D01*
X153997518Y-106104700D01*
X153997517Y-106104700D01*
X153867283Y-106104700D01*
X153867281Y-106104700D01*
X153743305Y-106141103D01*
X153706017Y-106137094D01*
X153682485Y-106107893D01*
X153680500Y-106094088D01*
X153680500Y-105687011D01*
X153682175Y-105676742D01*
X153682145Y-105676738D01*
X153682771Y-105672240D01*
X153682773Y-105672236D01*
X153680552Y-105624189D01*
X153680500Y-105621927D01*
X153680500Y-105602157D01*
X153679841Y-105598635D01*
X153679058Y-105591897D01*
X153677585Y-105560008D01*
X153676698Y-105557999D01*
X153671272Y-105545710D01*
X153667932Y-105534927D01*
X153665061Y-105519567D01*
X153648258Y-105492429D01*
X153645097Y-105486431D01*
X153632205Y-105457233D01*
X153621158Y-105446186D01*
X153614146Y-105437334D01*
X153605920Y-105424050D01*
X153605919Y-105424048D01*
X153605917Y-105424046D01*
X153605916Y-105424045D01*
X153580448Y-105404813D01*
X153575329Y-105400358D01*
X153342799Y-105167828D01*
X153336718Y-105159377D01*
X153336694Y-105159396D01*
X153333959Y-105155774D01*
X153333958Y-105155772D01*
X153316434Y-105139797D01*
X153298414Y-105123369D01*
X153296776Y-105121805D01*
X153282801Y-105107829D01*
X153282793Y-105107822D01*
X153279842Y-105105801D01*
X153274523Y-105101589D01*
X153267626Y-105095302D01*
X153250933Y-105080084D01*
X153250931Y-105080083D01*
X153236355Y-105074436D01*
X153226366Y-105069170D01*
X153213482Y-105060344D01*
X153213477Y-105060342D01*
X153182419Y-105053037D01*
X153175940Y-105051031D01*
X153159854Y-105044800D01*
X153153306Y-105042263D01*
X153126182Y-105016366D01*
X153125314Y-104978873D01*
X153151212Y-104951748D01*
X153157192Y-104949559D01*
X153171785Y-104945275D01*
X153281345Y-104874866D01*
X153366630Y-104776441D01*
X153405876Y-104690504D01*
X153433325Y-104664950D01*
X153470804Y-104666289D01*
X153485095Y-104676212D01*
X154062480Y-105253598D01*
X154583488Y-105774606D01*
X154586376Y-105777758D01*
X154612755Y-105809196D01*
X154612757Y-105809197D01*
X154612759Y-105809199D01*
X154648313Y-105829725D01*
X154651903Y-105832012D01*
X154685530Y-105855558D01*
X154693342Y-105857651D01*
X154705159Y-105862546D01*
X154712169Y-105866593D01*
X154752609Y-105873723D01*
X154756761Y-105874644D01*
X154796407Y-105885268D01*
X154837294Y-105881691D01*
X154841564Y-105881505D01*
X154904744Y-105881505D01*
X154939392Y-105895857D01*
X154941776Y-105898418D01*
X154944707Y-105901801D01*
X154944709Y-105901802D01*
X154944711Y-105901804D01*
X155005844Y-105941091D01*
X155054273Y-105972214D01*
X155116750Y-105990559D01*
X155179230Y-106008905D01*
X155179235Y-106008905D01*
X155309459Y-106008905D01*
X155309464Y-106008905D01*
X155434423Y-105972213D01*
X155543983Y-105901804D01*
X155629268Y-105803379D01*
X155683370Y-105684914D01*
X155683370Y-105684912D01*
X155683371Y-105684911D01*
X155701904Y-105556006D01*
X155701904Y-105556003D01*
X155684231Y-105433082D01*
X155693506Y-105396744D01*
X155725759Y-105377608D01*
X155746531Y-105379093D01*
X155780072Y-105388942D01*
X155780077Y-105388942D01*
X155910301Y-105388942D01*
X155910306Y-105388942D01*
X156035265Y-105352250D01*
X156144825Y-105281841D01*
X156230110Y-105183416D01*
X156284212Y-105064951D01*
X156284212Y-105064949D01*
X156284213Y-105064948D01*
X156302746Y-104936043D01*
X156302746Y-104936040D01*
X156284213Y-104807135D01*
X156270526Y-104777166D01*
X156230110Y-104688668D01*
X156209558Y-104664950D01*
X156144826Y-104590244D01*
X156144825Y-104590243D01*
X156035265Y-104519834D01*
X156035262Y-104519832D01*
X155910307Y-104483142D01*
X155910306Y-104483142D01*
X155780072Y-104483142D01*
X155780070Y-104483142D01*
X155655115Y-104519832D01*
X155545551Y-104590244D01*
X155460270Y-104688664D01*
X155460269Y-104688666D01*
X155406164Y-104807135D01*
X155387632Y-104936040D01*
X155387632Y-104936043D01*
X155405304Y-105058964D01*
X155396029Y-105095302D01*
X155363776Y-105114438D01*
X155342999Y-105112952D01*
X155318646Y-105105801D01*
X155309465Y-105103105D01*
X155309464Y-105103105D01*
X155179230Y-105103105D01*
X155179228Y-105103105D01*
X155054273Y-105139795D01*
X154974903Y-105190802D01*
X154937995Y-105197460D01*
X154913764Y-105184228D01*
X153337193Y-103607658D01*
X153322841Y-103573010D01*
X153337193Y-103538362D01*
X154835704Y-102039852D01*
X154870352Y-102025500D01*
X155120397Y-102025500D01*
X155155045Y-102039852D01*
X155157429Y-102042413D01*
X155160360Y-102045796D01*
X155160362Y-102045797D01*
X155160364Y-102045799D01*
X155265866Y-102113600D01*
X155269926Y-102116209D01*
X155332403Y-102134554D01*
X155394883Y-102152900D01*
X155394888Y-102152900D01*
X155525112Y-102152900D01*
X155525117Y-102152900D01*
X155650076Y-102116208D01*
X155759636Y-102045799D01*
X155844921Y-101947374D01*
X155899023Y-101828909D01*
X155899023Y-101828907D01*
X155899024Y-101828906D01*
X155917557Y-101700001D01*
X155917557Y-101699998D01*
X155899024Y-101571093D01*
X155878100Y-101525277D01*
X155867905Y-101502955D01*
X155866567Y-101465477D01*
X155892122Y-101438028D01*
X155912478Y-101433600D01*
X155926100Y-101433600D01*
X155926100Y-100956900D01*
X155995020Y-100983600D01*
X156078902Y-100983600D01*
X156161350Y-100968188D01*
X156176100Y-100959055D01*
X156176100Y-101433600D01*
X156594779Y-101433600D01*
X156725240Y-101418351D01*
X156725241Y-101418350D01*
X156889986Y-101358388D01*
X156889990Y-101358386D01*
X157036471Y-101262045D01*
X157036476Y-101262041D01*
X157156783Y-101134523D01*
X157156788Y-101134516D01*
X157245004Y-100981722D01*
X157274757Y-100958892D01*
X157311939Y-100963787D01*
X157334769Y-100993540D01*
X157336439Y-101006222D01*
X157336439Y-107071566D01*
X157322087Y-107106214D01*
X157287439Y-107120566D01*
X157252791Y-107106214D01*
X157242867Y-107091922D01*
X157224921Y-107052626D01*
X157220777Y-107047844D01*
X157139637Y-106954202D01*
X157139636Y-106954201D01*
X157030076Y-106883792D01*
X157030073Y-106883790D01*
X156905118Y-106847100D01*
X156905117Y-106847100D01*
X156774883Y-106847100D01*
X156774881Y-106847100D01*
X156649926Y-106883790D01*
X156540362Y-106954202D01*
X156455081Y-107052622D01*
X156455080Y-107052624D01*
X156400975Y-107171093D01*
X156382443Y-107299998D01*
X156382443Y-107300001D01*
X156400975Y-107428906D01*
X156425748Y-107483149D01*
X156455079Y-107547374D01*
X156455080Y-107547375D01*
X156455081Y-107547377D01*
X156529625Y-107633406D01*
X156540364Y-107645799D01*
X156649924Y-107716208D01*
X156649926Y-107716209D01*
X156712403Y-107734554D01*
X156774883Y-107752900D01*
X156774888Y-107752900D01*
X156905112Y-107752900D01*
X156905117Y-107752900D01*
X157030076Y-107716208D01*
X157139636Y-107645799D01*
X157224921Y-107547374D01*
X157242868Y-107508075D01*
X157270315Y-107482522D01*
X157307795Y-107483861D01*
X157333350Y-107511309D01*
X157336439Y-107528433D01*
X157336439Y-109013354D01*
X157322087Y-109048002D01*
X157287439Y-109062354D01*
X157252791Y-109048002D01*
X157242446Y-109032762D01*
X157205040Y-108946046D01*
X157205040Y-108946045D01*
X157100343Y-108805414D01*
X156966037Y-108692717D01*
X156809362Y-108614032D01*
X156809360Y-108614031D01*
X156638761Y-108573600D01*
X156176100Y-108573600D01*
X156176100Y-109050299D01*
X156107180Y-109023600D01*
X156023298Y-109023600D01*
X155940850Y-109039012D01*
X155926100Y-109048144D01*
X155926100Y-108573600D01*
X155507421Y-108573600D01*
X155376959Y-108588848D01*
X155376958Y-108588849D01*
X155212213Y-108648811D01*
X155212209Y-108648813D01*
X155065728Y-108745154D01*
X155065723Y-108745158D01*
X154945416Y-108872676D01*
X154945411Y-108872683D01*
X154857751Y-109024515D01*
X154857747Y-109024524D01*
X154807467Y-109192470D01*
X154807465Y-109192480D01*
X154807109Y-109198600D01*
X155774758Y-109198600D01*
X155747205Y-109295440D01*
X155757554Y-109407121D01*
X155778208Y-109448600D01*
X154811571Y-109448600D01*
X154827716Y-109540165D01*
X154827716Y-109540166D01*
X154897159Y-109701153D01*
X154897159Y-109701154D01*
X155001856Y-109841785D01*
X155136162Y-109954482D01*
X155292837Y-110033167D01*
X155292841Y-110033168D01*
X155355575Y-110048036D01*
X155385980Y-110069990D01*
X155391955Y-110107014D01*
X155370001Y-110137419D01*
X155344555Y-110144714D01*
X152541542Y-110160655D01*
X152506812Y-110146501D01*
X152492264Y-110111935D01*
X152506418Y-110077205D01*
X152535575Y-110062987D01*
X152575240Y-110058351D01*
X152575241Y-110058350D01*
X152739986Y-109998388D01*
X152739990Y-109998386D01*
X152886471Y-109902045D01*
X152886476Y-109902041D01*
X153006783Y-109774523D01*
X153006788Y-109774516D01*
X153094448Y-109622684D01*
X153094452Y-109622675D01*
X153144732Y-109454729D01*
X153144734Y-109454719D01*
X153145091Y-109448600D01*
X152177442Y-109448600D01*
X152204995Y-109351760D01*
X152194646Y-109240079D01*
X152173992Y-109198600D01*
X153140628Y-109198600D01*
X153124483Y-109107034D01*
X153124483Y-109107033D01*
X153055040Y-108946046D01*
X153055040Y-108946045D01*
X152950343Y-108805414D01*
X152816037Y-108692717D01*
X152659362Y-108614032D01*
X152659360Y-108614031D01*
X152488761Y-108573600D01*
X152026100Y-108573600D01*
X152026100Y-109050299D01*
X151957180Y-109023600D01*
X151873298Y-109023600D01*
X151790850Y-109039012D01*
X151776100Y-109048144D01*
X151776100Y-108573600D01*
X151357421Y-108573600D01*
X151226959Y-108588848D01*
X151226958Y-108588849D01*
X151062213Y-108648811D01*
X151062209Y-108648813D01*
X150915728Y-108745154D01*
X150915723Y-108745158D01*
X150795416Y-108872676D01*
X150795411Y-108872683D01*
X150707751Y-109024515D01*
X150707747Y-109024524D01*
X150657467Y-109192470D01*
X150657465Y-109192480D01*
X150657109Y-109198600D01*
X151624758Y-109198600D01*
X151597205Y-109295440D01*
X151607554Y-109407121D01*
X151628208Y-109448600D01*
X150661571Y-109448600D01*
X150677716Y-109540165D01*
X150677716Y-109540166D01*
X150747159Y-109701153D01*
X150747159Y-109701154D01*
X150851856Y-109841785D01*
X150986162Y-109954482D01*
X151142837Y-110033167D01*
X151142839Y-110033168D01*
X151302825Y-110071084D01*
X151333229Y-110093039D01*
X151339204Y-110130063D01*
X151317249Y-110160467D01*
X151291804Y-110167762D01*
X149863664Y-110175884D01*
X149828934Y-110161730D01*
X149814386Y-110127164D01*
X149826353Y-110094797D01*
X149910511Y-109997673D01*
X149964613Y-109879208D01*
X149964613Y-109879206D01*
X149964614Y-109879205D01*
X149983147Y-109750300D01*
X149983147Y-109750297D01*
X149964614Y-109621392D01*
X149931618Y-109549143D01*
X149910511Y-109502925D01*
X149890213Y-109479500D01*
X149825227Y-109404501D01*
X149825226Y-109404500D01*
X149715666Y-109334091D01*
X149715663Y-109334089D01*
X149590708Y-109297399D01*
X149590707Y-109297399D01*
X149517957Y-109297399D01*
X149483309Y-109283047D01*
X148702275Y-108502013D01*
X149093918Y-108502013D01*
X149112450Y-108630918D01*
X149134157Y-108678447D01*
X149166554Y-108749386D01*
X149166555Y-108749387D01*
X149166556Y-108749389D01*
X149251837Y-108847809D01*
X149251839Y-108847811D01*
X149361399Y-108918220D01*
X149361401Y-108918221D01*
X149418521Y-108934993D01*
X149486358Y-108954912D01*
X149486363Y-108954912D01*
X149616587Y-108954912D01*
X149616592Y-108954912D01*
X149741551Y-108918220D01*
X149851111Y-108847811D01*
X149936396Y-108749386D01*
X149990498Y-108630921D01*
X149990498Y-108630919D01*
X149990499Y-108630918D01*
X150009032Y-108502013D01*
X150009032Y-108502010D01*
X149990499Y-108373105D01*
X149976958Y-108343455D01*
X149936396Y-108254638D01*
X149924450Y-108240852D01*
X149851112Y-108156214D01*
X149851111Y-108156213D01*
X149741551Y-108085804D01*
X149741548Y-108085802D01*
X149616593Y-108049112D01*
X149616592Y-108049112D01*
X149486358Y-108049112D01*
X149486356Y-108049112D01*
X149361401Y-108085802D01*
X149251837Y-108156214D01*
X149166556Y-108254634D01*
X149166555Y-108254636D01*
X149112450Y-108373105D01*
X149093918Y-108502010D01*
X149093918Y-108502013D01*
X148702275Y-108502013D01*
X148174888Y-107974626D01*
X148160536Y-107939978D01*
X148174888Y-107905330D01*
X148209536Y-107890978D01*
X148223338Y-107892962D01*
X148286177Y-107911414D01*
X148286182Y-107911414D01*
X148416406Y-107911414D01*
X148416411Y-107911414D01*
X148477079Y-107893600D01*
X151820634Y-107893600D01*
X151840412Y-108043835D01*
X151898399Y-108183828D01*
X151898402Y-108183833D01*
X151990649Y-108304051D01*
X152110867Y-108396298D01*
X152110869Y-108396298D01*
X152110871Y-108396300D01*
X152195605Y-108431398D01*
X152250864Y-108454287D01*
X152363380Y-108469100D01*
X152363384Y-108469100D01*
X152438816Y-108469100D01*
X152438820Y-108469100D01*
X152551336Y-108454287D01*
X152691333Y-108396298D01*
X152811551Y-108304051D01*
X152903798Y-108183833D01*
X152961787Y-108043836D01*
X152981566Y-107893600D01*
X152961787Y-107743364D01*
X152943372Y-107698906D01*
X152903800Y-107603371D01*
X152903797Y-107603366D01*
X152891563Y-107587423D01*
X152811551Y-107483149D01*
X152805943Y-107478846D01*
X152691333Y-107390902D01*
X152691328Y-107390899D01*
X152551335Y-107332912D01*
X152473168Y-107322622D01*
X152438820Y-107318100D01*
X152363380Y-107318100D01*
X152331525Y-107322293D01*
X152250864Y-107332912D01*
X152110871Y-107390899D01*
X152110866Y-107390902D01*
X151990649Y-107483148D01*
X151990648Y-107483149D01*
X151898402Y-107603366D01*
X151898399Y-107603371D01*
X151840412Y-107743364D01*
X151820634Y-107893600D01*
X148477079Y-107893600D01*
X148541370Y-107874722D01*
X148650930Y-107804313D01*
X148736215Y-107705888D01*
X148790317Y-107587423D01*
X148790317Y-107587421D01*
X148790318Y-107587420D01*
X148808851Y-107458515D01*
X148808851Y-107458512D01*
X148802351Y-107413305D01*
X148811625Y-107376967D01*
X148843878Y-107357830D01*
X148850852Y-107357331D01*
X148897040Y-107357331D01*
X148897045Y-107357331D01*
X149022004Y-107320639D01*
X149131564Y-107250230D01*
X149216849Y-107151805D01*
X149270951Y-107033340D01*
X149270951Y-107033338D01*
X149270952Y-107033337D01*
X149289485Y-106904432D01*
X149289485Y-106904429D01*
X149270952Y-106775524D01*
X149256633Y-106744171D01*
X149216849Y-106657057D01*
X149206448Y-106645054D01*
X149131565Y-106558633D01*
X149131564Y-106558632D01*
X149022004Y-106488223D01*
X149022001Y-106488221D01*
X148897046Y-106451531D01*
X148897045Y-106451531D01*
X148766811Y-106451531D01*
X148766809Y-106451531D01*
X148641854Y-106488221D01*
X148532290Y-106558633D01*
X148447009Y-106657053D01*
X148447008Y-106657055D01*
X148392903Y-106775524D01*
X148374371Y-106904429D01*
X148374371Y-106904432D01*
X148380871Y-106949640D01*
X148371597Y-106985978D01*
X148339344Y-107005115D01*
X148332370Y-107005614D01*
X148286175Y-107005614D01*
X148161220Y-107042304D01*
X148051656Y-107112716D01*
X147966375Y-107211136D01*
X147966374Y-107211138D01*
X147912269Y-107329607D01*
X147893737Y-107458512D01*
X147893737Y-107458515D01*
X147912239Y-107587207D01*
X147902964Y-107623545D01*
X147870711Y-107642681D01*
X147834373Y-107633406D01*
X147829090Y-107628828D01*
X146824090Y-106623828D01*
X146818009Y-106615377D01*
X146817985Y-106615396D01*
X146815250Y-106611774D01*
X146815249Y-106611772D01*
X146813172Y-106609879D01*
X146779705Y-106579369D01*
X146778067Y-106577805D01*
X146764092Y-106563829D01*
X146764084Y-106563822D01*
X146761133Y-106561801D01*
X146755814Y-106557589D01*
X146732224Y-106536084D01*
X146732222Y-106536083D01*
X146717646Y-106530436D01*
X146707657Y-106525170D01*
X146694773Y-106516344D01*
X146694768Y-106516342D01*
X146663710Y-106509037D01*
X146657231Y-106507031D01*
X146637889Y-106499538D01*
X146627464Y-106495500D01*
X146627463Y-106495500D01*
X146611837Y-106495500D01*
X146600618Y-106494198D01*
X146585410Y-106490621D01*
X146553803Y-106495030D01*
X146547034Y-106495500D01*
X144878058Y-106495500D01*
X144843410Y-106481148D01*
X144616090Y-106253828D01*
X144610009Y-106245377D01*
X144609985Y-106245396D01*
X144607250Y-106241774D01*
X144607249Y-106241772D01*
X144607173Y-106241703D01*
X144571705Y-106209369D01*
X144570067Y-106207805D01*
X144556092Y-106193829D01*
X144556084Y-106193822D01*
X144553133Y-106191801D01*
X144547814Y-106187589D01*
X144524224Y-106166084D01*
X144524222Y-106166083D01*
X144509646Y-106160436D01*
X144499657Y-106155170D01*
X144486773Y-106146344D01*
X144486768Y-106146342D01*
X144455710Y-106139037D01*
X144449231Y-106137031D01*
X144429889Y-106129538D01*
X144419464Y-106125500D01*
X144419463Y-106125500D01*
X144403837Y-106125500D01*
X144392618Y-106124198D01*
X144377410Y-106120621D01*
X144345803Y-106125030D01*
X144339034Y-106125500D01*
X143617265Y-106125500D01*
X143582617Y-106111148D01*
X143580234Y-106108589D01*
X143573636Y-106100975D01*
X143569624Y-106096345D01*
X143557781Y-106060762D01*
X143562085Y-106043900D01*
X143581355Y-106001708D01*
X143590123Y-105982509D01*
X143607371Y-105862546D01*
X143608657Y-105853601D01*
X143608657Y-105853598D01*
X143590124Y-105724693D01*
X143574905Y-105691369D01*
X143536021Y-105606226D01*
X143532495Y-105602157D01*
X143450737Y-105507802D01*
X143450736Y-105507801D01*
X143341176Y-105437392D01*
X143341173Y-105437390D01*
X143216218Y-105400700D01*
X143216217Y-105400700D01*
X143085983Y-105400700D01*
X143085981Y-105400700D01*
X142961026Y-105437390D01*
X142851462Y-105507802D01*
X142766181Y-105606222D01*
X142766180Y-105606224D01*
X142712075Y-105724693D01*
X142693543Y-105853598D01*
X142693543Y-105853601D01*
X142712075Y-105982506D01*
X142740114Y-106043900D01*
X142766179Y-106100974D01*
X142766180Y-106100975D01*
X142766181Y-106100977D01*
X142837474Y-106183254D01*
X142849317Y-106218838D01*
X142845014Y-106235697D01*
X142816976Y-106297090D01*
X142816976Y-106297092D01*
X142798443Y-106425998D01*
X142798443Y-106426001D01*
X142816975Y-106554906D01*
X142830041Y-106583515D01*
X142858146Y-106645055D01*
X142859485Y-106682533D01*
X142840065Y-106706631D01*
X142761913Y-106756856D01*
X142676630Y-106855278D01*
X142676629Y-106855280D01*
X142628703Y-106960220D01*
X142601254Y-106985775D01*
X142563775Y-106984436D01*
X142549483Y-106974512D01*
X142484852Y-106909881D01*
X142470500Y-106875233D01*
X142470500Y-106537010D01*
X142472175Y-106526741D01*
X142472145Y-106526737D01*
X142472771Y-106522239D01*
X142472773Y-106522235D01*
X142470552Y-106474189D01*
X142470500Y-106471927D01*
X142470500Y-106452157D01*
X142469841Y-106448635D01*
X142469058Y-106441897D01*
X142467585Y-106410008D01*
X142461271Y-106395707D01*
X142457932Y-106384927D01*
X142455061Y-106369567D01*
X142438259Y-106342431D01*
X142435098Y-106336432D01*
X142422206Y-106307233D01*
X142411157Y-106296185D01*
X142404143Y-106287330D01*
X142395921Y-106274050D01*
X142395919Y-106274048D01*
X142370444Y-106254810D01*
X142365333Y-106250361D01*
X142000277Y-105885306D01*
X141994196Y-105876855D01*
X141994172Y-105876874D01*
X141991437Y-105873252D01*
X141991436Y-105873250D01*
X141984131Y-105866591D01*
X141955892Y-105840847D01*
X141954254Y-105839283D01*
X141940279Y-105825307D01*
X141940271Y-105825300D01*
X141937320Y-105823279D01*
X141932001Y-105819067D01*
X141911584Y-105800455D01*
X141908411Y-105797562D01*
X141908409Y-105797561D01*
X141893833Y-105791914D01*
X141883844Y-105786648D01*
X141870960Y-105777822D01*
X141870955Y-105777820D01*
X141839897Y-105770515D01*
X141833418Y-105768509D01*
X141814076Y-105761016D01*
X141803651Y-105756978D01*
X141803650Y-105756978D01*
X141788024Y-105756978D01*
X141776805Y-105755676D01*
X141761597Y-105752099D01*
X141729990Y-105756508D01*
X141723221Y-105756978D01*
X140833728Y-105756978D01*
X140799080Y-105742626D01*
X140784728Y-105707978D01*
X140799080Y-105673330D01*
X140807237Y-105666756D01*
X140825760Y-105654852D01*
X140855817Y-105635536D01*
X140855819Y-105635534D01*
X140879470Y-105608239D01*
X140913005Y-105591451D01*
X140923405Y-105592765D01*
X140923529Y-105591883D01*
X140928022Y-105592509D01*
X140928024Y-105592508D01*
X140928028Y-105592510D01*
X140974599Y-105590357D01*
X140976074Y-105590289D01*
X140978336Y-105590237D01*
X140998106Y-105590237D01*
X140998107Y-105590237D01*
X141001628Y-105589578D01*
X141008370Y-105588795D01*
X141040255Y-105587322D01*
X141054556Y-105581006D01*
X141065334Y-105577669D01*
X141080696Y-105574798D01*
X141107833Y-105557995D01*
X141113813Y-105554842D01*
X141143028Y-105541943D01*
X141154082Y-105530887D01*
X141162925Y-105523883D01*
X141176215Y-105515656D01*
X141195454Y-105490177D01*
X141199897Y-105485072D01*
X143044078Y-103640891D01*
X143078725Y-103626540D01*
X143092524Y-103628524D01*
X143148162Y-103644861D01*
X143148167Y-103644861D01*
X143278391Y-103644861D01*
X143278396Y-103644861D01*
X143403355Y-103608169D01*
X143512915Y-103537760D01*
X143598200Y-103439335D01*
X143652302Y-103320870D01*
X143652302Y-103320868D01*
X143652303Y-103320867D01*
X143670836Y-103191962D01*
X143670836Y-103191900D01*
X143670849Y-103191866D01*
X143671335Y-103188492D01*
X143672196Y-103188615D01*
X143685188Y-103157252D01*
X143719836Y-103142900D01*
X143773145Y-103142900D01*
X143773150Y-103142900D01*
X143898109Y-103106208D01*
X144007669Y-103035799D01*
X144092954Y-102937374D01*
X144147056Y-102818909D01*
X144147056Y-102818907D01*
X144147057Y-102818906D01*
X144165590Y-102690001D01*
X144165590Y-102689998D01*
X144147057Y-102561093D01*
X144130140Y-102524051D01*
X144092954Y-102442626D01*
X144051204Y-102394444D01*
X144020872Y-102359438D01*
X145531805Y-102337387D01*
X145532829Y-102338356D01*
X146090439Y-102895966D01*
X146749018Y-102237387D01*
X146467480Y-101955849D01*
X146453128Y-101921201D01*
X146467480Y-101886553D01*
X146502128Y-101872201D01*
X146515933Y-101874186D01*
X146555952Y-101885936D01*
X146625983Y-101906500D01*
X146625988Y-101906500D01*
X146756212Y-101906500D01*
X146756217Y-101906500D01*
X146866266Y-101874186D01*
X146881173Y-101869809D01*
X146881173Y-101869808D01*
X146881176Y-101869808D01*
X146990736Y-101799399D01*
X147076021Y-101700974D01*
X147130123Y-101582509D01*
X147130123Y-101582507D01*
X147130124Y-101582506D01*
X147148657Y-101453601D01*
X147148657Y-101453598D01*
X147130124Y-101324693D01*
X147113350Y-101287964D01*
X147076021Y-101206226D01*
X147037873Y-101162201D01*
X146990737Y-101107802D01*
X146990736Y-101107801D01*
X146881176Y-101037392D01*
X146881173Y-101037390D01*
X146756218Y-101000700D01*
X146756217Y-101000700D01*
X146625983Y-101000700D01*
X146625981Y-101000700D01*
X146501026Y-101037390D01*
X146391462Y-101107802D01*
X146306181Y-101206222D01*
X146306180Y-101206224D01*
X146252075Y-101324693D01*
X146233543Y-101453598D01*
X146233543Y-101453601D01*
X146252076Y-101582507D01*
X146252076Y-101582509D01*
X146272009Y-101626155D01*
X146273348Y-101663634D01*
X146247792Y-101691082D01*
X146210313Y-101692421D01*
X146192789Y-101681158D01*
X145004791Y-100493160D01*
X144990439Y-100458512D01*
X144990439Y-99990387D01*
X145004791Y-99955739D01*
X145039439Y-99941387D01*
X151001054Y-99941387D01*
X151035702Y-99955739D01*
G37*
%TD.AperFunction*%
%TA.AperFunction,Conductor*%
G36*
X155185702Y-99955739D02*
G01*
X155200054Y-99990387D01*
X155185702Y-100025035D01*
X155177980Y-100031326D01*
X155065728Y-100105154D01*
X155065723Y-100105158D01*
X154945416Y-100232676D01*
X154945411Y-100232683D01*
X154857751Y-100384515D01*
X154857747Y-100384524D01*
X154807467Y-100552470D01*
X154807465Y-100552480D01*
X154807109Y-100558600D01*
X155774758Y-100558600D01*
X155747205Y-100655440D01*
X155757554Y-100767121D01*
X155778208Y-100808600D01*
X154811571Y-100808600D01*
X154827716Y-100900165D01*
X154827716Y-100900166D01*
X154897159Y-101061153D01*
X154897159Y-101061154D01*
X155001856Y-101201785D01*
X155104559Y-101287964D01*
X155121876Y-101321230D01*
X155110598Y-101356997D01*
X155077332Y-101374314D01*
X155073062Y-101374500D01*
X154731580Y-101374500D01*
X154727310Y-101374314D01*
X154722804Y-101373919D01*
X154686422Y-101370737D01*
X154686421Y-101370737D01*
X154646766Y-101381362D01*
X154642613Y-101382282D01*
X154602184Y-101389412D01*
X154602179Y-101389414D01*
X154595174Y-101393458D01*
X154583361Y-101398351D01*
X154575546Y-101400444D01*
X154575546Y-101400445D01*
X154541928Y-101423984D01*
X154538324Y-101426280D01*
X154502774Y-101446805D01*
X154476388Y-101478249D01*
X154473501Y-101481399D01*
X152717213Y-103237690D01*
X152682565Y-103252042D01*
X152679886Y-103252042D01*
X152645238Y-103237690D01*
X152630886Y-103203042D01*
X152635314Y-103182686D01*
X152671240Y-103104021D01*
X152671240Y-103104019D01*
X152671241Y-103104018D01*
X152689774Y-102975113D01*
X152689774Y-102975110D01*
X152671241Y-102846205D01*
X152658775Y-102818909D01*
X152617138Y-102727738D01*
X152617135Y-102727734D01*
X152610173Y-102719699D01*
X152598331Y-102684115D01*
X152615119Y-102650579D01*
X152628451Y-102642344D01*
X152691333Y-102616298D01*
X152811551Y-102524051D01*
X152903798Y-102403833D01*
X152961787Y-102263836D01*
X152981566Y-102113600D01*
X152961787Y-101963364D01*
X152955164Y-101947374D01*
X152903800Y-101823371D01*
X152903797Y-101823366D01*
X152885406Y-101799399D01*
X152811551Y-101703149D01*
X152808720Y-101700977D01*
X152691333Y-101610902D01*
X152691328Y-101610899D01*
X152551335Y-101552912D01*
X152473994Y-101542730D01*
X152438820Y-101538100D01*
X152363380Y-101538100D01*
X152331525Y-101542293D01*
X152250864Y-101552912D01*
X152110871Y-101610899D01*
X152110866Y-101610902D01*
X151990649Y-101703148D01*
X151990648Y-101703149D01*
X151898402Y-101823366D01*
X151898399Y-101823371D01*
X151840412Y-101963364D01*
X151820634Y-102113600D01*
X151840412Y-102263835D01*
X151898399Y-102403828D01*
X151898402Y-102403833D01*
X151992604Y-102526599D01*
X151991195Y-102527680D01*
X152003367Y-102557065D01*
X151989015Y-102591713D01*
X151980858Y-102598286D01*
X151932583Y-102629309D01*
X151932581Y-102629311D01*
X151847298Y-102727734D01*
X151847297Y-102727736D01*
X151793192Y-102846205D01*
X151774660Y-102975110D01*
X151774660Y-102975113D01*
X151793192Y-103104018D01*
X151817504Y-103157252D01*
X151847296Y-103222486D01*
X151847297Y-103222487D01*
X151847298Y-103222489D01*
X151923222Y-103310110D01*
X151932581Y-103320911D01*
X152039393Y-103389554D01*
X152042143Y-103391321D01*
X152073704Y-103400588D01*
X152167100Y-103428012D01*
X152167105Y-103428012D01*
X152262618Y-103428012D01*
X152297266Y-103442364D01*
X152311618Y-103477012D01*
X152307190Y-103497368D01*
X152271262Y-103576035D01*
X152252730Y-103704940D01*
X152252730Y-103704943D01*
X152271262Y-103833848D01*
X152300311Y-103897455D01*
X152325366Y-103952316D01*
X152325367Y-103952317D01*
X152325368Y-103952319D01*
X152407154Y-104046705D01*
X152410651Y-104050741D01*
X152511197Y-104115357D01*
X152520213Y-104121151D01*
X152551736Y-104130406D01*
X152618995Y-104150156D01*
X152648195Y-104173687D01*
X152652204Y-104210975D01*
X152642221Y-104229258D01*
X152596790Y-104281689D01*
X152596789Y-104281691D01*
X152542684Y-104400160D01*
X152524152Y-104529065D01*
X152524152Y-104529068D01*
X152542684Y-104657973D01*
X152571733Y-104721580D01*
X152596788Y-104776441D01*
X152596789Y-104776442D01*
X152596790Y-104776444D01*
X152677015Y-104869029D01*
X152682073Y-104874866D01*
X152791633Y-104945275D01*
X152791636Y-104945276D01*
X152791638Y-104945277D01*
X152793066Y-104945930D01*
X152793680Y-104946590D01*
X152794581Y-104947169D01*
X152794433Y-104947398D01*
X152818619Y-104973380D01*
X152817277Y-105010859D01*
X152789827Y-105036412D01*
X152772707Y-105039500D01*
X152079617Y-105039500D01*
X152044969Y-105025148D01*
X150815952Y-103796131D01*
X150801600Y-103761483D01*
X150801600Y-101525277D01*
X150813568Y-101493189D01*
X150872469Y-101425214D01*
X150886021Y-101409574D01*
X150918906Y-101337565D01*
X150946354Y-101312010D01*
X150983833Y-101313349D01*
X150985469Y-101314133D01*
X151142837Y-101393167D01*
X151142839Y-101393168D01*
X151313439Y-101433600D01*
X151776100Y-101433600D01*
X151776100Y-100956900D01*
X151845020Y-100983600D01*
X151928902Y-100983600D01*
X152011350Y-100968188D01*
X152026100Y-100959055D01*
X152026100Y-101433600D01*
X152444779Y-101433600D01*
X152575240Y-101418351D01*
X152575241Y-101418350D01*
X152739986Y-101358388D01*
X152739990Y-101358386D01*
X152886471Y-101262045D01*
X152886476Y-101262041D01*
X153006783Y-101134523D01*
X153006788Y-101134516D01*
X153094448Y-100982684D01*
X153094452Y-100982675D01*
X153144732Y-100814729D01*
X153144734Y-100814719D01*
X153145091Y-100808600D01*
X152177442Y-100808600D01*
X152204995Y-100711760D01*
X152194646Y-100600079D01*
X152173992Y-100558600D01*
X153140628Y-100558600D01*
X153124483Y-100467034D01*
X153124483Y-100467033D01*
X153055040Y-100306046D01*
X153055040Y-100306045D01*
X152950343Y-100165414D01*
X152816037Y-100052717D01*
X152779116Y-100034175D01*
X152754594Y-100005800D01*
X152757319Y-99968396D01*
X152785694Y-99943874D01*
X152801107Y-99941387D01*
X155151054Y-99941387D01*
X155185702Y-99955739D01*
G37*
%TD.AperFunction*%
%TD*%
%TA.AperFunction,Conductor*%
%TO.N,GND*%
G36*
X144114245Y-101108960D02*
G01*
X144180820Y-101130163D01*
X144194107Y-101140515D01*
X145378483Y-102200162D01*
X145529296Y-102335093D01*
X145531722Y-102337389D01*
X144020871Y-102359438D01*
X144007669Y-102344201D01*
X144007666Y-102344199D01*
X144007665Y-102344198D01*
X143997446Y-102337631D01*
X143951689Y-102284829D01*
X143941744Y-102215671D01*
X143970766Y-102152116D01*
X144033621Y-102079577D01*
X144087723Y-101961112D01*
X144106257Y-101832203D01*
X144087723Y-101703294D01*
X144033621Y-101584829D01*
X143948336Y-101486404D01*
X143948333Y-101486402D01*
X143948333Y-101486401D01*
X143882600Y-101444158D01*
X143838776Y-101415995D01*
X143755470Y-101391533D01*
X143713818Y-101379303D01*
X143713817Y-101379303D01*
X143583583Y-101379303D01*
X143583582Y-101379303D01*
X143521103Y-101397649D01*
X143458624Y-101415995D01*
X143458621Y-101415997D01*
X143349066Y-101486401D01*
X143349066Y-101486402D01*
X143263779Y-101584828D01*
X143263778Y-101584830D01*
X143209676Y-101703294D01*
X143191143Y-101832203D01*
X143209676Y-101961111D01*
X143263778Y-102079575D01*
X143263779Y-102079577D01*
X143264146Y-102080000D01*
X143267488Y-102083857D01*
X143296514Y-102147412D01*
X143286571Y-102216571D01*
X143240817Y-102269375D01*
X143173778Y-102289061D01*
X142435058Y-102289061D01*
X142424251Y-102288589D01*
X142421963Y-102288388D01*
X142386631Y-102285297D01*
X142386630Y-102285297D01*
X142350150Y-102295072D01*
X142339595Y-102297413D01*
X142302393Y-102303973D01*
X142297401Y-102305790D01*
X142280556Y-102312767D01*
X142275752Y-102315007D01*
X142244817Y-102336668D01*
X142235700Y-102342477D01*
X142202987Y-102361365D01*
X142202984Y-102361367D01*
X142202982Y-102361368D01*
X142202981Y-102361370D01*
X142182083Y-102386273D01*
X139080000Y-102431544D01*
X139080000Y-102431541D01*
X139106139Y-102405020D01*
X139108662Y-102402533D01*
X139286259Y-102232335D01*
X139348280Y-102200162D01*
X139366682Y-102197977D01*
X142090000Y-102080000D01*
X143244302Y-101119697D01*
X143308428Y-101091955D01*
X143326422Y-101091055D01*
X144114245Y-101108960D01*
G37*
%TD.AperFunction*%
%TD*%
M02*
