%TF.GenerationSoftware,KiCad,Pcbnew,7.0.10*%
%TF.CreationDate,2024-07-12T16:17:24+02:00*%
%TF.ProjectId,MouthIO_v3,4d6f7574-6849-44f5-9f76-332e6b696361,rev?*%
%TF.SameCoordinates,Original*%
%TF.FileFunction,Legend,Top*%
%TF.FilePolarity,Positive*%
%FSLAX46Y46*%
G04 Gerber Fmt 4.6, Leading zero omitted, Abs format (unit mm)*
G04 Created by KiCad (PCBNEW 7.0.10) date 2024-07-12 16:17:24*
%MOMM*%
%LPD*%
G01*
G04 APERTURE LIST*
%ADD10C,0.020320*%
%ADD11C,0.048545*%
%ADD12C,0.040132*%
%ADD13C,0.050000*%
%ADD14C,0.120000*%
%ADD15C,0.100000*%
%ADD16C,0.101600*%
%ADD17C,0.150000*%
G04 APERTURE END LIST*
D10*
X149269127Y-105237279D02*
X149269127Y-105059238D01*
X149269127Y-104947961D02*
X149269127Y-104769920D01*
X149358148Y-104858940D02*
X149180106Y-104858940D01*
D11*
X141905171Y-109492218D02*
X141895925Y-109501465D01*
X141895925Y-109501465D02*
X141868185Y-109510711D01*
X141868185Y-109510711D02*
X141849692Y-109510711D01*
X141849692Y-109510711D02*
X141821952Y-109501465D01*
X141821952Y-109501465D02*
X141803459Y-109482971D01*
X141803459Y-109482971D02*
X141794212Y-109464478D01*
X141794212Y-109464478D02*
X141784966Y-109427492D01*
X141784966Y-109427492D02*
X141784966Y-109399752D01*
X141784966Y-109399752D02*
X141794212Y-109362766D01*
X141794212Y-109362766D02*
X141803459Y-109344273D01*
X141803459Y-109344273D02*
X141821952Y-109325780D01*
X141821952Y-109325780D02*
X141849692Y-109316533D01*
X141849692Y-109316533D02*
X141868185Y-109316533D01*
X141868185Y-109316533D02*
X141895925Y-109325780D01*
X141895925Y-109325780D02*
X141905171Y-109335026D01*
X142090103Y-109510711D02*
X141979144Y-109510711D01*
X142034623Y-109510711D02*
X142034623Y-109316533D01*
X142034623Y-109316533D02*
X142016130Y-109344273D01*
X142016130Y-109344273D02*
X141997637Y-109362766D01*
X141997637Y-109362766D02*
X141979144Y-109372013D01*
X142154828Y-109316533D02*
X142275034Y-109316533D01*
X142275034Y-109316533D02*
X142210308Y-109390506D01*
X142210308Y-109390506D02*
X142238047Y-109390506D01*
X142238047Y-109390506D02*
X142256541Y-109399752D01*
X142256541Y-109399752D02*
X142265787Y-109408999D01*
X142265787Y-109408999D02*
X142275034Y-109427492D01*
X142275034Y-109427492D02*
X142275034Y-109473725D01*
X142275034Y-109473725D02*
X142265787Y-109492218D01*
X142265787Y-109492218D02*
X142256541Y-109501465D01*
X142256541Y-109501465D02*
X142238047Y-109510711D01*
X142238047Y-109510711D02*
X142182568Y-109510711D01*
X142182568Y-109510711D02*
X142164075Y-109501465D01*
X142164075Y-109501465D02*
X142154828Y-109492218D01*
D12*
X149974345Y-107008868D02*
X149920835Y-106932426D01*
X149882614Y-107008868D02*
X149882614Y-106848340D01*
X149882614Y-106848340D02*
X149943768Y-106848340D01*
X149943768Y-106848340D02*
X149959056Y-106855984D01*
X149959056Y-106855984D02*
X149966701Y-106863628D01*
X149966701Y-106863628D02*
X149974345Y-106878916D01*
X149974345Y-106878916D02*
X149974345Y-106901849D01*
X149974345Y-106901849D02*
X149966701Y-106917137D01*
X149966701Y-106917137D02*
X149959056Y-106924782D01*
X149959056Y-106924782D02*
X149943768Y-106932426D01*
X149943768Y-106932426D02*
X149882614Y-106932426D01*
X150027854Y-106848340D02*
X150127229Y-106848340D01*
X150127229Y-106848340D02*
X150073719Y-106909493D01*
X150073719Y-106909493D02*
X150096652Y-106909493D01*
X150096652Y-106909493D02*
X150111940Y-106917137D01*
X150111940Y-106917137D02*
X150119584Y-106924782D01*
X150119584Y-106924782D02*
X150127229Y-106940070D01*
X150127229Y-106940070D02*
X150127229Y-106978291D01*
X150127229Y-106978291D02*
X150119584Y-106993579D01*
X150119584Y-106993579D02*
X150111940Y-107001224D01*
X150111940Y-107001224D02*
X150096652Y-107008868D01*
X150096652Y-107008868D02*
X150050787Y-107008868D01*
X150050787Y-107008868D02*
X150035498Y-107001224D01*
X150035498Y-107001224D02*
X150027854Y-106993579D01*
X144306803Y-108445268D02*
X144253293Y-108368826D01*
X144215072Y-108445268D02*
X144215072Y-108284740D01*
X144215072Y-108284740D02*
X144276226Y-108284740D01*
X144276226Y-108284740D02*
X144291514Y-108292384D01*
X144291514Y-108292384D02*
X144299159Y-108300028D01*
X144299159Y-108300028D02*
X144306803Y-108315316D01*
X144306803Y-108315316D02*
X144306803Y-108338249D01*
X144306803Y-108338249D02*
X144299159Y-108353537D01*
X144299159Y-108353537D02*
X144291514Y-108361182D01*
X144291514Y-108361182D02*
X144276226Y-108368826D01*
X144276226Y-108368826D02*
X144215072Y-108368826D01*
X144459687Y-108445268D02*
X144367956Y-108445268D01*
X144413821Y-108445268D02*
X144413821Y-108284740D01*
X144413821Y-108284740D02*
X144398533Y-108307672D01*
X144398533Y-108307672D02*
X144383245Y-108322961D01*
X144383245Y-108322961D02*
X144367956Y-108330605D01*
X144559061Y-108284740D02*
X144574350Y-108284740D01*
X144574350Y-108284740D02*
X144589638Y-108292384D01*
X144589638Y-108292384D02*
X144597282Y-108300028D01*
X144597282Y-108300028D02*
X144604926Y-108315316D01*
X144604926Y-108315316D02*
X144612571Y-108345893D01*
X144612571Y-108345893D02*
X144612571Y-108384114D01*
X144612571Y-108384114D02*
X144604926Y-108414691D01*
X144604926Y-108414691D02*
X144597282Y-108429979D01*
X144597282Y-108429979D02*
X144589638Y-108437624D01*
X144589638Y-108437624D02*
X144574350Y-108445268D01*
X144574350Y-108445268D02*
X144559061Y-108445268D01*
X144559061Y-108445268D02*
X144543773Y-108437624D01*
X144543773Y-108437624D02*
X144536129Y-108429979D01*
X144536129Y-108429979D02*
X144528484Y-108414691D01*
X144528484Y-108414691D02*
X144520840Y-108384114D01*
X144520840Y-108384114D02*
X144520840Y-108345893D01*
X144520840Y-108345893D02*
X144528484Y-108315316D01*
X144528484Y-108315316D02*
X144536129Y-108300028D01*
X144536129Y-108300028D02*
X144543773Y-108292384D01*
X144543773Y-108292384D02*
X144559061Y-108284740D01*
D11*
X156168737Y-108185818D02*
X156159491Y-108195065D01*
X156159491Y-108195065D02*
X156131751Y-108204311D01*
X156131751Y-108204311D02*
X156113258Y-108204311D01*
X156113258Y-108204311D02*
X156085518Y-108195065D01*
X156085518Y-108195065D02*
X156067025Y-108176571D01*
X156067025Y-108176571D02*
X156057778Y-108158078D01*
X156057778Y-108158078D02*
X156048532Y-108121092D01*
X156048532Y-108121092D02*
X156048532Y-108093352D01*
X156048532Y-108093352D02*
X156057778Y-108056366D01*
X156057778Y-108056366D02*
X156067025Y-108037873D01*
X156067025Y-108037873D02*
X156085518Y-108019380D01*
X156085518Y-108019380D02*
X156113258Y-108010133D01*
X156113258Y-108010133D02*
X156131751Y-108010133D01*
X156131751Y-108010133D02*
X156159491Y-108019380D01*
X156159491Y-108019380D02*
X156168737Y-108028626D01*
X156242710Y-108028626D02*
X156251956Y-108019380D01*
X156251956Y-108019380D02*
X156270450Y-108010133D01*
X156270450Y-108010133D02*
X156316682Y-108010133D01*
X156316682Y-108010133D02*
X156335176Y-108019380D01*
X156335176Y-108019380D02*
X156344422Y-108028626D01*
X156344422Y-108028626D02*
X156353669Y-108047119D01*
X156353669Y-108047119D02*
X156353669Y-108065613D01*
X156353669Y-108065613D02*
X156344422Y-108093352D01*
X156344422Y-108093352D02*
X156233463Y-108204311D01*
X156233463Y-108204311D02*
X156353669Y-108204311D01*
D12*
X152097903Y-107008868D02*
X152044393Y-106932426D01*
X152006172Y-107008868D02*
X152006172Y-106848340D01*
X152006172Y-106848340D02*
X152067326Y-106848340D01*
X152067326Y-106848340D02*
X152082614Y-106855984D01*
X152082614Y-106855984D02*
X152090259Y-106863628D01*
X152090259Y-106863628D02*
X152097903Y-106878916D01*
X152097903Y-106878916D02*
X152097903Y-106901849D01*
X152097903Y-106901849D02*
X152090259Y-106917137D01*
X152090259Y-106917137D02*
X152082614Y-106924782D01*
X152082614Y-106924782D02*
X152067326Y-106932426D01*
X152067326Y-106932426D02*
X152006172Y-106932426D01*
X152250787Y-107008868D02*
X152159056Y-107008868D01*
X152204921Y-107008868D02*
X152204921Y-106848340D01*
X152204921Y-106848340D02*
X152189633Y-106871272D01*
X152189633Y-106871272D02*
X152174345Y-106886561D01*
X152174345Y-106886561D02*
X152159056Y-106894205D01*
X152304296Y-106848340D02*
X152403671Y-106848340D01*
X152403671Y-106848340D02*
X152350161Y-106909493D01*
X152350161Y-106909493D02*
X152373094Y-106909493D01*
X152373094Y-106909493D02*
X152388382Y-106917137D01*
X152388382Y-106917137D02*
X152396026Y-106924782D01*
X152396026Y-106924782D02*
X152403671Y-106940070D01*
X152403671Y-106940070D02*
X152403671Y-106978291D01*
X152403671Y-106978291D02*
X152396026Y-106993579D01*
X152396026Y-106993579D02*
X152388382Y-107001224D01*
X152388382Y-107001224D02*
X152373094Y-107008868D01*
X152373094Y-107008868D02*
X152327229Y-107008868D01*
X152327229Y-107008868D02*
X152311940Y-107001224D01*
X152311940Y-107001224D02*
X152304296Y-106993579D01*
D11*
X147077637Y-109775218D02*
X147068391Y-109784465D01*
X147068391Y-109784465D02*
X147040651Y-109793711D01*
X147040651Y-109793711D02*
X147022158Y-109793711D01*
X147022158Y-109793711D02*
X146994418Y-109784465D01*
X146994418Y-109784465D02*
X146975925Y-109765971D01*
X146975925Y-109765971D02*
X146966678Y-109747478D01*
X146966678Y-109747478D02*
X146957432Y-109710492D01*
X146957432Y-109710492D02*
X146957432Y-109682752D01*
X146957432Y-109682752D02*
X146966678Y-109645766D01*
X146966678Y-109645766D02*
X146975925Y-109627273D01*
X146975925Y-109627273D02*
X146994418Y-109608780D01*
X146994418Y-109608780D02*
X147022158Y-109599533D01*
X147022158Y-109599533D02*
X147040651Y-109599533D01*
X147040651Y-109599533D02*
X147068391Y-109608780D01*
X147068391Y-109608780D02*
X147077637Y-109618026D01*
X147170103Y-109793711D02*
X147207089Y-109793711D01*
X147207089Y-109793711D02*
X147225582Y-109784465D01*
X147225582Y-109784465D02*
X147234829Y-109775218D01*
X147234829Y-109775218D02*
X147253322Y-109747478D01*
X147253322Y-109747478D02*
X147262569Y-109710492D01*
X147262569Y-109710492D02*
X147262569Y-109636519D01*
X147262569Y-109636519D02*
X147253322Y-109618026D01*
X147253322Y-109618026D02*
X147244076Y-109608780D01*
X147244076Y-109608780D02*
X147225582Y-109599533D01*
X147225582Y-109599533D02*
X147188596Y-109599533D01*
X147188596Y-109599533D02*
X147170103Y-109608780D01*
X147170103Y-109608780D02*
X147160856Y-109618026D01*
X147160856Y-109618026D02*
X147151610Y-109636519D01*
X147151610Y-109636519D02*
X147151610Y-109682752D01*
X147151610Y-109682752D02*
X147160856Y-109701245D01*
X147160856Y-109701245D02*
X147170103Y-109710492D01*
X147170103Y-109710492D02*
X147188596Y-109719739D01*
X147188596Y-109719739D02*
X147225582Y-109719739D01*
X147225582Y-109719739D02*
X147244076Y-109710492D01*
X147244076Y-109710492D02*
X147253322Y-109701245D01*
X147253322Y-109701245D02*
X147262569Y-109682752D01*
D12*
X141774345Y-106008868D02*
X141720835Y-105932426D01*
X141682614Y-106008868D02*
X141682614Y-105848340D01*
X141682614Y-105848340D02*
X141743768Y-105848340D01*
X141743768Y-105848340D02*
X141759056Y-105855984D01*
X141759056Y-105855984D02*
X141766701Y-105863628D01*
X141766701Y-105863628D02*
X141774345Y-105878916D01*
X141774345Y-105878916D02*
X141774345Y-105901849D01*
X141774345Y-105901849D02*
X141766701Y-105917137D01*
X141766701Y-105917137D02*
X141759056Y-105924782D01*
X141759056Y-105924782D02*
X141743768Y-105932426D01*
X141743768Y-105932426D02*
X141682614Y-105932426D01*
X141835498Y-105863628D02*
X141843142Y-105855984D01*
X141843142Y-105855984D02*
X141858431Y-105848340D01*
X141858431Y-105848340D02*
X141896652Y-105848340D01*
X141896652Y-105848340D02*
X141911940Y-105855984D01*
X141911940Y-105855984D02*
X141919584Y-105863628D01*
X141919584Y-105863628D02*
X141927229Y-105878916D01*
X141927229Y-105878916D02*
X141927229Y-105894205D01*
X141927229Y-105894205D02*
X141919584Y-105917137D01*
X141919584Y-105917137D02*
X141827854Y-106008868D01*
X141827854Y-106008868D02*
X141927229Y-106008868D01*
X141983245Y-108505268D02*
X141929735Y-108428826D01*
X141891514Y-108505268D02*
X141891514Y-108344740D01*
X141891514Y-108344740D02*
X141952668Y-108344740D01*
X141952668Y-108344740D02*
X141967956Y-108352384D01*
X141967956Y-108352384D02*
X141975601Y-108360028D01*
X141975601Y-108360028D02*
X141983245Y-108375316D01*
X141983245Y-108375316D02*
X141983245Y-108398249D01*
X141983245Y-108398249D02*
X141975601Y-108413537D01*
X141975601Y-108413537D02*
X141967956Y-108421182D01*
X141967956Y-108421182D02*
X141952668Y-108428826D01*
X141952668Y-108428826D02*
X141891514Y-108428826D01*
X142120840Y-108398249D02*
X142120840Y-108505268D01*
X142082619Y-108337096D02*
X142044398Y-108451758D01*
X142044398Y-108451758D02*
X142143773Y-108451758D01*
X151306803Y-105411268D02*
X151253293Y-105334826D01*
X151215072Y-105411268D02*
X151215072Y-105250740D01*
X151215072Y-105250740D02*
X151276226Y-105250740D01*
X151276226Y-105250740D02*
X151291514Y-105258384D01*
X151291514Y-105258384D02*
X151299159Y-105266028D01*
X151299159Y-105266028D02*
X151306803Y-105281316D01*
X151306803Y-105281316D02*
X151306803Y-105304249D01*
X151306803Y-105304249D02*
X151299159Y-105319537D01*
X151299159Y-105319537D02*
X151291514Y-105327182D01*
X151291514Y-105327182D02*
X151276226Y-105334826D01*
X151276226Y-105334826D02*
X151215072Y-105334826D01*
X151459687Y-105411268D02*
X151367956Y-105411268D01*
X151413821Y-105411268D02*
X151413821Y-105250740D01*
X151413821Y-105250740D02*
X151398533Y-105273672D01*
X151398533Y-105273672D02*
X151383245Y-105288961D01*
X151383245Y-105288961D02*
X151367956Y-105296605D01*
X151520840Y-105266028D02*
X151528484Y-105258384D01*
X151528484Y-105258384D02*
X151543773Y-105250740D01*
X151543773Y-105250740D02*
X151581994Y-105250740D01*
X151581994Y-105250740D02*
X151597282Y-105258384D01*
X151597282Y-105258384D02*
X151604926Y-105266028D01*
X151604926Y-105266028D02*
X151612571Y-105281316D01*
X151612571Y-105281316D02*
X151612571Y-105296605D01*
X151612571Y-105296605D02*
X151604926Y-105319537D01*
X151604926Y-105319537D02*
X151513196Y-105411268D01*
X151513196Y-105411268D02*
X151612571Y-105411268D01*
D11*
X149193904Y-101760137D02*
X149323356Y-101954315D01*
X149323356Y-101760137D02*
X149193904Y-101954315D01*
X149499041Y-101954315D02*
X149388082Y-101954315D01*
X149443561Y-101954315D02*
X149443561Y-101760137D01*
X149443561Y-101760137D02*
X149425068Y-101787877D01*
X149425068Y-101787877D02*
X149406575Y-101806370D01*
X149406575Y-101806370D02*
X149388082Y-101815617D01*
X146418737Y-100485818D02*
X146409491Y-100495065D01*
X146409491Y-100495065D02*
X146381751Y-100504311D01*
X146381751Y-100504311D02*
X146363258Y-100504311D01*
X146363258Y-100504311D02*
X146335518Y-100495065D01*
X146335518Y-100495065D02*
X146317025Y-100476571D01*
X146317025Y-100476571D02*
X146307778Y-100458078D01*
X146307778Y-100458078D02*
X146298532Y-100421092D01*
X146298532Y-100421092D02*
X146298532Y-100393352D01*
X146298532Y-100393352D02*
X146307778Y-100356366D01*
X146307778Y-100356366D02*
X146317025Y-100337873D01*
X146317025Y-100337873D02*
X146335518Y-100319380D01*
X146335518Y-100319380D02*
X146363258Y-100310133D01*
X146363258Y-100310133D02*
X146381751Y-100310133D01*
X146381751Y-100310133D02*
X146409491Y-100319380D01*
X146409491Y-100319380D02*
X146418737Y-100328626D01*
X146529696Y-100393352D02*
X146511203Y-100384106D01*
X146511203Y-100384106D02*
X146501956Y-100374859D01*
X146501956Y-100374859D02*
X146492710Y-100356366D01*
X146492710Y-100356366D02*
X146492710Y-100347119D01*
X146492710Y-100347119D02*
X146501956Y-100328626D01*
X146501956Y-100328626D02*
X146511203Y-100319380D01*
X146511203Y-100319380D02*
X146529696Y-100310133D01*
X146529696Y-100310133D02*
X146566682Y-100310133D01*
X146566682Y-100310133D02*
X146585176Y-100319380D01*
X146585176Y-100319380D02*
X146594422Y-100328626D01*
X146594422Y-100328626D02*
X146603669Y-100347119D01*
X146603669Y-100347119D02*
X146603669Y-100356366D01*
X146603669Y-100356366D02*
X146594422Y-100374859D01*
X146594422Y-100374859D02*
X146585176Y-100384106D01*
X146585176Y-100384106D02*
X146566682Y-100393352D01*
X146566682Y-100393352D02*
X146529696Y-100393352D01*
X146529696Y-100393352D02*
X146511203Y-100402599D01*
X146511203Y-100402599D02*
X146501956Y-100411845D01*
X146501956Y-100411845D02*
X146492710Y-100430339D01*
X146492710Y-100430339D02*
X146492710Y-100467325D01*
X146492710Y-100467325D02*
X146501956Y-100485818D01*
X146501956Y-100485818D02*
X146511203Y-100495065D01*
X146511203Y-100495065D02*
X146529696Y-100504311D01*
X146529696Y-100504311D02*
X146566682Y-100504311D01*
X146566682Y-100504311D02*
X146585176Y-100495065D01*
X146585176Y-100495065D02*
X146594422Y-100485818D01*
X146594422Y-100485818D02*
X146603669Y-100467325D01*
X146603669Y-100467325D02*
X146603669Y-100430339D01*
X146603669Y-100430339D02*
X146594422Y-100411845D01*
X146594422Y-100411845D02*
X146585176Y-100402599D01*
X146585176Y-100402599D02*
X146566682Y-100393352D01*
D12*
X149982614Y-108758868D02*
X149982614Y-108598340D01*
X149982614Y-108598340D02*
X150020835Y-108598340D01*
X150020835Y-108598340D02*
X150043768Y-108605984D01*
X150043768Y-108605984D02*
X150059056Y-108621272D01*
X150059056Y-108621272D02*
X150066701Y-108636561D01*
X150066701Y-108636561D02*
X150074345Y-108667137D01*
X150074345Y-108667137D02*
X150074345Y-108690070D01*
X150074345Y-108690070D02*
X150066701Y-108720647D01*
X150066701Y-108720647D02*
X150059056Y-108735935D01*
X150059056Y-108735935D02*
X150043768Y-108751224D01*
X150043768Y-108751224D02*
X150020835Y-108758868D01*
X150020835Y-108758868D02*
X149982614Y-108758868D01*
X150135498Y-108613628D02*
X150143142Y-108605984D01*
X150143142Y-108605984D02*
X150158431Y-108598340D01*
X150158431Y-108598340D02*
X150196652Y-108598340D01*
X150196652Y-108598340D02*
X150211940Y-108605984D01*
X150211940Y-108605984D02*
X150219584Y-108613628D01*
X150219584Y-108613628D02*
X150227229Y-108628916D01*
X150227229Y-108628916D02*
X150227229Y-108644205D01*
X150227229Y-108644205D02*
X150219584Y-108667137D01*
X150219584Y-108667137D02*
X150127854Y-108758868D01*
X150127854Y-108758868D02*
X150227229Y-108758868D01*
X141697903Y-104108868D02*
X141644393Y-104032426D01*
X141606172Y-104108868D02*
X141606172Y-103948340D01*
X141606172Y-103948340D02*
X141667326Y-103948340D01*
X141667326Y-103948340D02*
X141682614Y-103955984D01*
X141682614Y-103955984D02*
X141690259Y-103963628D01*
X141690259Y-103963628D02*
X141697903Y-103978916D01*
X141697903Y-103978916D02*
X141697903Y-104001849D01*
X141697903Y-104001849D02*
X141690259Y-104017137D01*
X141690259Y-104017137D02*
X141682614Y-104024782D01*
X141682614Y-104024782D02*
X141667326Y-104032426D01*
X141667326Y-104032426D02*
X141606172Y-104032426D01*
X141850787Y-104108868D02*
X141759056Y-104108868D01*
X141804921Y-104108868D02*
X141804921Y-103948340D01*
X141804921Y-103948340D02*
X141789633Y-103971272D01*
X141789633Y-103971272D02*
X141774345Y-103986561D01*
X141774345Y-103986561D02*
X141759056Y-103994205D01*
X142003671Y-104108868D02*
X141911940Y-104108868D01*
X141957805Y-104108868D02*
X141957805Y-103948340D01*
X141957805Y-103948340D02*
X141942517Y-103971272D01*
X141942517Y-103971272D02*
X141927229Y-103986561D01*
X141927229Y-103986561D02*
X141911940Y-103994205D01*
D11*
X154953154Y-106965133D02*
X154953154Y-107122325D01*
X154953154Y-107122325D02*
X154962401Y-107140818D01*
X154962401Y-107140818D02*
X154971648Y-107150065D01*
X154971648Y-107150065D02*
X154990141Y-107159311D01*
X154990141Y-107159311D02*
X155027127Y-107159311D01*
X155027127Y-107159311D02*
X155045620Y-107150065D01*
X155045620Y-107150065D02*
X155054867Y-107140818D01*
X155054867Y-107140818D02*
X155064113Y-107122325D01*
X155064113Y-107122325D02*
X155064113Y-106965133D01*
X155147333Y-106983626D02*
X155156579Y-106974380D01*
X155156579Y-106974380D02*
X155175073Y-106965133D01*
X155175073Y-106965133D02*
X155221305Y-106965133D01*
X155221305Y-106965133D02*
X155239799Y-106974380D01*
X155239799Y-106974380D02*
X155249045Y-106983626D01*
X155249045Y-106983626D02*
X155258292Y-107002119D01*
X155258292Y-107002119D02*
X155258292Y-107020613D01*
X155258292Y-107020613D02*
X155249045Y-107048352D01*
X155249045Y-107048352D02*
X155138086Y-107159311D01*
X155138086Y-107159311D02*
X155258292Y-107159311D01*
D12*
X148882614Y-108758868D02*
X148882614Y-108598340D01*
X148882614Y-108598340D02*
X148920835Y-108598340D01*
X148920835Y-108598340D02*
X148943768Y-108605984D01*
X148943768Y-108605984D02*
X148959056Y-108621272D01*
X148959056Y-108621272D02*
X148966701Y-108636561D01*
X148966701Y-108636561D02*
X148974345Y-108667137D01*
X148974345Y-108667137D02*
X148974345Y-108690070D01*
X148974345Y-108690070D02*
X148966701Y-108720647D01*
X148966701Y-108720647D02*
X148959056Y-108735935D01*
X148959056Y-108735935D02*
X148943768Y-108751224D01*
X148943768Y-108751224D02*
X148920835Y-108758868D01*
X148920835Y-108758868D02*
X148882614Y-108758868D01*
X149127229Y-108758868D02*
X149035498Y-108758868D01*
X149081363Y-108758868D02*
X149081363Y-108598340D01*
X149081363Y-108598340D02*
X149066075Y-108621272D01*
X149066075Y-108621272D02*
X149050787Y-108636561D01*
X149050787Y-108636561D02*
X149035498Y-108644205D01*
X151535268Y-102160840D02*
X151458826Y-102214350D01*
X151535268Y-102252571D02*
X151374740Y-102252571D01*
X151374740Y-102252571D02*
X151374740Y-102191417D01*
X151374740Y-102191417D02*
X151382384Y-102176129D01*
X151382384Y-102176129D02*
X151390028Y-102168484D01*
X151390028Y-102168484D02*
X151405316Y-102160840D01*
X151405316Y-102160840D02*
X151428249Y-102160840D01*
X151428249Y-102160840D02*
X151443537Y-102168484D01*
X151443537Y-102168484D02*
X151451182Y-102176129D01*
X151451182Y-102176129D02*
X151458826Y-102191417D01*
X151458826Y-102191417D02*
X151458826Y-102252571D01*
X151367096Y-101977380D02*
X151573489Y-102114975D01*
X151390028Y-101931515D02*
X151382384Y-101923871D01*
X151382384Y-101923871D02*
X151374740Y-101908582D01*
X151374740Y-101908582D02*
X151374740Y-101870361D01*
X151374740Y-101870361D02*
X151382384Y-101855073D01*
X151382384Y-101855073D02*
X151390028Y-101847429D01*
X151390028Y-101847429D02*
X151405316Y-101839784D01*
X151405316Y-101839784D02*
X151420605Y-101839784D01*
X151420605Y-101839784D02*
X151443537Y-101847429D01*
X151443537Y-101847429D02*
X151535268Y-101939159D01*
X151535268Y-101939159D02*
X151535268Y-101839784D01*
D11*
X150176267Y-103435822D02*
X150167021Y-103445069D01*
X150167021Y-103445069D02*
X150139281Y-103454315D01*
X150139281Y-103454315D02*
X150120788Y-103454315D01*
X150120788Y-103454315D02*
X150093048Y-103445069D01*
X150093048Y-103445069D02*
X150074555Y-103426575D01*
X150074555Y-103426575D02*
X150065308Y-103408082D01*
X150065308Y-103408082D02*
X150056062Y-103371096D01*
X150056062Y-103371096D02*
X150056062Y-103343356D01*
X150056062Y-103343356D02*
X150065308Y-103306370D01*
X150065308Y-103306370D02*
X150074555Y-103287877D01*
X150074555Y-103287877D02*
X150093048Y-103269384D01*
X150093048Y-103269384D02*
X150120788Y-103260137D01*
X150120788Y-103260137D02*
X150139281Y-103260137D01*
X150139281Y-103260137D02*
X150167021Y-103269384D01*
X150167021Y-103269384D02*
X150176267Y-103278630D01*
X150250240Y-103278630D02*
X150259486Y-103269384D01*
X150259486Y-103269384D02*
X150277980Y-103260137D01*
X150277980Y-103260137D02*
X150324212Y-103260137D01*
X150324212Y-103260137D02*
X150342706Y-103269384D01*
X150342706Y-103269384D02*
X150351952Y-103278630D01*
X150351952Y-103278630D02*
X150361199Y-103297123D01*
X150361199Y-103297123D02*
X150361199Y-103315617D01*
X150361199Y-103315617D02*
X150351952Y-103343356D01*
X150351952Y-103343356D02*
X150240993Y-103454315D01*
X150240993Y-103454315D02*
X150361199Y-103454315D01*
X150546130Y-103454315D02*
X150435171Y-103454315D01*
X150490650Y-103454315D02*
X150490650Y-103260137D01*
X150490650Y-103260137D02*
X150472157Y-103287877D01*
X150472157Y-103287877D02*
X150453664Y-103306370D01*
X150453664Y-103306370D02*
X150435171Y-103315617D01*
X153968737Y-108185818D02*
X153959491Y-108195065D01*
X153959491Y-108195065D02*
X153931751Y-108204311D01*
X153931751Y-108204311D02*
X153913258Y-108204311D01*
X153913258Y-108204311D02*
X153885518Y-108195065D01*
X153885518Y-108195065D02*
X153867025Y-108176571D01*
X153867025Y-108176571D02*
X153857778Y-108158078D01*
X153857778Y-108158078D02*
X153848532Y-108121092D01*
X153848532Y-108121092D02*
X153848532Y-108093352D01*
X153848532Y-108093352D02*
X153857778Y-108056366D01*
X153857778Y-108056366D02*
X153867025Y-108037873D01*
X153867025Y-108037873D02*
X153885518Y-108019380D01*
X153885518Y-108019380D02*
X153913258Y-108010133D01*
X153913258Y-108010133D02*
X153931751Y-108010133D01*
X153931751Y-108010133D02*
X153959491Y-108019380D01*
X153959491Y-108019380D02*
X153968737Y-108028626D01*
X154153669Y-108204311D02*
X154042710Y-108204311D01*
X154098189Y-108204311D02*
X154098189Y-108010133D01*
X154098189Y-108010133D02*
X154079696Y-108037873D01*
X154079696Y-108037873D02*
X154061203Y-108056366D01*
X154061203Y-108056366D02*
X154042710Y-108065613D01*
X140013318Y-100850111D02*
X139948592Y-100757645D01*
X139902359Y-100850111D02*
X139902359Y-100655933D01*
X139902359Y-100655933D02*
X139976332Y-100655933D01*
X139976332Y-100655933D02*
X139994825Y-100665180D01*
X139994825Y-100665180D02*
X140004072Y-100674426D01*
X140004072Y-100674426D02*
X140013318Y-100692919D01*
X140013318Y-100692919D02*
X140013318Y-100720659D01*
X140013318Y-100720659D02*
X140004072Y-100739152D01*
X140004072Y-100739152D02*
X139994825Y-100748399D01*
X139994825Y-100748399D02*
X139976332Y-100757645D01*
X139976332Y-100757645D02*
X139902359Y-100757645D01*
X140161263Y-100748399D02*
X140096537Y-100748399D01*
X140096537Y-100850111D02*
X140096537Y-100655933D01*
X140096537Y-100655933D02*
X140189003Y-100655933D01*
X140299962Y-100655933D02*
X140318455Y-100655933D01*
X140318455Y-100655933D02*
X140336948Y-100665180D01*
X140336948Y-100665180D02*
X140346195Y-100674426D01*
X140346195Y-100674426D02*
X140355441Y-100692919D01*
X140355441Y-100692919D02*
X140364688Y-100729906D01*
X140364688Y-100729906D02*
X140364688Y-100776139D01*
X140364688Y-100776139D02*
X140355441Y-100813125D01*
X140355441Y-100813125D02*
X140346195Y-100831618D01*
X140346195Y-100831618D02*
X140336948Y-100840865D01*
X140336948Y-100840865D02*
X140318455Y-100850111D01*
X140318455Y-100850111D02*
X140299962Y-100850111D01*
X140299962Y-100850111D02*
X140281469Y-100840865D01*
X140281469Y-100840865D02*
X140272222Y-100831618D01*
X140272222Y-100831618D02*
X140262975Y-100813125D01*
X140262975Y-100813125D02*
X140253729Y-100776139D01*
X140253729Y-100776139D02*
X140253729Y-100729906D01*
X140253729Y-100729906D02*
X140262975Y-100692919D01*
X140262975Y-100692919D02*
X140272222Y-100674426D01*
X140272222Y-100674426D02*
X140281469Y-100665180D01*
X140281469Y-100665180D02*
X140299962Y-100655933D01*
D12*
X151331268Y-104290840D02*
X151254826Y-104344350D01*
X151331268Y-104382571D02*
X151170740Y-104382571D01*
X151170740Y-104382571D02*
X151170740Y-104321417D01*
X151170740Y-104321417D02*
X151178384Y-104306129D01*
X151178384Y-104306129D02*
X151186028Y-104298484D01*
X151186028Y-104298484D02*
X151201316Y-104290840D01*
X151201316Y-104290840D02*
X151224249Y-104290840D01*
X151224249Y-104290840D02*
X151239537Y-104298484D01*
X151239537Y-104298484D02*
X151247182Y-104306129D01*
X151247182Y-104306129D02*
X151254826Y-104321417D01*
X151254826Y-104321417D02*
X151254826Y-104382571D01*
X151163096Y-104107380D02*
X151369489Y-104244975D01*
X151331268Y-103969784D02*
X151331268Y-104061515D01*
X151331268Y-104015650D02*
X151170740Y-104015650D01*
X151170740Y-104015650D02*
X151193672Y-104030938D01*
X151193672Y-104030938D02*
X151208961Y-104046226D01*
X151208961Y-104046226D02*
X151216605Y-104061515D01*
X141963245Y-107525268D02*
X141909735Y-107448826D01*
X141871514Y-107525268D02*
X141871514Y-107364740D01*
X141871514Y-107364740D02*
X141932668Y-107364740D01*
X141932668Y-107364740D02*
X141947956Y-107372384D01*
X141947956Y-107372384D02*
X141955601Y-107380028D01*
X141955601Y-107380028D02*
X141963245Y-107395316D01*
X141963245Y-107395316D02*
X141963245Y-107418249D01*
X141963245Y-107418249D02*
X141955601Y-107433537D01*
X141955601Y-107433537D02*
X141947956Y-107441182D01*
X141947956Y-107441182D02*
X141932668Y-107448826D01*
X141932668Y-107448826D02*
X141871514Y-107448826D01*
X142116129Y-107525268D02*
X142024398Y-107525268D01*
X142070263Y-107525268D02*
X142070263Y-107364740D01*
X142070263Y-107364740D02*
X142054975Y-107387672D01*
X142054975Y-107387672D02*
X142039687Y-107402961D01*
X142039687Y-107402961D02*
X142024398Y-107410605D01*
X141774345Y-105008868D02*
X141720835Y-104932426D01*
X141682614Y-105008868D02*
X141682614Y-104848340D01*
X141682614Y-104848340D02*
X141743768Y-104848340D01*
X141743768Y-104848340D02*
X141759056Y-104855984D01*
X141759056Y-104855984D02*
X141766701Y-104863628D01*
X141766701Y-104863628D02*
X141774345Y-104878916D01*
X141774345Y-104878916D02*
X141774345Y-104901849D01*
X141774345Y-104901849D02*
X141766701Y-104917137D01*
X141766701Y-104917137D02*
X141759056Y-104924782D01*
X141759056Y-104924782D02*
X141743768Y-104932426D01*
X141743768Y-104932426D02*
X141682614Y-104932426D01*
X141827854Y-104848340D02*
X141934873Y-104848340D01*
X141934873Y-104848340D02*
X141866075Y-105008868D01*
D11*
X153917637Y-105892218D02*
X153908391Y-105901465D01*
X153908391Y-105901465D02*
X153880651Y-105910711D01*
X153880651Y-105910711D02*
X153862158Y-105910711D01*
X153862158Y-105910711D02*
X153834418Y-105901465D01*
X153834418Y-105901465D02*
X153815925Y-105882971D01*
X153815925Y-105882971D02*
X153806678Y-105864478D01*
X153806678Y-105864478D02*
X153797432Y-105827492D01*
X153797432Y-105827492D02*
X153797432Y-105799752D01*
X153797432Y-105799752D02*
X153806678Y-105762766D01*
X153806678Y-105762766D02*
X153815925Y-105744273D01*
X153815925Y-105744273D02*
X153834418Y-105725780D01*
X153834418Y-105725780D02*
X153862158Y-105716533D01*
X153862158Y-105716533D02*
X153880651Y-105716533D01*
X153880651Y-105716533D02*
X153908391Y-105725780D01*
X153908391Y-105725780D02*
X153917637Y-105735026D01*
X154084076Y-105781259D02*
X154084076Y-105910711D01*
X154037843Y-105707287D02*
X153991610Y-105845985D01*
X153991610Y-105845985D02*
X154111815Y-105845985D01*
X141768737Y-103185818D02*
X141759491Y-103195065D01*
X141759491Y-103195065D02*
X141731751Y-103204311D01*
X141731751Y-103204311D02*
X141713258Y-103204311D01*
X141713258Y-103204311D02*
X141685518Y-103195065D01*
X141685518Y-103195065D02*
X141667025Y-103176571D01*
X141667025Y-103176571D02*
X141657778Y-103158078D01*
X141657778Y-103158078D02*
X141648532Y-103121092D01*
X141648532Y-103121092D02*
X141648532Y-103093352D01*
X141648532Y-103093352D02*
X141657778Y-103056366D01*
X141657778Y-103056366D02*
X141667025Y-103037873D01*
X141667025Y-103037873D02*
X141685518Y-103019380D01*
X141685518Y-103019380D02*
X141713258Y-103010133D01*
X141713258Y-103010133D02*
X141731751Y-103010133D01*
X141731751Y-103010133D02*
X141759491Y-103019380D01*
X141759491Y-103019380D02*
X141768737Y-103028626D01*
X141833463Y-103010133D02*
X141962915Y-103010133D01*
X141962915Y-103010133D02*
X141879696Y-103204311D01*
D12*
X146233552Y-105014828D02*
X146287062Y-105014828D01*
X146309994Y-105098914D02*
X146233552Y-105098914D01*
X146233552Y-105098914D02*
X146233552Y-104938386D01*
X146233552Y-104938386D02*
X146309994Y-104938386D01*
X146371148Y-105091270D02*
X146394081Y-105098914D01*
X146394081Y-105098914D02*
X146432302Y-105098914D01*
X146432302Y-105098914D02*
X146447590Y-105091270D01*
X146447590Y-105091270D02*
X146455234Y-105083625D01*
X146455234Y-105083625D02*
X146462879Y-105068337D01*
X146462879Y-105068337D02*
X146462879Y-105053049D01*
X146462879Y-105053049D02*
X146455234Y-105037760D01*
X146455234Y-105037760D02*
X146447590Y-105030116D01*
X146447590Y-105030116D02*
X146432302Y-105022472D01*
X146432302Y-105022472D02*
X146401725Y-105014828D01*
X146401725Y-105014828D02*
X146386437Y-105007183D01*
X146386437Y-105007183D02*
X146378792Y-104999539D01*
X146378792Y-104999539D02*
X146371148Y-104984251D01*
X146371148Y-104984251D02*
X146371148Y-104968962D01*
X146371148Y-104968962D02*
X146378792Y-104953674D01*
X146378792Y-104953674D02*
X146386437Y-104946030D01*
X146386437Y-104946030D02*
X146401725Y-104938386D01*
X146401725Y-104938386D02*
X146439946Y-104938386D01*
X146439946Y-104938386D02*
X146462879Y-104946030D01*
X146531676Y-105098914D02*
X146531676Y-104938386D01*
X146531676Y-104938386D02*
X146592830Y-104938386D01*
X146592830Y-104938386D02*
X146608118Y-104946030D01*
X146608118Y-104946030D02*
X146615763Y-104953674D01*
X146615763Y-104953674D02*
X146623407Y-104968962D01*
X146623407Y-104968962D02*
X146623407Y-104991895D01*
X146623407Y-104991895D02*
X146615763Y-105007183D01*
X146615763Y-105007183D02*
X146608118Y-105014828D01*
X146608118Y-105014828D02*
X146592830Y-105022472D01*
X146592830Y-105022472D02*
X146531676Y-105022472D01*
X146776291Y-105098914D02*
X146684560Y-105098914D01*
X146730425Y-105098914D02*
X146730425Y-104938386D01*
X146730425Y-104938386D02*
X146715137Y-104961318D01*
X146715137Y-104961318D02*
X146699849Y-104976607D01*
X146699849Y-104976607D02*
X146684560Y-104984251D01*
D11*
X147676271Y-101035821D02*
X147667025Y-101045068D01*
X147667025Y-101045068D02*
X147639285Y-101054314D01*
X147639285Y-101054314D02*
X147620792Y-101054314D01*
X147620792Y-101054314D02*
X147593052Y-101045068D01*
X147593052Y-101045068D02*
X147574559Y-101026574D01*
X147574559Y-101026574D02*
X147565312Y-101008081D01*
X147565312Y-101008081D02*
X147556066Y-100971095D01*
X147556066Y-100971095D02*
X147556066Y-100943355D01*
X147556066Y-100943355D02*
X147565312Y-100906369D01*
X147565312Y-100906369D02*
X147574559Y-100887876D01*
X147574559Y-100887876D02*
X147593052Y-100869383D01*
X147593052Y-100869383D02*
X147620792Y-100860136D01*
X147620792Y-100860136D02*
X147639285Y-100860136D01*
X147639285Y-100860136D02*
X147667025Y-100869383D01*
X147667025Y-100869383D02*
X147676271Y-100878629D01*
X147750244Y-100878629D02*
X147759490Y-100869383D01*
X147759490Y-100869383D02*
X147777984Y-100860136D01*
X147777984Y-100860136D02*
X147824216Y-100860136D01*
X147824216Y-100860136D02*
X147842710Y-100869383D01*
X147842710Y-100869383D02*
X147851956Y-100878629D01*
X147851956Y-100878629D02*
X147861203Y-100897122D01*
X147861203Y-100897122D02*
X147861203Y-100915616D01*
X147861203Y-100915616D02*
X147851956Y-100943355D01*
X147851956Y-100943355D02*
X147740997Y-101054314D01*
X147740997Y-101054314D02*
X147861203Y-101054314D01*
X147981408Y-100860136D02*
X147999901Y-100860136D01*
X147999901Y-100860136D02*
X148018394Y-100869383D01*
X148018394Y-100869383D02*
X148027641Y-100878629D01*
X148027641Y-100878629D02*
X148036887Y-100897122D01*
X148036887Y-100897122D02*
X148046134Y-100934109D01*
X148046134Y-100934109D02*
X148046134Y-100980342D01*
X148046134Y-100980342D02*
X148036887Y-101017328D01*
X148036887Y-101017328D02*
X148027641Y-101035821D01*
X148027641Y-101035821D02*
X148018394Y-101045068D01*
X148018394Y-101045068D02*
X147999901Y-101054314D01*
X147999901Y-101054314D02*
X147981408Y-101054314D01*
X147981408Y-101054314D02*
X147962915Y-101045068D01*
X147962915Y-101045068D02*
X147953668Y-101035821D01*
X147953668Y-101035821D02*
X147944421Y-101017328D01*
X147944421Y-101017328D02*
X147935175Y-100980342D01*
X147935175Y-100980342D02*
X147935175Y-100934109D01*
X147935175Y-100934109D02*
X147944421Y-100897122D01*
X147944421Y-100897122D02*
X147953668Y-100878629D01*
X147953668Y-100878629D02*
X147962915Y-100869383D01*
X147962915Y-100869383D02*
X147981408Y-100860136D01*
%TO.C,U1*%
G36*
X140140500Y-109169500D02*
G01*
X139759500Y-109169500D01*
X139759500Y-108915500D01*
X140140500Y-108915500D01*
X140140500Y-109169500D01*
G37*
D13*
%TO.C,C13*%
X142280000Y-109660000D02*
X141780000Y-109660000D01*
X141780000Y-109160000D02*
X142280000Y-109160000D01*
G36*
X142530000Y-109710000D02*
G01*
X142280000Y-109710000D01*
X142280000Y-109110000D01*
X142530000Y-109110000D01*
X142530000Y-109710000D01*
G37*
G36*
X141780000Y-109710000D02*
G01*
X141530000Y-109710000D01*
X141530000Y-109110000D01*
X141780000Y-109110000D01*
X141780000Y-109710000D01*
G37*
%TO.C,C2*%
X156451100Y-108353600D02*
X155951100Y-108353600D01*
X155951100Y-107853600D02*
X156451100Y-107853600D01*
G36*
X156701100Y-108403600D02*
G01*
X156451100Y-108403600D01*
X156451100Y-107803600D01*
X156701100Y-107803600D01*
X156701100Y-108403600D01*
G37*
G36*
X155951100Y-108403600D02*
G01*
X155701100Y-108403600D01*
X155701100Y-107803600D01*
X155951100Y-107803600D01*
X155951100Y-108403600D01*
G37*
D14*
%TO.C,R5*%
X139516359Y-106250000D02*
X139823641Y-106250000D01*
X139516359Y-107010000D02*
X139823641Y-107010000D01*
D13*
%TO.C,C9*%
X147360000Y-109940000D02*
X146860000Y-109940000D01*
X146860000Y-109440000D02*
X147360000Y-109440000D01*
G36*
X147610000Y-109990000D02*
G01*
X147360000Y-109990000D01*
X147360000Y-109390000D01*
X147610000Y-109390000D01*
X147610000Y-109990000D01*
G37*
G36*
X146860000Y-109990000D02*
G01*
X146610000Y-109990000D01*
X146610000Y-109390000D01*
X146860000Y-109390000D01*
X146860000Y-109990000D01*
G37*
%TO.C,X1*%
X149209679Y-100580808D02*
X148078308Y-101712179D01*
X148078308Y-101712179D02*
X149492521Y-103126392D01*
X150623892Y-101995021D02*
X149209679Y-100580808D01*
X149492521Y-103126392D02*
X150623892Y-101995021D01*
%TO.C,C8*%
X146701100Y-100653600D02*
X146201100Y-100653600D01*
X146201100Y-100153600D02*
X146701100Y-100153600D01*
G36*
X146951100Y-100703600D02*
G01*
X146701100Y-100703600D01*
X146701100Y-100103600D01*
X146951100Y-100103600D01*
X146951100Y-100703600D01*
G37*
G36*
X146201100Y-100703600D02*
G01*
X145951100Y-100703600D01*
X145951100Y-100103600D01*
X146201100Y-100103600D01*
X146201100Y-100703600D01*
G37*
D14*
%TO.C,C4*%
X157160000Y-103922164D02*
X157160000Y-104137836D01*
X156440000Y-103922164D02*
X156440000Y-104137836D01*
D13*
%TO.C,U2*%
X154601100Y-107503600D02*
X154601100Y-106503600D01*
X155601100Y-107503600D02*
X154601100Y-107503600D01*
X154601100Y-106503600D02*
X155601100Y-106503600D01*
X155601100Y-106503600D02*
X155601100Y-107503600D01*
%TO.C,C21*%
X149947547Y-103353600D02*
X150301100Y-103000047D01*
X150654653Y-103353600D02*
X150301100Y-103707153D01*
G36*
X150336455Y-103742509D02*
G01*
X150159679Y-103919285D01*
X149735415Y-103495021D01*
X149912191Y-103318245D01*
X150336455Y-103742509D01*
G37*
G36*
X150866785Y-103212179D02*
G01*
X150690009Y-103388955D01*
X150265745Y-102964691D01*
X150442521Y-102787915D01*
X150866785Y-103212179D01*
G37*
%TO.C,C1*%
X153751100Y-107853600D02*
X154251100Y-107853600D01*
X154251100Y-108353600D02*
X153751100Y-108353600D01*
G36*
X153751100Y-108403600D02*
G01*
X153501100Y-108403600D01*
X153501100Y-107803600D01*
X153751100Y-107803600D01*
X153751100Y-108403600D01*
G37*
G36*
X154501100Y-108403600D02*
G01*
X154251100Y-108403600D01*
X154251100Y-107803600D01*
X154501100Y-107803600D01*
X154501100Y-108403600D01*
G37*
D14*
%TO.C,D4*%
X154143641Y-102070000D02*
X153836359Y-102070000D01*
X154143641Y-101310000D02*
X153836359Y-101310000D01*
D15*
%TO.C,RF0*%
X141650000Y-100120000D02*
X141250000Y-100120000D01*
X141250000Y-100120000D02*
X138450000Y-100120000D01*
X141250000Y-100120000D02*
X141250000Y-101720000D01*
X138450000Y-100120000D02*
X138450000Y-101720000D01*
X141650000Y-101720000D02*
X141650000Y-100120000D01*
X141250000Y-101720000D02*
X141650000Y-101720000D01*
X138450000Y-101720000D02*
X141250000Y-101720000D01*
D14*
%TO.C,R8*%
X140260000Y-103446359D02*
X140260000Y-103753641D01*
X139500000Y-103446359D02*
X139500000Y-103753641D01*
D13*
%TO.C,C4*%
X154200000Y-106060000D02*
X153700000Y-106060000D01*
X153700000Y-105560000D02*
X154200000Y-105560000D01*
G36*
X154450000Y-106110000D02*
G01*
X154200000Y-106110000D01*
X154200000Y-105510000D01*
X154450000Y-105510000D01*
X154450000Y-106110000D01*
G37*
G36*
X153700000Y-106110000D02*
G01*
X153450000Y-106110000D01*
X153450000Y-105510000D01*
X153700000Y-105510000D01*
X153700000Y-106110000D01*
G37*
D14*
%TO.C,R6*%
X139556359Y-109280000D02*
X139863641Y-109280000D01*
X139556359Y-110040000D02*
X139863641Y-110040000D01*
D13*
%TO.C,C7*%
X141551100Y-102853600D02*
X142051100Y-102853600D01*
X142051100Y-103353600D02*
X141551100Y-103353600D01*
G36*
X141551100Y-103403600D02*
G01*
X141301100Y-103403600D01*
X141301100Y-102803600D01*
X141551100Y-102803600D01*
X141551100Y-103403600D01*
G37*
G36*
X142301100Y-103403600D02*
G01*
X142051100Y-103403600D01*
X142051100Y-102803600D01*
X142301100Y-102803600D01*
X142301100Y-103403600D01*
G37*
D14*
%TO.C,R9*%
X140260000Y-105086359D02*
X140260000Y-105393641D01*
X139500000Y-105086359D02*
X139500000Y-105393641D01*
D16*
%TO.C,ESP1*%
X146501100Y-101538777D02*
X146783943Y-101821619D01*
X146218257Y-101821619D02*
X146501100Y-101538777D01*
X143036277Y-105003600D02*
X143319119Y-104720757D01*
X143319119Y-105286443D02*
X143036277Y-105003600D01*
X149683081Y-104720757D02*
X149965923Y-105003600D01*
X149965923Y-105003600D02*
X149683081Y-105286443D01*
X146783943Y-108185581D02*
X146501100Y-108468423D01*
X146501100Y-108468423D02*
X146218257Y-108185581D01*
D17*
X146576100Y-101927686D02*
G75*
G03*
X146426100Y-101927686I-75000J0D01*
G01*
X146426100Y-101927686D02*
G75*
G03*
X146576100Y-101927686I75000J0D01*
G01*
D13*
%TO.C,C20*%
X148154653Y-100953600D02*
X147801100Y-101307153D01*
X147447547Y-100953600D02*
X147801100Y-100600047D01*
G36*
X148366785Y-100812179D02*
G01*
X148190009Y-100988955D01*
X147765745Y-100564691D01*
X147942521Y-100387915D01*
X148366785Y-100812179D01*
G37*
G36*
X147836455Y-101342509D02*
G01*
X147659679Y-101519285D01*
X147235415Y-101095021D01*
X147412191Y-100918245D01*
X147836455Y-101342509D01*
G37*
D14*
%TO.C,C3*%
X138160000Y-108167836D02*
X138160000Y-107952164D01*
X138880000Y-108167836D02*
X138880000Y-107952164D01*
%TD*%
M02*
