M48
; DRILL file {KiCad 7.0.10} date Fri Jul 12 16:17:26 2024
; FORMAT={-:-/ absolute / inch / decimal}
; #@! TF.CreationDate,2024-07-12T16:17:26+02:00
; #@! TF.GenerationSoftware,Kicad,Pcbnew,7.0.10
; #@! TF.FileFunction,Plated,1,4,PTH
FMAT,2
INCH
; #@! TA.AperFunction,Plated,PTH,ViaDrill
T1C0.0079
; #@! TA.AperFunction,Plated,PTH,ComponentDrill
T2C0.0236
%
G90
G05
T1
X5.454Y-4.2978
X5.4547Y-4.1976
X5.4567Y-4.0276
X5.4817Y-4.0272
X5.4888Y-4.2939
X5.5054Y-4.0281
X5.5291Y-4.0277
X5.5331Y-4.0587
X5.5337Y-4.1453
X5.5342Y-4.1126
X5.5416Y-4.1972
X5.5424Y-4.3191
X5.5429Y-4.2913
X5.552Y-4.0277
X5.5693Y-4.1975
X5.574Y-4.0277
X5.5953Y-4.0204
X5.6098Y-4.0063
X5.625Y-3.9911
X5.6323Y-4.2166
X5.6359Y-4.1675
X5.6383Y-4.0627
X5.6393Y-4.3003
X5.64Y-4.19
X5.6433Y-3.9814
X5.6514Y-4.2368
X5.6555Y-4.0091
X5.6578Y-4.0429
X5.6639Y-3.9814
X5.6772Y-4.2143
X5.6898Y-4.235
X5.7185Y-3.949
X5.7205Y-4.134
X5.7342Y-4.2923
X5.7478Y-3.9845
X5.7649Y-4.2893
X5.7678Y-4.0868
X5.7678Y-4.134
X5.7678Y-4.1868
X5.7752Y-3.9942
X5.8044Y-4.2647
X5.815Y-4.134
X5.8398Y-4.3256
X5.8406Y-4.2307
X5.8595Y-4.2088
X5.863Y-4.0667
X5.8868Y-4.3209
X5.8879Y-4.2717
X5.9025Y-4.1784
X5.9036Y-4.1438
X5.9095Y-4.1183
X5.9252Y-3.9828
X5.9934Y-4.0541
X6.0114Y-4.176
X6.0122Y-4.0829
X6.0229Y-4.1153
X6.0563Y-4.2205
X6.0603Y-4.1952
X6.112Y-4.1557
X6.1205Y-4.0039
X6.1307Y-4.1763
X6.1356Y-4.1313
X6.1748Y-4.2244
T2
X5.9804Y-3.9639
X5.9804Y-4.3041
X6.1437Y-3.9639
X6.1437Y-4.3041
M30
