%TF.GenerationSoftware,KiCad,Pcbnew,7.0.10*%
%TF.CreationDate,2024-07-12T16:17:27+02:00*%
%TF.ProjectId,MouthIO_v3,4d6f7574-6849-44f5-9f76-332e6b696361,rev?*%
%TF.SameCoordinates,Original*%
%TF.FileFunction,Drillmap*%
%TF.FilePolarity,Positive*%
%FSLAX45Y45*%
G04 Gerber Fmt 4.5, Leading zero omitted, Abs format (unit mm)*
G04 Created by KiCad (PCBNEW 7.0.10) date 2024-07-12 16:17:27*
%MOMM*%
%LPD*%
G01*
G04 APERTURE LIST*
%ADD10C,0.050000*%
%ADD11C,0.200000*%
%ADD12C,0.100000*%
G04 APERTURE END LIST*
D10*
X15750110Y-9975360D02*
X13792200Y-9975360D01*
X15750110Y-11025360D02*
X15750110Y-9975360D01*
X13792200Y-11025360D02*
X15750110Y-11025360D01*
X13792200Y-9975360D02*
X13792200Y-11025360D01*
D11*
D12*
X15207610Y-10178860D02*
X15272610Y-10243860D01*
X15272610Y-10178860D02*
X15207610Y-10243860D01*
X15207610Y-10756860D02*
X15272610Y-10821860D01*
X15272610Y-10756860D02*
X15207610Y-10821860D01*
D11*
X14050477Y-11339344D02*
X14050477Y-11139344D01*
X14050477Y-11139344D02*
X14098096Y-11139344D01*
X14098096Y-11139344D02*
X14126667Y-11148868D01*
X14126667Y-11148868D02*
X14145715Y-11167915D01*
X14145715Y-11167915D02*
X14155239Y-11186963D01*
X14155239Y-11186963D02*
X14164762Y-11225058D01*
X14164762Y-11225058D02*
X14164762Y-11253629D01*
X14164762Y-11253629D02*
X14155239Y-11291725D01*
X14155239Y-11291725D02*
X14145715Y-11310772D01*
X14145715Y-11310772D02*
X14126667Y-11329820D01*
X14126667Y-11329820D02*
X14098096Y-11339344D01*
X14098096Y-11339344D02*
X14050477Y-11339344D01*
X14250477Y-11339344D02*
X14250477Y-11206010D01*
X14250477Y-11244106D02*
X14260001Y-11225058D01*
X14260001Y-11225058D02*
X14269524Y-11215534D01*
X14269524Y-11215534D02*
X14288572Y-11206010D01*
X14288572Y-11206010D02*
X14307620Y-11206010D01*
X14374286Y-11339344D02*
X14374286Y-11206010D01*
X14374286Y-11139344D02*
X14364762Y-11148868D01*
X14364762Y-11148868D02*
X14374286Y-11158391D01*
X14374286Y-11158391D02*
X14383810Y-11148868D01*
X14383810Y-11148868D02*
X14374286Y-11139344D01*
X14374286Y-11139344D02*
X14374286Y-11158391D01*
X14498096Y-11339344D02*
X14479048Y-11329820D01*
X14479048Y-11329820D02*
X14469524Y-11310772D01*
X14469524Y-11310772D02*
X14469524Y-11139344D01*
X14602858Y-11339344D02*
X14583810Y-11329820D01*
X14583810Y-11329820D02*
X14574286Y-11310772D01*
X14574286Y-11310772D02*
X14574286Y-11139344D01*
X14831429Y-11339344D02*
X14831429Y-11139344D01*
X14831429Y-11139344D02*
X14898096Y-11282201D01*
X14898096Y-11282201D02*
X14964762Y-11139344D01*
X14964762Y-11139344D02*
X14964762Y-11339344D01*
X15145715Y-11339344D02*
X15145715Y-11234582D01*
X15145715Y-11234582D02*
X15136191Y-11215534D01*
X15136191Y-11215534D02*
X15117143Y-11206010D01*
X15117143Y-11206010D02*
X15079048Y-11206010D01*
X15079048Y-11206010D02*
X15060001Y-11215534D01*
X15145715Y-11329820D02*
X15126667Y-11339344D01*
X15126667Y-11339344D02*
X15079048Y-11339344D01*
X15079048Y-11339344D02*
X15060001Y-11329820D01*
X15060001Y-11329820D02*
X15050477Y-11310772D01*
X15050477Y-11310772D02*
X15050477Y-11291725D01*
X15050477Y-11291725D02*
X15060001Y-11272677D01*
X15060001Y-11272677D02*
X15079048Y-11263153D01*
X15079048Y-11263153D02*
X15126667Y-11263153D01*
X15126667Y-11263153D02*
X15145715Y-11253629D01*
X15240953Y-11206010D02*
X15240953Y-11406010D01*
X15240953Y-11215534D02*
X15260001Y-11206010D01*
X15260001Y-11206010D02*
X15298096Y-11206010D01*
X15298096Y-11206010D02*
X15317143Y-11215534D01*
X15317143Y-11215534D02*
X15326667Y-11225058D01*
X15326667Y-11225058D02*
X15336191Y-11244106D01*
X15336191Y-11244106D02*
X15336191Y-11301248D01*
X15336191Y-11301248D02*
X15326667Y-11320296D01*
X15326667Y-11320296D02*
X15317143Y-11329820D01*
X15317143Y-11329820D02*
X15298096Y-11339344D01*
X15298096Y-11339344D02*
X15260001Y-11339344D01*
X15260001Y-11339344D02*
X15240953Y-11329820D01*
X15421905Y-11320296D02*
X15431429Y-11329820D01*
X15431429Y-11329820D02*
X15421905Y-11339344D01*
X15421905Y-11339344D02*
X15412382Y-11329820D01*
X15412382Y-11329820D02*
X15421905Y-11320296D01*
X15421905Y-11320296D02*
X15421905Y-11339344D01*
X15421905Y-11215534D02*
X15431429Y-11225058D01*
X15431429Y-11225058D02*
X15421905Y-11234582D01*
X15421905Y-11234582D02*
X15412382Y-11225058D01*
X15412382Y-11225058D02*
X15421905Y-11215534D01*
X15421905Y-11215534D02*
X15421905Y-11234582D01*
D12*
X13724700Y-11635360D02*
X13789700Y-11700360D01*
X13789700Y-11635360D02*
X13724700Y-11700360D01*
D11*
X14088572Y-11559344D02*
X14107620Y-11559344D01*
X14107620Y-11559344D02*
X14126667Y-11568868D01*
X14126667Y-11568868D02*
X14136191Y-11578391D01*
X14136191Y-11578391D02*
X14145715Y-11597439D01*
X14145715Y-11597439D02*
X14155239Y-11635534D01*
X14155239Y-11635534D02*
X14155239Y-11683153D01*
X14155239Y-11683153D02*
X14145715Y-11721248D01*
X14145715Y-11721248D02*
X14136191Y-11740296D01*
X14136191Y-11740296D02*
X14126667Y-11749820D01*
X14126667Y-11749820D02*
X14107620Y-11759344D01*
X14107620Y-11759344D02*
X14088572Y-11759344D01*
X14088572Y-11759344D02*
X14069524Y-11749820D01*
X14069524Y-11749820D02*
X14060001Y-11740296D01*
X14060001Y-11740296D02*
X14050477Y-11721248D01*
X14050477Y-11721248D02*
X14040953Y-11683153D01*
X14040953Y-11683153D02*
X14040953Y-11635534D01*
X14040953Y-11635534D02*
X14050477Y-11597439D01*
X14050477Y-11597439D02*
X14060001Y-11578391D01*
X14060001Y-11578391D02*
X14069524Y-11568868D01*
X14069524Y-11568868D02*
X14088572Y-11559344D01*
X14240953Y-11740296D02*
X14250477Y-11749820D01*
X14250477Y-11749820D02*
X14240953Y-11759344D01*
X14240953Y-11759344D02*
X14231429Y-11749820D01*
X14231429Y-11749820D02*
X14240953Y-11740296D01*
X14240953Y-11740296D02*
X14240953Y-11759344D01*
X14421905Y-11559344D02*
X14383810Y-11559344D01*
X14383810Y-11559344D02*
X14364762Y-11568868D01*
X14364762Y-11568868D02*
X14355239Y-11578391D01*
X14355239Y-11578391D02*
X14336191Y-11606963D01*
X14336191Y-11606963D02*
X14326667Y-11645058D01*
X14326667Y-11645058D02*
X14326667Y-11721248D01*
X14326667Y-11721248D02*
X14336191Y-11740296D01*
X14336191Y-11740296D02*
X14345715Y-11749820D01*
X14345715Y-11749820D02*
X14364762Y-11759344D01*
X14364762Y-11759344D02*
X14402858Y-11759344D01*
X14402858Y-11759344D02*
X14421905Y-11749820D01*
X14421905Y-11749820D02*
X14431429Y-11740296D01*
X14431429Y-11740296D02*
X14440953Y-11721248D01*
X14440953Y-11721248D02*
X14440953Y-11673629D01*
X14440953Y-11673629D02*
X14431429Y-11654582D01*
X14431429Y-11654582D02*
X14421905Y-11645058D01*
X14421905Y-11645058D02*
X14402858Y-11635534D01*
X14402858Y-11635534D02*
X14364762Y-11635534D01*
X14364762Y-11635534D02*
X14345715Y-11645058D01*
X14345715Y-11645058D02*
X14336191Y-11654582D01*
X14336191Y-11654582D02*
X14326667Y-11673629D01*
X14621905Y-11559344D02*
X14526667Y-11559344D01*
X14526667Y-11559344D02*
X14517143Y-11654582D01*
X14517143Y-11654582D02*
X14526667Y-11645058D01*
X14526667Y-11645058D02*
X14545715Y-11635534D01*
X14545715Y-11635534D02*
X14593334Y-11635534D01*
X14593334Y-11635534D02*
X14612382Y-11645058D01*
X14612382Y-11645058D02*
X14621905Y-11654582D01*
X14621905Y-11654582D02*
X14631429Y-11673629D01*
X14631429Y-11673629D02*
X14631429Y-11721248D01*
X14631429Y-11721248D02*
X14621905Y-11740296D01*
X14621905Y-11740296D02*
X14612382Y-11749820D01*
X14612382Y-11749820D02*
X14593334Y-11759344D01*
X14593334Y-11759344D02*
X14545715Y-11759344D01*
X14545715Y-11759344D02*
X14526667Y-11749820D01*
X14526667Y-11749820D02*
X14517143Y-11740296D01*
X14755239Y-11559344D02*
X14774286Y-11559344D01*
X14774286Y-11559344D02*
X14793334Y-11568868D01*
X14793334Y-11568868D02*
X14802858Y-11578391D01*
X14802858Y-11578391D02*
X14812382Y-11597439D01*
X14812382Y-11597439D02*
X14821905Y-11635534D01*
X14821905Y-11635534D02*
X14821905Y-11683153D01*
X14821905Y-11683153D02*
X14812382Y-11721248D01*
X14812382Y-11721248D02*
X14802858Y-11740296D01*
X14802858Y-11740296D02*
X14793334Y-11749820D01*
X14793334Y-11749820D02*
X14774286Y-11759344D01*
X14774286Y-11759344D02*
X14755239Y-11759344D01*
X14755239Y-11759344D02*
X14736191Y-11749820D01*
X14736191Y-11749820D02*
X14726667Y-11740296D01*
X14726667Y-11740296D02*
X14717143Y-11721248D01*
X14717143Y-11721248D02*
X14707620Y-11683153D01*
X14707620Y-11683153D02*
X14707620Y-11635534D01*
X14707620Y-11635534D02*
X14717143Y-11597439D01*
X14717143Y-11597439D02*
X14726667Y-11578391D01*
X14726667Y-11578391D02*
X14736191Y-11568868D01*
X14736191Y-11568868D02*
X14755239Y-11559344D01*
X14907620Y-11759344D02*
X14907620Y-11626010D01*
X14907620Y-11645058D02*
X14917143Y-11635534D01*
X14917143Y-11635534D02*
X14936191Y-11626010D01*
X14936191Y-11626010D02*
X14964763Y-11626010D01*
X14964763Y-11626010D02*
X14983810Y-11635534D01*
X14983810Y-11635534D02*
X14993334Y-11654582D01*
X14993334Y-11654582D02*
X14993334Y-11759344D01*
X14993334Y-11654582D02*
X15002858Y-11635534D01*
X15002858Y-11635534D02*
X15021905Y-11626010D01*
X15021905Y-11626010D02*
X15050477Y-11626010D01*
X15050477Y-11626010D02*
X15069524Y-11635534D01*
X15069524Y-11635534D02*
X15079048Y-11654582D01*
X15079048Y-11654582D02*
X15079048Y-11759344D01*
X15174286Y-11759344D02*
X15174286Y-11626010D01*
X15174286Y-11645058D02*
X15183810Y-11635534D01*
X15183810Y-11635534D02*
X15202858Y-11626010D01*
X15202858Y-11626010D02*
X15231429Y-11626010D01*
X15231429Y-11626010D02*
X15250477Y-11635534D01*
X15250477Y-11635534D02*
X15260001Y-11654582D01*
X15260001Y-11654582D02*
X15260001Y-11759344D01*
X15260001Y-11654582D02*
X15269524Y-11635534D01*
X15269524Y-11635534D02*
X15288572Y-11626010D01*
X15288572Y-11626010D02*
X15317143Y-11626010D01*
X15317143Y-11626010D02*
X15336191Y-11635534D01*
X15336191Y-11635534D02*
X15345715Y-11654582D01*
X15345715Y-11654582D02*
X15345715Y-11759344D01*
X15736191Y-11549820D02*
X15564763Y-11806963D01*
X15993334Y-11559344D02*
X16012382Y-11559344D01*
X16012382Y-11559344D02*
X16031429Y-11568868D01*
X16031429Y-11568868D02*
X16040953Y-11578391D01*
X16040953Y-11578391D02*
X16050477Y-11597439D01*
X16050477Y-11597439D02*
X16060001Y-11635534D01*
X16060001Y-11635534D02*
X16060001Y-11683153D01*
X16060001Y-11683153D02*
X16050477Y-11721248D01*
X16050477Y-11721248D02*
X16040953Y-11740296D01*
X16040953Y-11740296D02*
X16031429Y-11749820D01*
X16031429Y-11749820D02*
X16012382Y-11759344D01*
X16012382Y-11759344D02*
X15993334Y-11759344D01*
X15993334Y-11759344D02*
X15974286Y-11749820D01*
X15974286Y-11749820D02*
X15964763Y-11740296D01*
X15964763Y-11740296D02*
X15955239Y-11721248D01*
X15955239Y-11721248D02*
X15945715Y-11683153D01*
X15945715Y-11683153D02*
X15945715Y-11635534D01*
X15945715Y-11635534D02*
X15955239Y-11597439D01*
X15955239Y-11597439D02*
X15964763Y-11578391D01*
X15964763Y-11578391D02*
X15974286Y-11568868D01*
X15974286Y-11568868D02*
X15993334Y-11559344D01*
X16145715Y-11740296D02*
X16155239Y-11749820D01*
X16155239Y-11749820D02*
X16145715Y-11759344D01*
X16145715Y-11759344D02*
X16136191Y-11749820D01*
X16136191Y-11749820D02*
X16145715Y-11740296D01*
X16145715Y-11740296D02*
X16145715Y-11759344D01*
X16279048Y-11559344D02*
X16298096Y-11559344D01*
X16298096Y-11559344D02*
X16317144Y-11568868D01*
X16317144Y-11568868D02*
X16326667Y-11578391D01*
X16326667Y-11578391D02*
X16336191Y-11597439D01*
X16336191Y-11597439D02*
X16345715Y-11635534D01*
X16345715Y-11635534D02*
X16345715Y-11683153D01*
X16345715Y-11683153D02*
X16336191Y-11721248D01*
X16336191Y-11721248D02*
X16326667Y-11740296D01*
X16326667Y-11740296D02*
X16317144Y-11749820D01*
X16317144Y-11749820D02*
X16298096Y-11759344D01*
X16298096Y-11759344D02*
X16279048Y-11759344D01*
X16279048Y-11759344D02*
X16260001Y-11749820D01*
X16260001Y-11749820D02*
X16250477Y-11740296D01*
X16250477Y-11740296D02*
X16240953Y-11721248D01*
X16240953Y-11721248D02*
X16231429Y-11683153D01*
X16231429Y-11683153D02*
X16231429Y-11635534D01*
X16231429Y-11635534D02*
X16240953Y-11597439D01*
X16240953Y-11597439D02*
X16250477Y-11578391D01*
X16250477Y-11578391D02*
X16260001Y-11568868D01*
X16260001Y-11568868D02*
X16279048Y-11559344D01*
X16421906Y-11578391D02*
X16431429Y-11568868D01*
X16431429Y-11568868D02*
X16450477Y-11559344D01*
X16450477Y-11559344D02*
X16498096Y-11559344D01*
X16498096Y-11559344D02*
X16517144Y-11568868D01*
X16517144Y-11568868D02*
X16526667Y-11578391D01*
X16526667Y-11578391D02*
X16536191Y-11597439D01*
X16536191Y-11597439D02*
X16536191Y-11616487D01*
X16536191Y-11616487D02*
X16526667Y-11645058D01*
X16526667Y-11645058D02*
X16412382Y-11759344D01*
X16412382Y-11759344D02*
X16536191Y-11759344D01*
X16717144Y-11559344D02*
X16621906Y-11559344D01*
X16621906Y-11559344D02*
X16612382Y-11654582D01*
X16612382Y-11654582D02*
X16621906Y-11645058D01*
X16621906Y-11645058D02*
X16640953Y-11635534D01*
X16640953Y-11635534D02*
X16688572Y-11635534D01*
X16688572Y-11635534D02*
X16707620Y-11645058D01*
X16707620Y-11645058D02*
X16717144Y-11654582D01*
X16717144Y-11654582D02*
X16726667Y-11673629D01*
X16726667Y-11673629D02*
X16726667Y-11721248D01*
X16726667Y-11721248D02*
X16717144Y-11740296D01*
X16717144Y-11740296D02*
X16707620Y-11749820D01*
X16707620Y-11749820D02*
X16688572Y-11759344D01*
X16688572Y-11759344D02*
X16640953Y-11759344D01*
X16640953Y-11759344D02*
X16621906Y-11749820D01*
X16621906Y-11749820D02*
X16612382Y-11740296D01*
X16898096Y-11559344D02*
X16860001Y-11559344D01*
X16860001Y-11559344D02*
X16840953Y-11568868D01*
X16840953Y-11568868D02*
X16831429Y-11578391D01*
X16831429Y-11578391D02*
X16812382Y-11606963D01*
X16812382Y-11606963D02*
X16802858Y-11645058D01*
X16802858Y-11645058D02*
X16802858Y-11721248D01*
X16802858Y-11721248D02*
X16812382Y-11740296D01*
X16812382Y-11740296D02*
X16821906Y-11749820D01*
X16821906Y-11749820D02*
X16840953Y-11759344D01*
X16840953Y-11759344D02*
X16879049Y-11759344D01*
X16879049Y-11759344D02*
X16898096Y-11749820D01*
X16898096Y-11749820D02*
X16907620Y-11740296D01*
X16907620Y-11740296D02*
X16917144Y-11721248D01*
X16917144Y-11721248D02*
X16917144Y-11673629D01*
X16917144Y-11673629D02*
X16907620Y-11654582D01*
X16907620Y-11654582D02*
X16898096Y-11645058D01*
X16898096Y-11645058D02*
X16879049Y-11635534D01*
X16879049Y-11635534D02*
X16840953Y-11635534D01*
X16840953Y-11635534D02*
X16821906Y-11645058D01*
X16821906Y-11645058D02*
X16812382Y-11654582D01*
X16812382Y-11654582D02*
X16802858Y-11673629D01*
X16993334Y-11559344D02*
X16993334Y-11597439D01*
X17069525Y-11559344D02*
X17069525Y-11597439D01*
X17364763Y-11835534D02*
X17355239Y-11826010D01*
X17355239Y-11826010D02*
X17336191Y-11797439D01*
X17336191Y-11797439D02*
X17326668Y-11778391D01*
X17326668Y-11778391D02*
X17317144Y-11749820D01*
X17317144Y-11749820D02*
X17307620Y-11702201D01*
X17307620Y-11702201D02*
X17307620Y-11664106D01*
X17307620Y-11664106D02*
X17317144Y-11616487D01*
X17317144Y-11616487D02*
X17326668Y-11587915D01*
X17326668Y-11587915D02*
X17336191Y-11568868D01*
X17336191Y-11568868D02*
X17355239Y-11540296D01*
X17355239Y-11540296D02*
X17364763Y-11530772D01*
X17431430Y-11578391D02*
X17440953Y-11568868D01*
X17440953Y-11568868D02*
X17460001Y-11559344D01*
X17460001Y-11559344D02*
X17507620Y-11559344D01*
X17507620Y-11559344D02*
X17526668Y-11568868D01*
X17526668Y-11568868D02*
X17536191Y-11578391D01*
X17536191Y-11578391D02*
X17545715Y-11597439D01*
X17545715Y-11597439D02*
X17545715Y-11616487D01*
X17545715Y-11616487D02*
X17536191Y-11645058D01*
X17536191Y-11645058D02*
X17421906Y-11759344D01*
X17421906Y-11759344D02*
X17545715Y-11759344D01*
X17783811Y-11759344D02*
X17783811Y-11559344D01*
X17869525Y-11759344D02*
X17869525Y-11654582D01*
X17869525Y-11654582D02*
X17860001Y-11635534D01*
X17860001Y-11635534D02*
X17840953Y-11626010D01*
X17840953Y-11626010D02*
X17812382Y-11626010D01*
X17812382Y-11626010D02*
X17793334Y-11635534D01*
X17793334Y-11635534D02*
X17783811Y-11645058D01*
X17993334Y-11759344D02*
X17974287Y-11749820D01*
X17974287Y-11749820D02*
X17964763Y-11740296D01*
X17964763Y-11740296D02*
X17955239Y-11721248D01*
X17955239Y-11721248D02*
X17955239Y-11664106D01*
X17955239Y-11664106D02*
X17964763Y-11645058D01*
X17964763Y-11645058D02*
X17974287Y-11635534D01*
X17974287Y-11635534D02*
X17993334Y-11626010D01*
X17993334Y-11626010D02*
X18021906Y-11626010D01*
X18021906Y-11626010D02*
X18040953Y-11635534D01*
X18040953Y-11635534D02*
X18050477Y-11645058D01*
X18050477Y-11645058D02*
X18060001Y-11664106D01*
X18060001Y-11664106D02*
X18060001Y-11721248D01*
X18060001Y-11721248D02*
X18050477Y-11740296D01*
X18050477Y-11740296D02*
X18040953Y-11749820D01*
X18040953Y-11749820D02*
X18021906Y-11759344D01*
X18021906Y-11759344D02*
X17993334Y-11759344D01*
X18174287Y-11759344D02*
X18155239Y-11749820D01*
X18155239Y-11749820D02*
X18145715Y-11730772D01*
X18145715Y-11730772D02*
X18145715Y-11559344D01*
X18326668Y-11749820D02*
X18307620Y-11759344D01*
X18307620Y-11759344D02*
X18269525Y-11759344D01*
X18269525Y-11759344D02*
X18250477Y-11749820D01*
X18250477Y-11749820D02*
X18240953Y-11730772D01*
X18240953Y-11730772D02*
X18240953Y-11654582D01*
X18240953Y-11654582D02*
X18250477Y-11635534D01*
X18250477Y-11635534D02*
X18269525Y-11626010D01*
X18269525Y-11626010D02*
X18307620Y-11626010D01*
X18307620Y-11626010D02*
X18326668Y-11635534D01*
X18326668Y-11635534D02*
X18336192Y-11654582D01*
X18336192Y-11654582D02*
X18336192Y-11673629D01*
X18336192Y-11673629D02*
X18240953Y-11692677D01*
X18412382Y-11749820D02*
X18431430Y-11759344D01*
X18431430Y-11759344D02*
X18469525Y-11759344D01*
X18469525Y-11759344D02*
X18488573Y-11749820D01*
X18488573Y-11749820D02*
X18498096Y-11730772D01*
X18498096Y-11730772D02*
X18498096Y-11721248D01*
X18498096Y-11721248D02*
X18488573Y-11702201D01*
X18488573Y-11702201D02*
X18469525Y-11692677D01*
X18469525Y-11692677D02*
X18440953Y-11692677D01*
X18440953Y-11692677D02*
X18421906Y-11683153D01*
X18421906Y-11683153D02*
X18412382Y-11664106D01*
X18412382Y-11664106D02*
X18412382Y-11654582D01*
X18412382Y-11654582D02*
X18421906Y-11635534D01*
X18421906Y-11635534D02*
X18440953Y-11626010D01*
X18440953Y-11626010D02*
X18469525Y-11626010D01*
X18469525Y-11626010D02*
X18488573Y-11635534D01*
X18564763Y-11835534D02*
X18574287Y-11826010D01*
X18574287Y-11826010D02*
X18593334Y-11797439D01*
X18593334Y-11797439D02*
X18602858Y-11778391D01*
X18602858Y-11778391D02*
X18612382Y-11749820D01*
X18612382Y-11749820D02*
X18621906Y-11702201D01*
X18621906Y-11702201D02*
X18621906Y-11664106D01*
X18621906Y-11664106D02*
X18612382Y-11616487D01*
X18612382Y-11616487D02*
X18602858Y-11587915D01*
X18602858Y-11587915D02*
X18593334Y-11568868D01*
X18593334Y-11568868D02*
X18574287Y-11540296D01*
X18574287Y-11540296D02*
X18564763Y-11530772D01*
X18926668Y-11835534D02*
X18917144Y-11826010D01*
X18917144Y-11826010D02*
X18898096Y-11797439D01*
X18898096Y-11797439D02*
X18888573Y-11778391D01*
X18888573Y-11778391D02*
X18879049Y-11749820D01*
X18879049Y-11749820D02*
X18869525Y-11702201D01*
X18869525Y-11702201D02*
X18869525Y-11664106D01*
X18869525Y-11664106D02*
X18879049Y-11616487D01*
X18879049Y-11616487D02*
X18888573Y-11587915D01*
X18888573Y-11587915D02*
X18898096Y-11568868D01*
X18898096Y-11568868D02*
X18917144Y-11540296D01*
X18917144Y-11540296D02*
X18926668Y-11530772D01*
X19002858Y-11626010D02*
X19002858Y-11759344D01*
X19002858Y-11645058D02*
X19012382Y-11635534D01*
X19012382Y-11635534D02*
X19031430Y-11626010D01*
X19031430Y-11626010D02*
X19060001Y-11626010D01*
X19060001Y-11626010D02*
X19079049Y-11635534D01*
X19079049Y-11635534D02*
X19088573Y-11654582D01*
X19088573Y-11654582D02*
X19088573Y-11759344D01*
X19212382Y-11759344D02*
X19193334Y-11749820D01*
X19193334Y-11749820D02*
X19183811Y-11740296D01*
X19183811Y-11740296D02*
X19174287Y-11721248D01*
X19174287Y-11721248D02*
X19174287Y-11664106D01*
X19174287Y-11664106D02*
X19183811Y-11645058D01*
X19183811Y-11645058D02*
X19193334Y-11635534D01*
X19193334Y-11635534D02*
X19212382Y-11626010D01*
X19212382Y-11626010D02*
X19240954Y-11626010D01*
X19240954Y-11626010D02*
X19260001Y-11635534D01*
X19260001Y-11635534D02*
X19269525Y-11645058D01*
X19269525Y-11645058D02*
X19279049Y-11664106D01*
X19279049Y-11664106D02*
X19279049Y-11721248D01*
X19279049Y-11721248D02*
X19269525Y-11740296D01*
X19269525Y-11740296D02*
X19260001Y-11749820D01*
X19260001Y-11749820D02*
X19240954Y-11759344D01*
X19240954Y-11759344D02*
X19212382Y-11759344D01*
X19336192Y-11626010D02*
X19412382Y-11626010D01*
X19364763Y-11559344D02*
X19364763Y-11730772D01*
X19364763Y-11730772D02*
X19374287Y-11749820D01*
X19374287Y-11749820D02*
X19393334Y-11759344D01*
X19393334Y-11759344D02*
X19412382Y-11759344D01*
X19631430Y-11626010D02*
X19631430Y-11826010D01*
X19631430Y-11635534D02*
X19650477Y-11626010D01*
X19650477Y-11626010D02*
X19688573Y-11626010D01*
X19688573Y-11626010D02*
X19707620Y-11635534D01*
X19707620Y-11635534D02*
X19717144Y-11645058D01*
X19717144Y-11645058D02*
X19726668Y-11664106D01*
X19726668Y-11664106D02*
X19726668Y-11721248D01*
X19726668Y-11721248D02*
X19717144Y-11740296D01*
X19717144Y-11740296D02*
X19707620Y-11749820D01*
X19707620Y-11749820D02*
X19688573Y-11759344D01*
X19688573Y-11759344D02*
X19650477Y-11759344D01*
X19650477Y-11759344D02*
X19631430Y-11749820D01*
X19840954Y-11759344D02*
X19821906Y-11749820D01*
X19821906Y-11749820D02*
X19812382Y-11730772D01*
X19812382Y-11730772D02*
X19812382Y-11559344D01*
X20002858Y-11759344D02*
X20002858Y-11654582D01*
X20002858Y-11654582D02*
X19993335Y-11635534D01*
X19993335Y-11635534D02*
X19974287Y-11626010D01*
X19974287Y-11626010D02*
X19936192Y-11626010D01*
X19936192Y-11626010D02*
X19917144Y-11635534D01*
X20002858Y-11749820D02*
X19983811Y-11759344D01*
X19983811Y-11759344D02*
X19936192Y-11759344D01*
X19936192Y-11759344D02*
X19917144Y-11749820D01*
X19917144Y-11749820D02*
X19907620Y-11730772D01*
X19907620Y-11730772D02*
X19907620Y-11711725D01*
X19907620Y-11711725D02*
X19917144Y-11692677D01*
X19917144Y-11692677D02*
X19936192Y-11683153D01*
X19936192Y-11683153D02*
X19983811Y-11683153D01*
X19983811Y-11683153D02*
X20002858Y-11673629D01*
X20069525Y-11626010D02*
X20145715Y-11626010D01*
X20098096Y-11559344D02*
X20098096Y-11730772D01*
X20098096Y-11730772D02*
X20107620Y-11749820D01*
X20107620Y-11749820D02*
X20126668Y-11759344D01*
X20126668Y-11759344D02*
X20145715Y-11759344D01*
X20288573Y-11749820D02*
X20269525Y-11759344D01*
X20269525Y-11759344D02*
X20231430Y-11759344D01*
X20231430Y-11759344D02*
X20212382Y-11749820D01*
X20212382Y-11749820D02*
X20202858Y-11730772D01*
X20202858Y-11730772D02*
X20202858Y-11654582D01*
X20202858Y-11654582D02*
X20212382Y-11635534D01*
X20212382Y-11635534D02*
X20231430Y-11626010D01*
X20231430Y-11626010D02*
X20269525Y-11626010D01*
X20269525Y-11626010D02*
X20288573Y-11635534D01*
X20288573Y-11635534D02*
X20298096Y-11654582D01*
X20298096Y-11654582D02*
X20298096Y-11673629D01*
X20298096Y-11673629D02*
X20202858Y-11692677D01*
X20469525Y-11759344D02*
X20469525Y-11559344D01*
X20469525Y-11749820D02*
X20450477Y-11759344D01*
X20450477Y-11759344D02*
X20412382Y-11759344D01*
X20412382Y-11759344D02*
X20393335Y-11749820D01*
X20393335Y-11749820D02*
X20383811Y-11740296D01*
X20383811Y-11740296D02*
X20374287Y-11721248D01*
X20374287Y-11721248D02*
X20374287Y-11664106D01*
X20374287Y-11664106D02*
X20383811Y-11645058D01*
X20383811Y-11645058D02*
X20393335Y-11635534D01*
X20393335Y-11635534D02*
X20412382Y-11626010D01*
X20412382Y-11626010D02*
X20450477Y-11626010D01*
X20450477Y-11626010D02*
X20469525Y-11635534D01*
X20545716Y-11835534D02*
X20555239Y-11826010D01*
X20555239Y-11826010D02*
X20574287Y-11797439D01*
X20574287Y-11797439D02*
X20583811Y-11778391D01*
X20583811Y-11778391D02*
X20593335Y-11749820D01*
X20593335Y-11749820D02*
X20602858Y-11702201D01*
X20602858Y-11702201D02*
X20602858Y-11664106D01*
X20602858Y-11664106D02*
X20593335Y-11616487D01*
X20593335Y-11616487D02*
X20583811Y-11587915D01*
X20583811Y-11587915D02*
X20574287Y-11568868D01*
X20574287Y-11568868D02*
X20555239Y-11540296D01*
X20555239Y-11540296D02*
X20545716Y-11530772D01*
M02*
