%TF.GenerationSoftware,KiCad,Pcbnew,7.0.10*%
%TF.CreationDate,2024-07-12T16:17:24+02:00*%
%TF.ProjectId,MouthIO_v3,4d6f7574-6849-44f5-9f76-332e6b696361,rev?*%
%TF.SameCoordinates,Original*%
%TF.FileFunction,Soldermask,Top*%
%TF.FilePolarity,Negative*%
%FSLAX46Y46*%
G04 Gerber Fmt 4.6, Leading zero omitted, Abs format (unit mm)*
G04 Created by KiCad (PCBNEW 7.0.10) date 2024-07-12 16:17:24*
%MOMM*%
%LPD*%
G01*
G04 APERTURE LIST*
G04 Aperture macros list*
%AMRoundRect*
0 Rectangle with rounded corners*
0 $1 Rounding radius*
0 $2 $3 $4 $5 $6 $7 $8 $9 X,Y pos of 4 corners*
0 Add a 4 corners polygon primitive as box body*
4,1,4,$2,$3,$4,$5,$6,$7,$8,$9,$2,$3,0*
0 Add four circle primitives for the rounded corners*
1,1,$1+$1,$2,$3*
1,1,$1+$1,$4,$5*
1,1,$1+$1,$6,$7*
1,1,$1+$1,$8,$9*
0 Add four rect primitives between the rounded corners*
20,1,$1+$1,$2,$3,$4,$5,0*
20,1,$1+$1,$4,$5,$6,$7,0*
20,1,$1+$1,$6,$7,$8,$9,0*
20,1,$1+$1,$8,$9,$2,$3,0*%
G04 Aperture macros list end*
%ADD10RoundRect,0.200000X-0.550000X-0.300000X0.550000X-0.300000X0.550000X0.300000X-0.550000X0.300000X0*%
%ADD11R,0.254000X0.203200*%
%ADD12R,0.203200X0.254000*%
%ADD13RoundRect,0.050800X0.249200X0.299200X-0.249200X0.299200X-0.249200X-0.299200X0.249200X-0.299200X0*%
%ADD14RoundRect,0.050800X-0.249200X-0.299200X0.249200X-0.299200X0.249200X0.299200X-0.249200X0.299200X0*%
%ADD15RoundRect,0.050800X0.699200X0.449200X-0.699200X0.449200X-0.699200X-0.449200X0.699200X-0.449200X0*%
%ADD16RoundRect,0.054000X-0.216000X-0.266000X0.216000X-0.266000X0.216000X0.266000X-0.216000X0.266000X0*%
%ADD17RoundRect,0.200000X0.300000X-0.550000X0.300000X0.550000X-0.300000X0.550000X-0.300000X-0.550000X0*%
%ADD18RoundRect,0.200000X-0.300000X0.550000X-0.300000X-0.550000X0.300000X-0.550000X0.300000X0.550000X0*%
%ADD19RoundRect,0.050800X-0.529199X0.035355X0.035355X-0.529199X0.529199X-0.035355X-0.035355X0.529199X0*%
%ADD20RoundRect,0.050800X-0.199200X0.299200X-0.199200X-0.299200X0.199200X-0.299200X0.199200X0.299200X0*%
%ADD21RoundRect,0.140000X-0.170000X0.140000X-0.170000X-0.140000X0.170000X-0.140000X0.170000X0.140000X0*%
%ADD22RoundRect,0.050800X0.267569X0.000000X0.000000X0.267569X-0.267569X0.000000X0.000000X-0.267569X0*%
%ADD23RoundRect,0.050800X0.299200X-0.249200X0.299200X0.249200X-0.299200X0.249200X-0.299200X-0.249200X0*%
%ADD24RoundRect,0.050800X0.035355X-0.387777X0.387777X-0.035355X-0.035355X0.387777X-0.387777X0.035355X0*%
%ADD25RoundRect,0.135000X0.135000X0.185000X-0.135000X0.185000X-0.135000X-0.185000X0.135000X-0.185000X0*%
%ADD26RoundRect,0.050800X-0.149200X0.849200X-0.149200X-0.849200X0.149200X-0.849200X0.149200X0.849200X0*%
%ADD27R,0.228600X0.812800*%
%ADD28R,0.812800X0.228600*%
%ADD29R,0.711200X0.711200*%
%ADD30RoundRect,0.054000X-0.266000X0.216000X-0.266000X-0.216000X0.266000X-0.216000X0.266000X0.216000X0*%
%ADD31RoundRect,0.050800X-0.035355X0.387777X-0.387777X0.035355X0.035355X-0.387777X0.387777X-0.035355X0*%
%ADD32RoundRect,0.140000X0.170000X-0.140000X0.170000X0.140000X-0.170000X0.140000X-0.170000X-0.140000X0*%
%ADD33C,0.650000*%
%ADD34O,2.000000X1.000000*%
G04 APERTURE END LIST*
%TO.C,U2*%
G36*
X154931100Y-107408600D02*
G01*
X154931100Y-107478600D01*
X154451100Y-107478600D01*
X154451100Y-107228600D01*
X154751100Y-107228600D01*
X154931100Y-107408600D01*
G37*
G36*
X155751100Y-107478600D02*
G01*
X155271100Y-107478600D01*
X155271100Y-107408600D01*
X155451100Y-107228600D01*
X155751100Y-107228600D01*
X155751100Y-107478600D01*
G37*
G36*
X154931100Y-106598600D02*
G01*
X154751100Y-106778600D01*
X154451100Y-106778600D01*
X154451100Y-106528600D01*
X154931100Y-106528600D01*
X154931100Y-106598600D01*
G37*
G36*
X155751100Y-106778600D02*
G01*
X155451100Y-106778600D01*
X155271100Y-106598600D01*
X155271100Y-106528600D01*
X155751100Y-106528600D01*
X155751100Y-106778600D01*
G37*
%TO.C,ESP1*%
G36*
X146410307Y-102252955D02*
G01*
X146225328Y-102437934D01*
X145814075Y-102026680D01*
X145999054Y-101841701D01*
X146410307Y-102252955D01*
G37*
G36*
X146056754Y-102606508D02*
G01*
X145871775Y-102791487D01*
X145460522Y-102380234D01*
X145645501Y-102195255D01*
X146056754Y-102606508D01*
G37*
G36*
X145703201Y-102960061D02*
G01*
X145518222Y-103145041D01*
X145106968Y-102733787D01*
X145291947Y-102548808D01*
X145703201Y-102960061D01*
G37*
G36*
X145349647Y-103313615D02*
G01*
X145164668Y-103498594D01*
X144753415Y-103087341D01*
X144938394Y-102902361D01*
X145349647Y-103313615D01*
G37*
G36*
X144996094Y-103667168D02*
G01*
X144811115Y-103852147D01*
X144399861Y-103440894D01*
X144584841Y-103255915D01*
X144996094Y-103667168D01*
G37*
G36*
X144642541Y-104020722D02*
G01*
X144457561Y-104205701D01*
X144046308Y-103794447D01*
X144231287Y-103609468D01*
X144642541Y-104020722D01*
G37*
G36*
X144288987Y-104374275D02*
G01*
X144104008Y-104559254D01*
X143692755Y-104148001D01*
X143877734Y-103963022D01*
X144288987Y-104374275D01*
G37*
G36*
X143935434Y-104727828D02*
G01*
X143750455Y-104912807D01*
X143339201Y-104501554D01*
X143524180Y-104316575D01*
X143935434Y-104727828D01*
G37*
G36*
X147188125Y-102026680D02*
G01*
X146776872Y-102437934D01*
X146591893Y-102252955D01*
X147003146Y-101841701D01*
X147188125Y-102026680D01*
G37*
G36*
X143935434Y-105279372D02*
G01*
X143524180Y-105690625D01*
X143339201Y-105505646D01*
X143750455Y-105094393D01*
X143935434Y-105279372D01*
G37*
G36*
X147541678Y-102380234D02*
G01*
X147130425Y-102791487D01*
X146945446Y-102606508D01*
X147356699Y-102195255D01*
X147541678Y-102380234D01*
G37*
G36*
X144288987Y-105632925D02*
G01*
X143877734Y-106044178D01*
X143692755Y-105859199D01*
X144104008Y-105447946D01*
X144288987Y-105632925D01*
G37*
G36*
X147895232Y-102733787D02*
G01*
X147483978Y-103145041D01*
X147298999Y-102960061D01*
X147710253Y-102548808D01*
X147895232Y-102733787D01*
G37*
G36*
X144642541Y-105986478D02*
G01*
X144231287Y-106397732D01*
X144046308Y-106212753D01*
X144457561Y-105801499D01*
X144642541Y-105986478D01*
G37*
G36*
X148248785Y-103087341D02*
G01*
X147837532Y-103498594D01*
X147652553Y-103313615D01*
X148063806Y-102902361D01*
X148248785Y-103087341D01*
G37*
G36*
X144996094Y-106340032D02*
G01*
X144584841Y-106751285D01*
X144399861Y-106566306D01*
X144811115Y-106155053D01*
X144996094Y-106340032D01*
G37*
G36*
X148602339Y-103440894D02*
G01*
X148191085Y-103852147D01*
X148006106Y-103667168D01*
X148417359Y-103255915D01*
X148602339Y-103440894D01*
G37*
G36*
X145349647Y-106693585D02*
G01*
X144938394Y-107104839D01*
X144753415Y-106919859D01*
X145164668Y-106508606D01*
X145349647Y-106693585D01*
G37*
G36*
X148955892Y-103794447D02*
G01*
X148544639Y-104205701D01*
X148359659Y-104020722D01*
X148770913Y-103609468D01*
X148955892Y-103794447D01*
G37*
G36*
X145703201Y-107047139D02*
G01*
X145291947Y-107458392D01*
X145106968Y-107273413D01*
X145518222Y-106862159D01*
X145703201Y-107047139D01*
G37*
G36*
X149309445Y-104148001D02*
G01*
X148898192Y-104559254D01*
X148713213Y-104374275D01*
X149124466Y-103963022D01*
X149309445Y-104148001D01*
G37*
G36*
X146056754Y-107400692D02*
G01*
X145645501Y-107811945D01*
X145460522Y-107626966D01*
X145871775Y-107215713D01*
X146056754Y-107400692D01*
G37*
G36*
X149662999Y-104501554D02*
G01*
X149251745Y-104912807D01*
X149066766Y-104727828D01*
X149478020Y-104316575D01*
X149662999Y-104501554D01*
G37*
G36*
X146410307Y-107754245D02*
G01*
X145999054Y-108165499D01*
X145814075Y-107980520D01*
X146225328Y-107569266D01*
X146410307Y-107754245D01*
G37*
G36*
X149662999Y-105505646D02*
G01*
X149478020Y-105690625D01*
X149066766Y-105279372D01*
X149251745Y-105094393D01*
X149662999Y-105505646D01*
G37*
G36*
X149309445Y-105859199D02*
G01*
X149124466Y-106044178D01*
X148713213Y-105632925D01*
X148898192Y-105447946D01*
X149309445Y-105859199D01*
G37*
G36*
X148955892Y-106212753D02*
G01*
X148770913Y-106397732D01*
X148359659Y-105986478D01*
X148544639Y-105801499D01*
X148955892Y-106212753D01*
G37*
G36*
X148602339Y-106566306D02*
G01*
X148417359Y-106751285D01*
X148006106Y-106340032D01*
X148191085Y-106155053D01*
X148602339Y-106566306D01*
G37*
G36*
X148248785Y-106919859D02*
G01*
X148063806Y-107104839D01*
X147652553Y-106693585D01*
X147837532Y-106508606D01*
X148248785Y-106919859D01*
G37*
G36*
X147895232Y-107273413D02*
G01*
X147710253Y-107458392D01*
X147298999Y-107047139D01*
X147483978Y-106862159D01*
X147895232Y-107273413D01*
G37*
G36*
X147541678Y-107626966D02*
G01*
X147356699Y-107811945D01*
X146945446Y-107400692D01*
X147130425Y-107215713D01*
X147541678Y-107626966D01*
G37*
G36*
X147188125Y-107980520D02*
G01*
X147003146Y-108165499D01*
X146591893Y-107754245D01*
X146776872Y-107569266D01*
X147188125Y-107980520D01*
G37*
G36*
X148728486Y-105003600D02*
G01*
X146501100Y-107230986D01*
X144273714Y-105003600D01*
X146291480Y-102985833D01*
X146710720Y-102985833D01*
X148728486Y-105003600D01*
G37*
%TD*%
D10*
%TO.C,GPIO9*%
X144460000Y-109510000D03*
%TD*%
D11*
%TO.C,U1*%
X140496100Y-108588399D03*
X140496100Y-108188400D03*
X140496100Y-107788400D03*
X140496100Y-107388401D03*
D12*
X139950000Y-107442300D03*
D11*
X139403900Y-107388401D03*
X139403900Y-107788400D03*
X139403900Y-108188400D03*
X139403900Y-108588399D03*
D12*
X139950000Y-108534500D03*
%TD*%
D13*
%TO.C,C13*%
X142530000Y-109410000D03*
X141530000Y-109410000D03*
%TD*%
%TO.C,R3*%
X150501100Y-106903600D03*
X149501100Y-106903600D03*
%TD*%
D14*
%TO.C,R10*%
X143910000Y-108340000D03*
X144910000Y-108340000D03*
%TD*%
D13*
%TO.C,C2*%
X156701100Y-108103600D03*
X155701100Y-108103600D03*
%TD*%
D15*
%TO.C,BAT+0*%
X154001100Y-109403600D03*
%TD*%
D16*
%TO.C,R5*%
X139160000Y-106630000D03*
X140180000Y-106630000D03*
%TD*%
D17*
%TO.C,L_RX_1*%
X156700000Y-105830000D03*
%TD*%
D18*
%TO.C,CAPSENS_PAD_0*%
X138690000Y-103550000D03*
%TD*%
%TO.C,L_RX_2*%
X156680000Y-102210000D03*
%TD*%
D14*
%TO.C,R13*%
X151701100Y-106903600D03*
X152701100Y-106903600D03*
%TD*%
D13*
%TO.C,C9*%
X147610000Y-109690000D03*
X146610000Y-109690000D03*
%TD*%
D14*
%TO.C,R2*%
X141301100Y-105903600D03*
X142301100Y-105903600D03*
%TD*%
D13*
%TO.C,R4*%
X142510000Y-108400000D03*
X141510000Y-108400000D03*
%TD*%
%TO.C,R12*%
X151910000Y-105560000D03*
X150910000Y-105560000D03*
%TD*%
D19*
%TO.C,X1*%
X148467217Y-101747534D03*
X149457166Y-102737483D03*
X150234983Y-101959666D03*
X149245034Y-100969717D03*
%TD*%
D17*
%TO.C,CAPSENS_PAD_1*%
X138690000Y-105280000D03*
%TD*%
D13*
%TO.C,C8*%
X146951100Y-100403600D03*
X145951100Y-100403600D03*
%TD*%
D20*
%TO.C,D2*%
X150101100Y-109303600D03*
X150101100Y-108003600D03*
%TD*%
D21*
%TO.C,C4*%
X156800000Y-103550000D03*
X156800000Y-104510000D03*
%TD*%
D14*
%TO.C,R11*%
X141301100Y-104003600D03*
X142301100Y-104003600D03*
%TD*%
D22*
%TO.C,U2*%
X155101100Y-107003600D03*
%TD*%
D20*
%TO.C,D1*%
X149001100Y-109303600D03*
X149001100Y-108003600D03*
%TD*%
D23*
%TO.C,R/2*%
X151430000Y-102550000D03*
X151430000Y-101550000D03*
%TD*%
D24*
%TO.C,C21*%
X149947547Y-103707153D03*
X150654653Y-103000047D03*
%TD*%
D15*
%TO.C,BAT-0*%
X154001100Y-100603600D03*
%TD*%
D14*
%TO.C,C1*%
X153501100Y-108103600D03*
X154501100Y-108103600D03*
%TD*%
D25*
%TO.C,D4*%
X154500000Y-101690000D03*
X153480000Y-101690000D03*
%TD*%
D26*
%TO.C,RF0*%
X141600000Y-100920000D03*
X138500000Y-100920000D03*
%TD*%
D23*
%TO.C,R/1*%
X151480000Y-104680000D03*
X151480000Y-103680000D03*
%TD*%
D27*
%TO.C,U3*%
X155188301Y-102748300D03*
X154688300Y-102748300D03*
X154188300Y-102748300D03*
X153688299Y-102748300D03*
D28*
X153536600Y-103400000D03*
X153536600Y-103900000D03*
D27*
X153688299Y-104551700D03*
X154188300Y-104551700D03*
X154688300Y-104551700D03*
X155188301Y-104551700D03*
D28*
X155340000Y-103900000D03*
X155340000Y-103400000D03*
D29*
X154438300Y-103650000D03*
%TD*%
D14*
%TO.C,R1*%
X141490000Y-107420000D03*
X142490000Y-107420000D03*
%TD*%
D30*
%TO.C,R8*%
X139880000Y-103090000D03*
X139880000Y-104110000D03*
%TD*%
D14*
%TO.C,R7*%
X141301100Y-104903600D03*
X142301100Y-104903600D03*
%TD*%
D13*
%TO.C,C4*%
X154450000Y-105810000D03*
X153450000Y-105810000D03*
%TD*%
D16*
%TO.C,R6*%
X139200000Y-109660000D03*
X140220000Y-109660000D03*
%TD*%
D14*
%TO.C,C7*%
X141301100Y-103103600D03*
X142301100Y-103103600D03*
%TD*%
D30*
%TO.C,R9*%
X139880000Y-104730000D03*
X139880000Y-105750000D03*
%TD*%
D31*
%TO.C,C20*%
X148154653Y-100600047D03*
X147447547Y-101307153D03*
%TD*%
D32*
%TO.C,C3*%
X138520000Y-108540000D03*
X138520000Y-107580000D03*
%TD*%
D33*
%TO.C,USB-C0*%
X152401100Y-102113600D03*
X152401100Y-107893600D03*
D34*
X151901100Y-100683600D03*
X151901100Y-109323600D03*
X156051100Y-100683600D03*
X156051100Y-109323600D03*
%TD*%
M02*
