%TF.GenerationSoftware,KiCad,Pcbnew,7.0.10*%
%TF.CreationDate,2024-07-12T16:17:24+02:00*%
%TF.ProjectId,MouthIO_v3,4d6f7574-6849-44f5-9f76-332e6b696361,rev?*%
%TF.SameCoordinates,Original*%
%TF.FileFunction,Copper,L1,Top*%
%TF.FilePolarity,Positive*%
%FSLAX46Y46*%
G04 Gerber Fmt 4.6, Leading zero omitted, Abs format (unit mm)*
G04 Created by KiCad (PCBNEW 7.0.10) date 2024-07-12 16:17:24*
%MOMM*%
%LPD*%
G01*
G04 APERTURE LIST*
G04 Aperture macros list*
%AMRoundRect*
0 Rectangle with rounded corners*
0 $1 Rounding radius*
0 $2 $3 $4 $5 $6 $7 $8 $9 X,Y pos of 4 corners*
0 Add a 4 corners polygon primitive as box body*
4,1,4,$2,$3,$4,$5,$6,$7,$8,$9,$2,$3,0*
0 Add four circle primitives for the rounded corners*
1,1,$1+$1,$2,$3*
1,1,$1+$1,$4,$5*
1,1,$1+$1,$6,$7*
1,1,$1+$1,$8,$9*
0 Add four rect primitives between the rounded corners*
20,1,$1+$1,$2,$3,$4,$5,0*
20,1,$1+$1,$4,$5,$6,$7,0*
20,1,$1+$1,$6,$7,$8,$9,0*
20,1,$1+$1,$8,$9,$2,$3,0*%
G04 Aperture macros list end*
%TA.AperFunction,SMDPad,CuDef*%
%ADD10RoundRect,0.200000X-0.550000X-0.300000X0.550000X-0.300000X0.550000X0.300000X-0.550000X0.300000X0*%
%TD*%
%TA.AperFunction,SMDPad,CuDef*%
%ADD11R,0.254000X0.203200*%
%TD*%
%TA.AperFunction,SMDPad,CuDef*%
%ADD12R,0.203200X0.254000*%
%TD*%
%TA.AperFunction,SMDPad,CuDef*%
%ADD13RoundRect,0.050800X0.249200X0.299200X-0.249200X0.299200X-0.249200X-0.299200X0.249200X-0.299200X0*%
%TD*%
%TA.AperFunction,SMDPad,CuDef*%
%ADD14RoundRect,0.050800X-0.249200X-0.299200X0.249200X-0.299200X0.249200X0.299200X-0.249200X0.299200X0*%
%TD*%
%TA.AperFunction,SMDPad,CuDef*%
%ADD15RoundRect,0.050800X0.699200X0.449200X-0.699200X0.449200X-0.699200X-0.449200X0.699200X-0.449200X0*%
%TD*%
%TA.AperFunction,SMDPad,CuDef*%
%ADD16RoundRect,0.054000X-0.216000X-0.266000X0.216000X-0.266000X0.216000X0.266000X-0.216000X0.266000X0*%
%TD*%
%TA.AperFunction,SMDPad,CuDef*%
%ADD17RoundRect,0.200000X0.300000X-0.550000X0.300000X0.550000X-0.300000X0.550000X-0.300000X-0.550000X0*%
%TD*%
%TA.AperFunction,SMDPad,CuDef*%
%ADD18RoundRect,0.200000X-0.300000X0.550000X-0.300000X-0.550000X0.300000X-0.550000X0.300000X0.550000X0*%
%TD*%
%TA.AperFunction,SMDPad,CuDef*%
%ADD19RoundRect,0.050800X-0.529199X0.035355X0.035355X-0.529199X0.529199X-0.035355X-0.035355X0.529199X0*%
%TD*%
%TA.AperFunction,SMDPad,CuDef*%
%ADD20RoundRect,0.050800X-0.199200X0.299200X-0.199200X-0.299200X0.199200X-0.299200X0.199200X0.299200X0*%
%TD*%
%TA.AperFunction,SMDPad,CuDef*%
%ADD21RoundRect,0.140000X-0.170000X0.140000X-0.170000X-0.140000X0.170000X-0.140000X0.170000X0.140000X0*%
%TD*%
%TA.AperFunction,SMDPad,CuDef*%
%ADD22RoundRect,0.050800X0.267569X0.000000X0.000000X0.267569X-0.267569X0.000000X0.000000X-0.267569X0*%
%TD*%
%TA.AperFunction,SMDPad,CuDef*%
%ADD23RoundRect,0.050800X0.099200X-0.074200X0.099200X0.074200X-0.099200X0.074200X-0.099200X-0.074200X0*%
%TD*%
%TA.AperFunction,SMDPad,CuDef*%
%ADD24RoundRect,0.050800X0.299200X-0.249200X0.299200X0.249200X-0.299200X0.249200X-0.299200X-0.249200X0*%
%TD*%
%TA.AperFunction,SMDPad,CuDef*%
%ADD25RoundRect,0.050800X0.035355X-0.387777X0.387777X-0.035355X-0.035355X0.387777X-0.387777X0.035355X0*%
%TD*%
%TA.AperFunction,SMDPad,CuDef*%
%ADD26RoundRect,0.135000X0.135000X0.185000X-0.135000X0.185000X-0.135000X-0.185000X0.135000X-0.185000X0*%
%TD*%
%TA.AperFunction,SMDPad,CuDef*%
%ADD27RoundRect,0.050800X-0.149200X0.849200X-0.149200X-0.849200X0.149200X-0.849200X0.149200X0.849200X0*%
%TD*%
%TA.AperFunction,SMDPad,CuDef*%
%ADD28R,0.228600X0.812800*%
%TD*%
%TA.AperFunction,SMDPad,CuDef*%
%ADD29R,0.812800X0.228600*%
%TD*%
%TA.AperFunction,SMDPad,CuDef*%
%ADD30R,0.711200X0.711200*%
%TD*%
%TA.AperFunction,SMDPad,CuDef*%
%ADD31RoundRect,0.054000X-0.266000X0.216000X-0.266000X-0.216000X0.266000X-0.216000X0.266000X0.216000X0*%
%TD*%
%TA.AperFunction,SMDPad,CuDef*%
%ADD32RoundRect,0.050800X-0.237517X0.114905X0.114905X-0.237517X0.237517X-0.114905X-0.114905X0.237517X0*%
%TD*%
%TA.AperFunction,SMDPad,CuDef*%
%ADD33RoundRect,0.050800X-0.114905X-0.237517X0.237517X0.114905X0.114905X0.237517X-0.237517X-0.114905X0*%
%TD*%
%TA.AperFunction,SMDPad,CuDef*%
%ADD34RoundRect,0.050800X0.237517X-0.114905X-0.114905X0.237517X-0.237517X0.114905X0.114905X-0.237517X0*%
%TD*%
%TA.AperFunction,SMDPad,CuDef*%
%ADD35RoundRect,0.050800X0.114905X0.237517X-0.237517X-0.114905X-0.114905X-0.237517X0.237517X0.114905X0*%
%TD*%
%TA.AperFunction,SMDPad,CuDef*%
%ADD36RoundRect,0.320000X-1.810193X0.000000X0.000000X-1.810193X1.810193X0.000000X0.000000X1.810193X0*%
%TD*%
%TA.AperFunction,SMDPad,CuDef*%
%ADD37RoundRect,0.050800X-0.035355X0.387777X-0.387777X0.035355X0.035355X-0.387777X0.387777X-0.035355X0*%
%TD*%
%TA.AperFunction,SMDPad,CuDef*%
%ADD38RoundRect,0.140000X0.170000X-0.140000X0.170000X0.140000X-0.170000X0.140000X-0.170000X-0.140000X0*%
%TD*%
%TA.AperFunction,ComponentPad*%
%ADD39O,2.000000X1.000000*%
%TD*%
%TA.AperFunction,ViaPad*%
%ADD40C,0.504800*%
%TD*%
%TA.AperFunction,Conductor*%
%ADD41C,0.300000*%
%TD*%
%TA.AperFunction,Conductor*%
%ADD42C,0.250000*%
%TD*%
%TA.AperFunction,Conductor*%
%ADD43C,0.500000*%
%TD*%
%TA.AperFunction,Conductor*%
%ADD44C,0.200000*%
%TD*%
%TA.AperFunction,Conductor*%
%ADD45C,0.150000*%
%TD*%
%TA.AperFunction,Conductor*%
%ADD46C,0.400000*%
%TD*%
G04 APERTURE END LIST*
%TA.AperFunction,EtchedComponent*%
%TO.C,U2*%
G36*
X154931100Y-107408600D02*
G01*
X154931100Y-107478600D01*
X154451100Y-107478600D01*
X154451100Y-107228600D01*
X154751100Y-107228600D01*
X154931100Y-107408600D01*
G37*
%TD.AperFunction*%
%TA.AperFunction,EtchedComponent*%
G36*
X155751100Y-107478600D02*
G01*
X155271100Y-107478600D01*
X155271100Y-107408600D01*
X155451100Y-107228600D01*
X155751100Y-107228600D01*
X155751100Y-107478600D01*
G37*
%TD.AperFunction*%
%TA.AperFunction,EtchedComponent*%
G36*
X154931100Y-106598600D02*
G01*
X154751100Y-106778600D01*
X154451100Y-106778600D01*
X154451100Y-106528600D01*
X154931100Y-106528600D01*
X154931100Y-106598600D01*
G37*
%TD.AperFunction*%
%TA.AperFunction,EtchedComponent*%
G36*
X155751100Y-106778600D02*
G01*
X155451100Y-106778600D01*
X155271100Y-106598600D01*
X155271100Y-106528600D01*
X155751100Y-106528600D01*
X155751100Y-106778600D01*
G37*
%TD.AperFunction*%
%TD*%
D10*
%TO.P,GPIO9,1,S*%
%TO.N,/GPIO9_STRP_SDA*%
X144460000Y-109510000D03*
%TD*%
D11*
%TO.P,U1,1,DOUT_A1*%
%TO.N,GND*%
X140496100Y-108588399D03*
%TO.P,U1,2,DIN_SDA*%
%TO.N,/GPIO9_STRP_SDA*%
X140496100Y-108188400D03*
%TO.P,U1,3,NC*%
%TO.N,unconnected-(U1-NC-Pad3)*%
X140496100Y-107788400D03*
%TO.P,U1,4,VPP*%
%TO.N,unconnected-(U1-VPP-Pad4)*%
X140496100Y-107388401D03*
D12*
%TO.P,U1,5,INTN*%
%TO.N,unconnected-(U1-INTN-Pad5)*%
X139950000Y-107442300D03*
D11*
%TO.P,U1,6,VDDIO*%
%TO.N,+3V3*%
X139403900Y-107388401D03*
%TO.P,U1,7,VDD*%
X139403900Y-107788400D03*
%TO.P,U1,8,GND*%
%TO.N,GND*%
X139403900Y-108188400D03*
%TO.P,U1,9,CSN*%
%TO.N,+3V3*%
X139403900Y-108588399D03*
D12*
%TO.P,U1,10,SCK_SCL*%
%TO.N,/GPIO10_SCL*%
X139950000Y-108534500D03*
%TD*%
D13*
%TO.P,C13,P$1,1*%
%TO.N,GND*%
X142530000Y-109410000D03*
%TO.P,C13,P$2,2*%
%TO.N,/GPIO5_BUTTON*%
X141530000Y-109410000D03*
%TD*%
%TO.P,R3,1,1*%
%TO.N,GND*%
X150501100Y-106903600D03*
%TO.P,R3,2,2*%
%TO.N,/EN_LDO*%
X149501100Y-106903600D03*
%TD*%
D14*
%TO.P,R10,1,1*%
%TO.N,+3V3*%
X143910000Y-108340000D03*
%TO.P,R10,2,2*%
%TO.N,/GPIO8_STRP*%
X144910000Y-108340000D03*
%TD*%
D13*
%TO.P,C2,P$1,1*%
%TO.N,GND*%
X156701100Y-108103600D03*
%TO.P,C2,P$2,2*%
%TO.N,+3V3*%
X155701100Y-108103600D03*
%TD*%
D15*
%TO.P,BAT+0,1,S*%
%TO.N,+VBAT*%
X154001100Y-109403600D03*
%TD*%
D16*
%TO.P,R5,1,1*%
%TO.N,+3V3*%
X139160000Y-106630000D03*
%TO.P,R5,2,2*%
%TO.N,/GPIO9_STRP_SDA*%
X140180000Y-106630000D03*
%TD*%
D17*
%TO.P,L_RX_1,1,S*%
%TO.N,Net-(L_RX_1-S)*%
X156700000Y-105830000D03*
%TD*%
D18*
%TO.P,CAPSENS_PAD_0,1,S*%
%TO.N,/GPIO0_CS0*%
X138690000Y-103550000D03*
%TD*%
%TO.P,L_RX_2,1,S*%
%TO.N,GND*%
X156680000Y-102210000D03*
%TD*%
D14*
%TO.P,R13,1,1*%
%TO.N,Net-(USB-C0-CC2)*%
X151701100Y-106903600D03*
%TO.P,R13,2,2*%
%TO.N,GND*%
X152701100Y-106903600D03*
%TD*%
D13*
%TO.P,C9,P$1,1*%
%TO.N,GND*%
X147610000Y-109690000D03*
%TO.P,C9,P$2,2*%
%TO.N,+3V3*%
X146610000Y-109690000D03*
%TD*%
D14*
%TO.P,R2,1,1*%
%TO.N,Net-(D2-PadA)*%
X141301100Y-105903600D03*
%TO.P,R2,2,2*%
%TO.N,/GPIO3_LATCH*%
X142301100Y-105903600D03*
%TD*%
D13*
%TO.P,R4,1,1*%
%TO.N,GND*%
X142510000Y-108400000D03*
%TO.P,R4,2,2*%
%TO.N,/GPIO5_BUTTON*%
X141510000Y-108400000D03*
%TD*%
%TO.P,R12,1,1*%
%TO.N,Net-(USB-C0-CC1)*%
X151910000Y-105560000D03*
%TO.P,R12,2,2*%
%TO.N,GND*%
X150910000Y-105560000D03*
%TD*%
D19*
%TO.P,X1,P1,1*%
%TO.N,Net-(C20-2)*%
X148467217Y-101747534D03*
%TO.P,X1,P2,G*%
%TO.N,GND*%
X149457166Y-102737483D03*
%TO.P,X1,P3,2*%
%TO.N,Net-(C21-2)*%
X150234983Y-101959666D03*
%TO.P,X1,P4,G*%
%TO.N,GND*%
X149245034Y-100969717D03*
%TD*%
D17*
%TO.P,CAPSENS_PAD_1,1,S*%
%TO.N,/GPIO1_CS1*%
X138690000Y-105280000D03*
%TD*%
D13*
%TO.P,C8,P$1,1*%
%TO.N,GND*%
X146951100Y-100403600D03*
%TO.P,C8,P$2,2*%
%TO.N,+3V3*%
X145951100Y-100403600D03*
%TD*%
D20*
%TO.P,D2,A,A*%
%TO.N,Net-(D2-PadA)*%
X150101100Y-109303600D03*
%TO.P,D2,C,C*%
%TO.N,/EN_LDO*%
X150101100Y-108003600D03*
%TD*%
D21*
%TO.P,C4,1,1*%
%TO.N,GND*%
X156800000Y-103550000D03*
%TO.P,C4,2,2*%
%TO.N,Net-(L_RX_1-S)*%
X156800000Y-104510000D03*
%TD*%
D14*
%TO.P,R11,1,1*%
%TO.N,+3V3*%
X141301100Y-104003600D03*
%TO.P,R11,2,2*%
%TO.N,/GPIO2_STRP*%
X142301100Y-104003600D03*
%TD*%
D22*
%TO.P,U2,EXP,GND*%
%TO.N,GND*%
X155101100Y-107003600D03*
D23*
%TO.P,U2,P1,VOUT*%
%TO.N,+3V3*%
X155601100Y-107353600D03*
%TO.P,U2,P2,GND*%
%TO.N,GND*%
X155601100Y-106653600D03*
%TO.P,U2,P3,EN*%
%TO.N,/EN_LDO*%
X154601100Y-106653600D03*
%TO.P,U2,P4,VIN*%
%TO.N,+VBAT*%
X154601100Y-107353600D03*
%TD*%
D20*
%TO.P,D1,A,A*%
%TO.N,/GPIO5_BUTTON*%
X149001100Y-109303600D03*
%TO.P,D1,C,C*%
%TO.N,/EN_LDO*%
X149001100Y-108003600D03*
%TD*%
D24*
%TO.P,R/2,1,1*%
%TO.N,/GPIO4_ADC*%
X151430000Y-102550000D03*
%TO.P,R/2,2,2*%
%TO.N,GND*%
X151430000Y-101550000D03*
%TD*%
D25*
%TO.P,C21,P$1,1*%
%TO.N,GND*%
X149947547Y-103707153D03*
%TO.P,C21,P$2,2*%
%TO.N,Net-(C21-2)*%
X150654653Y-103000047D03*
%TD*%
D15*
%TO.P,BAT-0,1,S*%
%TO.N,GND*%
X154001100Y-100603600D03*
%TD*%
D14*
%TO.P,C1,P$1,1*%
%TO.N,GND*%
X153501100Y-108103600D03*
%TO.P,C1,P$2,2*%
%TO.N,+VBAT*%
X154501100Y-108103600D03*
%TD*%
D26*
%TO.P,D4,1,K*%
%TO.N,Net-(D4-K)*%
X154500000Y-101690000D03*
%TO.P,D4,2,A*%
%TO.N,+3V3*%
X153480000Y-101690000D03*
%TD*%
D27*
%TO.P,RF0,P1,ANT*%
%TO.N,Net-(ESP1-LNA_IN)*%
X141600000Y-100920000D03*
%TO.P,RF0,P2,GND*%
%TO.N,unconnected-(RF0-GND-PadP2)*%
X138500000Y-100920000D03*
%TD*%
D24*
%TO.P,R/1,1,1*%
%TO.N,+VBAT*%
X151480000Y-104680000D03*
%TO.P,R/1,2,2*%
%TO.N,/GPIO4_ADC*%
X151480000Y-103680000D03*
%TD*%
D28*
%TO.P,U3,1,VCC*%
%TO.N,+3V3*%
X155188301Y-102748300D03*
%TO.P,U3,2,CHRG*%
%TO.N,Net-(D4-K)*%
X154688300Y-102748300D03*
%TO.P,U3,3,PRECHG*%
%TO.N,+3V3*%
X154188300Y-102748300D03*
%TO.P,U3,4,VSEL1*%
X153688299Y-102748300D03*
D29*
%TO.P,U3,5,VSEL2*%
X153536600Y-103400000D03*
%TO.P,U3,6,ISEL1*%
X153536600Y-103900000D03*
D28*
%TO.P,U3,7,ISEL2*%
%TO.N,Net-(U3-ISEL2)*%
X153688299Y-104551700D03*
%TO.P,U3,8,LBSEL*%
%TO.N,+3V3*%
X154188300Y-104551700D03*
%TO.P,U3,9,NTC*%
X154688300Y-104551700D03*
%TO.P,U3,10,BAT*%
%TO.N,+VBAT*%
X155188301Y-104551700D03*
D29*
%TO.P,U3,11,ACIN*%
%TO.N,Net-(L_RX_1-S)*%
X155340000Y-103900000D03*
%TO.P,U3,12,DCIN*%
%TO.N,GND*%
X155340000Y-103400000D03*
D30*
%TO.P,U3,13,GND*%
X154438300Y-103650000D03*
%TD*%
D14*
%TO.P,R1,1,1*%
%TO.N,/GPIO5_BUTTON*%
X141490000Y-107420000D03*
%TO.P,R1,2,2*%
%TO.N,Net-(R1-Pad2)*%
X142490000Y-107420000D03*
%TD*%
D31*
%TO.P,R8,1,1*%
%TO.N,/GPIO0_CS0*%
X139880000Y-103090000D03*
%TO.P,R8,2,2*%
%TO.N,/GPIO7_CSEND*%
X139880000Y-104110000D03*
%TD*%
D14*
%TO.P,R7,1,1*%
%TO.N,+3V3*%
X141301100Y-104903600D03*
%TO.P,R7,2,2*%
%TO.N,/EN*%
X142301100Y-104903600D03*
%TD*%
D13*
%TO.P,C4,P$1,1*%
%TO.N,GND*%
X154450000Y-105810000D03*
%TO.P,C4,P$2,2*%
%TO.N,+VBAT*%
X153450000Y-105810000D03*
%TD*%
D16*
%TO.P,R6,1,1*%
%TO.N,+3V3*%
X139200000Y-109660000D03*
%TO.P,R6,2,2*%
%TO.N,/GPIO10_SCL*%
X140220000Y-109660000D03*
%TD*%
D14*
%TO.P,C7,P$1,1*%
%TO.N,GND*%
X141301100Y-103103600D03*
%TO.P,C7,P$2,2*%
%TO.N,+3V3*%
X142301100Y-103103600D03*
%TD*%
D31*
%TO.P,R9,1,1*%
%TO.N,/GPIO7_CSEND*%
X139880000Y-104730000D03*
%TO.P,R9,2,2*%
%TO.N,/GPIO1_CS1*%
X139880000Y-105750000D03*
%TD*%
D32*
%TO.P,ESP1,1,LNA_IN*%
%TO.N,Net-(ESP1-LNA_IN)*%
X146112191Y-102139818D03*
%TO.P,ESP1,2,VDD3P3*%
%TO.N,+3V3*%
X145758638Y-102493371D03*
%TO.P,ESP1,3,VDD3P3_1*%
X145405084Y-102846924D03*
%TO.P,ESP1,4,XTAL_32K_P*%
%TO.N,/GPIO0_CS0*%
X145051531Y-103200478D03*
%TO.P,ESP1,5,XTAL_32K_N*%
%TO.N,/GPIO1_CS1*%
X144697978Y-103554031D03*
%TO.P,ESP1,6,GPIO2*%
%TO.N,/GPIO2_STRP*%
X144344424Y-103907584D03*
%TO.P,ESP1,7,CHIP_EN*%
%TO.N,/EN*%
X143990871Y-104261138D03*
%TO.P,ESP1,8,GPIO3*%
%TO.N,/GPIO3_LATCH*%
X143637318Y-104614691D03*
D33*
%TO.P,ESP1,9,MTMS*%
%TO.N,/GPIO4_ADC*%
X143637318Y-105392509D03*
%TO.P,ESP1,10,MTDI*%
%TO.N,/GPIO5_BUTTON*%
X143990871Y-105746062D03*
%TO.P,ESP1,11,VDD3P3_RTC*%
%TO.N,+3V3*%
X144344424Y-106099616D03*
%TO.P,ESP1,12,MTCK*%
%TO.N,/GPIO6_DIN*%
X144697978Y-106453169D03*
%TO.P,ESP1,13,MTDO*%
%TO.N,/GPIO7_CSEND*%
X145051531Y-106806722D03*
%TO.P,ESP1,14,GPIO8*%
%TO.N,/GPIO8_STRP*%
X145405084Y-107160276D03*
%TO.P,ESP1,15,GPIO9*%
%TO.N,/GPIO9_STRP_SDA*%
X145758638Y-107513829D03*
%TO.P,ESP1,16,GPIO10*%
%TO.N,/GPIO10_SCL*%
X146112191Y-107867382D03*
D34*
%TO.P,ESP1,17,VDD3P3_CPU*%
%TO.N,+3V3*%
X146890009Y-107867382D03*
%TO.P,ESP1,18,VDD_SPI*%
%TO.N,unconnected-(ESP1-VDD_SPI-Pad18)*%
X147243562Y-107513829D03*
%TO.P,ESP1,19,SPIHD*%
%TO.N,unconnected-(ESP1-SPIHD-Pad19)*%
X147597116Y-107160276D03*
%TO.P,ESP1,20,SPIWP*%
%TO.N,unconnected-(ESP1-SPIWP-Pad20)*%
X147950669Y-106806722D03*
%TO.P,ESP1,21,SPICS0*%
%TO.N,unconnected-(ESP1-SPICS0-Pad21)*%
X148304222Y-106453169D03*
%TO.P,ESP1,22,SPICLK*%
%TO.N,unconnected-(ESP1-SPICLK-Pad22)*%
X148657776Y-106099616D03*
%TO.P,ESP1,23,SPID*%
%TO.N,unconnected-(ESP1-SPID-Pad23)*%
X149011329Y-105746062D03*
%TO.P,ESP1,24,SPIQ*%
%TO.N,unconnected-(ESP1-SPIQ-Pad24)*%
X149364882Y-105392509D03*
D35*
%TO.P,ESP1,25,GPIO18*%
%TO.N,/GPIO18_DM*%
X149364882Y-104614691D03*
%TO.P,ESP1,26,GPIO19*%
%TO.N,/GPIO19_DP*%
X149011329Y-104261138D03*
%TO.P,ESP1,27,U0RXD*%
%TO.N,/RX*%
X148657776Y-103907584D03*
%TO.P,ESP1,28,U0TXD*%
%TO.N,/TX*%
X148304222Y-103554031D03*
%TO.P,ESP1,29,XTAL_N*%
%TO.N,Net-(C21-2)*%
X147950669Y-103200478D03*
%TO.P,ESP1,30,XTAL_P*%
%TO.N,Net-(C20-2)*%
X147597116Y-102846924D03*
%TO.P,ESP1,31,VDDA*%
%TO.N,+3V3*%
X147243562Y-102493371D03*
%TO.P,ESP1,32,VDDA_1*%
X146890009Y-102139818D03*
D36*
%TO.P,ESP1,EXP,EXP*%
%TO.N,GND*%
X146501100Y-105003600D03*
%TD*%
D37*
%TO.P,C20,P$1,1*%
%TO.N,GND*%
X148154653Y-100600047D03*
%TO.P,C20,P$2,2*%
%TO.N,Net-(C20-2)*%
X147447547Y-101307153D03*
%TD*%
D38*
%TO.P,C3,1,1*%
%TO.N,GND*%
X138520000Y-108540000D03*
%TO.P,C3,2,2*%
%TO.N,+3V3*%
X138520000Y-107580000D03*
%TD*%
D39*
%TO.P,USB-C0,S1,SHLD*%
%TO.N,GND*%
X151901100Y-100683600D03*
%TO.P,USB-C0,S2,SHLD*%
X151901100Y-109323600D03*
%TO.P,USB-C0,S3,SHLD*%
X156051100Y-100683600D03*
%TO.P,USB-C0,S4,SHLD*%
X156051100Y-109323600D03*
%TD*%
D40*
%TO.N,GND*%
X148330000Y-109870000D03*
X148921100Y-103293600D03*
X146501100Y-105003600D03*
X143863120Y-101126942D03*
X140440000Y-102303600D03*
X143237600Y-109227600D03*
X141020000Y-102303600D03*
X142120832Y-102117974D03*
X146501100Y-103803600D03*
X139235745Y-102290884D03*
X145251100Y-100303600D03*
X146501100Y-106343600D03*
X143340000Y-101127400D03*
X145301100Y-105003600D03*
X139837692Y-102314308D03*
X142490000Y-101760000D03*
X142875000Y-101375000D03*
X138532409Y-109162963D03*
X155719063Y-106076958D03*
X140790000Y-109000000D03*
X141580000Y-102303600D03*
X145993538Y-101206000D03*
X138600000Y-102300000D03*
X147701100Y-105003600D03*
%TO.N,+3V3*%
X152710287Y-103704942D03*
X156840000Y-107300000D03*
X147431100Y-108323600D03*
X143648700Y-101832203D03*
X143545803Y-107614754D03*
X139415665Y-109063902D03*
X155244347Y-105556005D03*
X146691100Y-101453600D03*
X138550000Y-106620000D03*
X155460000Y-101700000D03*
%TO.N,/EN_LDO*%
X153932400Y-106557600D03*
X148831928Y-106904431D03*
%TO.N,Net-(D2-PadA)*%
X149551475Y-108502012D03*
X141461437Y-106617600D03*
%TO.N,+VBAT*%
X153830000Y-107200000D03*
X150501100Y-101162200D03*
X155845189Y-104936042D03*
%TO.N,Net-(R1-Pad2)*%
X143061549Y-107102656D03*
%TO.N,Net-(USB-C0-CC1)*%
X152690000Y-106070000D03*
%TO.N,Net-(USB-C0-CC2)*%
X149922593Y-106130615D03*
%TO.N,/GPIO19_DP*%
X150101100Y-104603600D03*
%TO.N,/GPIO18_DM*%
X149951100Y-105253600D03*
%TO.N,/GPIO6_DIN*%
X144200816Y-107043609D03*
%TO.N,/GPIO5_BUTTON*%
X143256000Y-106426000D03*
X149525590Y-109750299D03*
%TO.N,/GPIO4_ADC*%
X152232217Y-102975112D03*
X143151100Y-105853600D03*
%TO.N,/GPIO0_CS0*%
X143708033Y-102690000D03*
X140540000Y-103090000D03*
%TO.N,/GPIO1_CS1*%
X143213279Y-103191961D03*
X140556181Y-105289737D03*
%TO.N,/GPIO10_SCL*%
X140777573Y-109704693D03*
X146427859Y-108948437D03*
%TO.N,/GPIO9_STRP_SDA*%
X145648595Y-109024246D03*
X140755600Y-106609878D03*
%TO.N,/GPIO7_CSEND*%
X140568809Y-104461155D03*
X144520000Y-107570000D03*
%TO.N,Net-(U3-ISEL2)*%
X152981709Y-104529067D03*
X148351294Y-107458514D03*
%TD*%
D41*
%TO.N,GND*%
X148214700Y-100540000D02*
X148154653Y-100600047D01*
X151757500Y-100540000D02*
X148214700Y-100540000D01*
X151901100Y-100683600D02*
X151757500Y-100540000D01*
D42*
%TO.N,/GPIO1_CS1*%
X138890000Y-105650000D02*
X138700000Y-105460000D01*
X140195918Y-105650000D02*
X138890000Y-105650000D01*
X140556181Y-105289737D02*
X140195918Y-105650000D01*
%TO.N,/GPIO9_STRP_SDA*%
X140735478Y-106630000D02*
X140180000Y-106630000D01*
X140755600Y-106609878D02*
X140735478Y-106630000D01*
%TO.N,+3V3*%
X138520000Y-107580000D02*
X138520000Y-106650000D01*
X138520000Y-106650000D02*
X138560000Y-106610000D01*
D43*
%TO.N,GND*%
X142580000Y-108470000D02*
X142510000Y-108400000D01*
X142580000Y-109403600D02*
X142580000Y-108470000D01*
X143061600Y-109403600D02*
X142580000Y-109403600D01*
X143237600Y-109227600D02*
X143061600Y-109403600D01*
D41*
X153227600Y-107430100D02*
X153227600Y-107830100D01*
X153227600Y-107830100D02*
X153501100Y-108103600D01*
X152701100Y-106903600D02*
X153227600Y-107430100D01*
X154802400Y-106162400D02*
X154450000Y-105810000D01*
X155542300Y-106162400D02*
X154802400Y-106162400D01*
X155601100Y-106103600D02*
X155542300Y-106162400D01*
D44*
%TO.N,/EN_LDO*%
X153932400Y-106557600D02*
X154028400Y-106653600D01*
D41*
%TO.N,+3V3*%
X156780000Y-107360000D02*
X156840000Y-107300000D01*
X155645000Y-107360000D02*
X156780000Y-107360000D01*
%TO.N,/EN_LDO*%
X154015000Y-106640000D02*
X154665000Y-106640000D01*
D43*
%TO.N,GND*%
X142120832Y-102117974D02*
X142132026Y-102117974D01*
D41*
X141301100Y-103103600D02*
X141201100Y-103003600D01*
X155451100Y-106653600D02*
X155601100Y-106653600D01*
D42*
X155790000Y-103400000D02*
X155910000Y-103400000D01*
D43*
X140440000Y-102303600D02*
X141020000Y-102303600D01*
D42*
X140522701Y-108615000D02*
X140496100Y-108615000D01*
D43*
X138600000Y-102300000D02*
X138950000Y-102300000D01*
X155971100Y-100603600D02*
X156051100Y-100683600D01*
D42*
X155910000Y-103400000D02*
X156680000Y-102630000D01*
D41*
X148921100Y-103273550D02*
X148921100Y-103293600D01*
D43*
X143122600Y-101127400D02*
X143340000Y-101127400D01*
X156701100Y-108673600D02*
X156701100Y-108103600D01*
D41*
X149947543Y-103227863D02*
X149947543Y-103707157D01*
D42*
X156650000Y-103400000D02*
X155627601Y-103400000D01*
X147610000Y-109690000D02*
X148270458Y-109690000D01*
X150805000Y-105455000D02*
X150910000Y-105560000D01*
X156680000Y-102630000D02*
X156680000Y-102210000D01*
D41*
X146951100Y-100403600D02*
X147958206Y-100403600D01*
D43*
X154314374Y-100683600D02*
X156051100Y-100683600D01*
D41*
X155601100Y-106653600D02*
X155601100Y-106103600D01*
D45*
X138520000Y-108540000D02*
X138871600Y-108188400D01*
X138871600Y-108188400D02*
X139403900Y-108188400D01*
D41*
X141301100Y-102582500D02*
X141580000Y-102303600D01*
D42*
X140790000Y-109000000D02*
X140790000Y-108882299D01*
D41*
X149457165Y-102737485D02*
X149947543Y-103227863D01*
D42*
X155628500Y-106076200D02*
X155601100Y-106103600D01*
X151460000Y-101124700D02*
X151901100Y-100683600D01*
D41*
X155101100Y-107003600D02*
X155451100Y-106653600D01*
D43*
X143340000Y-101127400D02*
X143862662Y-101127400D01*
D44*
X140078699Y-102326001D02*
X140101100Y-102303600D01*
X140101100Y-102303600D02*
X140440000Y-102303600D01*
D43*
X141020000Y-102303600D02*
X141580000Y-102303600D01*
D42*
X156680000Y-101312500D02*
X156051100Y-100683600D01*
X138532409Y-109162963D02*
X138520000Y-109150554D01*
D43*
X150501100Y-106903600D02*
X150901100Y-107303600D01*
X139480000Y-102310000D02*
X140433600Y-102310000D01*
D42*
X150805000Y-104140342D02*
X150805000Y-105455000D01*
X149947547Y-103707153D02*
X150371811Y-103707153D01*
D43*
X151981100Y-100603600D02*
X154001100Y-100603600D01*
D45*
X154828600Y-103430000D02*
X154930000Y-103430000D01*
D43*
X142875000Y-101375000D02*
X143122600Y-101127400D01*
X152281100Y-109323600D02*
X151901100Y-109323600D01*
D45*
X154608600Y-103650000D02*
X154828600Y-103430000D01*
D43*
X142132026Y-102117974D02*
X142490000Y-101760000D01*
X140433600Y-102310000D02*
X140440000Y-102303600D01*
D42*
X138520000Y-109150554D02*
X138520000Y-108540000D01*
X156800000Y-103550000D02*
X156650000Y-103400000D01*
X140790000Y-108882299D02*
X140522701Y-108615000D01*
D43*
X142490000Y-101760000D02*
X142875000Y-101375000D01*
X143862662Y-101127400D02*
X143863120Y-101126942D01*
D42*
X154438300Y-103650000D02*
X154608600Y-103650000D01*
D43*
X138870000Y-102300000D02*
X139470000Y-102300000D01*
D42*
X155744249Y-106076200D02*
X155628500Y-106076200D01*
X150371811Y-103707153D02*
X150805000Y-104140342D01*
D43*
X141580000Y-102303600D02*
X141935206Y-102303600D01*
X156051100Y-109323600D02*
X156701100Y-108673600D01*
D41*
X147958206Y-100403600D02*
X148154653Y-100600047D01*
D42*
X156680000Y-102210000D02*
X156680000Y-101312500D01*
X151460000Y-101580000D02*
X151460000Y-101124700D01*
D43*
X150901100Y-107303600D02*
X150901100Y-108323600D01*
D41*
X149457165Y-102737485D02*
X148921100Y-103273550D01*
D43*
X141935206Y-102303600D02*
X142120832Y-102117974D01*
D42*
X148270458Y-109690000D02*
X148315956Y-109735498D01*
D43*
X150901100Y-108323600D02*
X151901100Y-109323600D01*
D46*
X153501100Y-108103600D02*
X152281100Y-109323600D01*
D43*
X151901100Y-100683600D02*
X151981100Y-100603600D01*
X156783500Y-108021200D02*
X156701100Y-108103600D01*
D41*
X141301100Y-103103600D02*
X141301100Y-102582500D01*
D42*
%TO.N,+3V3*%
X147431100Y-108323600D02*
X147431100Y-108787630D01*
X155147275Y-105556005D02*
X154688300Y-105097030D01*
X139200000Y-109660000D02*
X139064800Y-109660000D01*
X153480000Y-101690000D02*
X153480000Y-102540001D01*
D44*
X143545803Y-107614754D02*
X143545803Y-107885803D01*
D42*
X153590000Y-101700000D02*
X153580000Y-101690000D01*
X153536600Y-102899999D02*
X153688299Y-102748300D01*
D44*
X146691100Y-101123600D02*
X146691100Y-101453600D01*
D42*
X138550000Y-106620000D02*
X138560000Y-106610000D01*
X155188301Y-102748300D02*
X155460000Y-102476601D01*
D41*
X155601100Y-108003600D02*
X155701100Y-108103600D01*
D44*
X143648700Y-101832203D02*
X144390366Y-101832203D01*
D42*
X146590000Y-109710000D02*
X146610000Y-109690000D01*
X155244347Y-105556005D02*
X155147275Y-105556005D01*
X154188300Y-102748300D02*
X153688299Y-102748300D01*
X153536600Y-103400000D02*
X153536600Y-103820300D01*
X139415665Y-109063902D02*
X139415665Y-109444335D01*
D44*
X146691100Y-101940910D02*
X146691100Y-101453600D01*
D41*
X155601100Y-107353600D02*
X155601100Y-108003600D01*
D44*
X147243563Y-102493372D02*
X146890010Y-102139819D01*
X144344425Y-106118787D02*
X144344425Y-106099612D01*
X142241100Y-103103600D02*
X142301100Y-103103600D01*
X143640000Y-106823212D02*
X144344425Y-106118787D01*
D45*
X138960000Y-106610000D02*
X139403900Y-107053900D01*
D44*
X145951100Y-100403600D02*
X145971100Y-100403600D01*
D42*
X155460000Y-102476601D02*
X155460000Y-101700000D01*
X152825645Y-103820300D02*
X153536600Y-103820300D01*
D44*
X141341100Y-104003600D02*
X142241100Y-103103600D01*
D42*
X153536600Y-103400000D02*
X153536600Y-102899999D01*
D44*
X146890010Y-102139819D02*
X146691100Y-101940910D01*
D42*
X154188300Y-104551700D02*
X154688300Y-104551700D01*
X138560000Y-106610000D02*
X138960000Y-106610000D01*
X153580000Y-101690000D02*
X153480000Y-101690000D01*
D44*
X146890010Y-107867381D02*
X146894882Y-107867381D01*
X147351100Y-108323600D02*
X147431100Y-108323600D01*
D42*
X152710287Y-103704942D02*
X152825645Y-103820300D01*
D45*
X139403900Y-107388401D02*
X139403900Y-107788400D01*
D42*
X154688300Y-105097030D02*
X154688300Y-104551700D01*
D44*
X141301100Y-104003600D02*
X141341100Y-104003600D01*
X143545803Y-107614754D02*
X143640000Y-107520557D01*
D42*
X153480000Y-102540001D02*
X153688299Y-102748300D01*
D41*
X141301100Y-104003600D02*
X141301100Y-104903600D01*
D42*
X155701100Y-107988220D02*
X155701100Y-108103600D01*
X146610000Y-109608730D02*
X146610000Y-109690000D01*
X139415665Y-109444335D02*
X139200000Y-109660000D01*
D44*
X143648700Y-101832203D02*
X143572497Y-101832203D01*
X143640000Y-107520557D02*
X143640000Y-106823212D01*
D42*
X139415665Y-108626765D02*
X139403900Y-108615000D01*
D44*
X145405088Y-102846925D02*
X145758641Y-102493372D01*
X145971100Y-100403600D02*
X146691100Y-101123600D01*
D42*
X139415665Y-109234335D02*
X139415665Y-108626765D01*
D45*
X139403900Y-107053900D02*
X139403900Y-107388401D01*
D44*
X147351100Y-108323600D02*
X146894882Y-107867381D01*
X143572497Y-101832203D02*
X142301100Y-103103600D01*
X144390366Y-101832203D02*
X145405088Y-102846925D01*
X143545803Y-107885803D02*
X143990000Y-108330000D01*
D42*
X147431100Y-108787630D02*
X146610000Y-109608730D01*
X146560000Y-109710000D02*
X146590000Y-109710000D01*
D44*
%TO.N,Net-(C20-2)*%
X147651100Y-101853600D02*
X147701100Y-101853600D01*
X148026837Y-101307157D02*
X148467215Y-101747535D01*
X147521100Y-102053600D02*
X147901100Y-102433600D01*
X148111150Y-102103600D02*
X148467215Y-101747535D01*
X147901100Y-102542938D02*
X147597112Y-102846925D01*
X147521100Y-101983600D02*
X147651100Y-101853600D01*
X147447547Y-101307157D02*
X148026837Y-101307157D01*
X147521100Y-102053600D02*
X147521100Y-101983600D01*
X147951100Y-102103600D02*
X148111150Y-102103600D01*
X147901100Y-102433600D02*
X147901100Y-102542938D01*
X147701100Y-101853600D02*
X147951100Y-102103600D01*
%TO.N,Net-(C21-2)*%
X150654653Y-102379341D02*
X150654653Y-103000047D01*
X150234981Y-101959669D02*
X150654653Y-102379341D01*
X147950668Y-103200479D02*
X149221478Y-101929669D01*
X150204981Y-101929669D02*
X149221478Y-101929669D01*
X150204981Y-101929669D02*
X150234981Y-101959669D01*
%TO.N,/EN_LDO*%
X149501100Y-107403600D02*
X149501100Y-106903600D01*
X149001100Y-108003600D02*
X149001100Y-107903600D01*
X149001100Y-108003600D02*
X150101100Y-108003600D01*
X149501100Y-106903600D02*
X148832759Y-106903600D01*
X148832759Y-106903600D02*
X148831928Y-106904431D01*
X149501100Y-107403600D02*
X149001100Y-107903600D01*
%TO.N,Net-(D2-PadA)*%
X141301100Y-106457263D02*
X141301100Y-105903600D01*
X149551475Y-108502012D02*
X150101100Y-109051637D01*
X141461437Y-106617600D02*
X141301100Y-106457263D01*
X150101100Y-109051637D02*
X150101100Y-109303600D01*
D42*
%TO.N,Net-(ESP1-LNA_IN)*%
X146112194Y-102139819D02*
X146089819Y-102139819D01*
X141610000Y-100720000D02*
X141610000Y-100950000D01*
X144430000Y-100480000D02*
X141850000Y-100480000D01*
X141850000Y-100480000D02*
X141610000Y-100720000D01*
X146089819Y-102139819D02*
X144430000Y-100480000D01*
D44*
%TO.N,/EN*%
X143154900Y-104079800D02*
X142331100Y-104903600D01*
X143809532Y-104079800D02*
X143154900Y-104079800D01*
X142331100Y-104903600D02*
X142301100Y-104903600D01*
X143990872Y-104261141D02*
X143809532Y-104079800D01*
%TO.N,unconnected-(ESP1-SPIHD-Pad19)*%
X147610276Y-107160276D02*
X147597116Y-107160276D01*
%TO.N,+VBAT*%
X154051100Y-107421100D02*
X154051100Y-107607686D01*
X153380000Y-106804682D02*
X153775318Y-107200000D01*
D42*
X155845189Y-104936042D02*
X155572643Y-104936042D01*
X153216567Y-105780000D02*
X153610000Y-105780000D01*
X155572643Y-104936042D02*
X155188301Y-104551700D01*
D44*
X153775318Y-107200000D02*
X153830000Y-107200000D01*
X153830000Y-107200000D02*
X154051100Y-107421100D01*
D42*
X152166567Y-104730000D02*
X153216567Y-105780000D01*
D44*
X153380000Y-106090000D02*
X153380000Y-106804682D01*
D42*
X151480000Y-104730000D02*
X152166567Y-104730000D01*
D44*
X153590000Y-105880000D02*
X153380000Y-106090000D01*
D42*
X154501100Y-108903600D02*
X154501100Y-108103600D01*
X154001100Y-109403600D02*
X154501100Y-108903600D01*
D41*
X154601100Y-107353600D02*
X154601100Y-108003600D01*
D44*
X154051100Y-107607686D02*
X154222014Y-107778600D01*
D41*
X154601100Y-108003600D02*
X154501100Y-108103600D01*
D44*
X154222014Y-107778600D02*
X154601100Y-107778600D01*
%TO.N,Net-(R1-Pad2)*%
X143061549Y-107102656D02*
X142744205Y-107420000D01*
X142317500Y-107420000D02*
X142301100Y-107403600D01*
X142744205Y-107420000D02*
X142317500Y-107420000D01*
D42*
%TO.N,Net-(USB-C0-CC1)*%
X152180000Y-105560000D02*
X152690000Y-106070000D01*
X151910000Y-105560000D02*
X152180000Y-105560000D01*
D44*
X152101100Y-105457686D02*
X152101100Y-105503600D01*
%TO.N,Net-(USB-C0-CC2)*%
X150001978Y-106210000D02*
X151007500Y-106210000D01*
X149922593Y-106130615D02*
X150001978Y-106210000D01*
X151007500Y-106210000D02*
X151701100Y-106903600D01*
%TO.N,/GPIO19_DP*%
X149011328Y-104261141D02*
X149218868Y-104053600D01*
X149551100Y-104053600D02*
X150101100Y-104603600D01*
X149218868Y-104053600D02*
X149551100Y-104053600D01*
%TO.N,/GPIO18_DM*%
X149951100Y-105200912D02*
X149951100Y-105253600D01*
X149364881Y-104614694D02*
X149951100Y-105200912D01*
%TO.N,/GPIO6_DIN*%
X144200816Y-107043609D02*
X144200816Y-106950331D01*
X144200816Y-106950331D02*
X144697979Y-106453168D01*
%TO.N,/GPIO5_BUTTON*%
X141301100Y-108403600D02*
X141520000Y-108184700D01*
X143990872Y-105795040D02*
X143990872Y-105746059D01*
X141540000Y-109164700D02*
X141540000Y-108642500D01*
X141520000Y-108184700D02*
X141520000Y-107622500D01*
X141460486Y-107403600D02*
X142224086Y-106640000D01*
X141520000Y-107622500D02*
X141301100Y-107403600D01*
X142824614Y-106426000D02*
X143359912Y-106426000D01*
X143359912Y-106426000D02*
X143990872Y-105795040D01*
X141301100Y-109403600D02*
X141540000Y-109164700D01*
X142224086Y-106640000D02*
X142610614Y-106640000D01*
X141301100Y-108403600D02*
X141291100Y-108413600D01*
X142610614Y-106640000D02*
X142824614Y-106426000D01*
X141540000Y-108642500D02*
X141301100Y-108403600D01*
X141301100Y-107403600D02*
X141460486Y-107403600D01*
X149001100Y-109303600D02*
X149078891Y-109303600D01*
X149078891Y-109303600D02*
X149525590Y-109750299D01*
D42*
%TO.N,/GPIO4_ADC*%
X151460000Y-103710000D02*
X151480000Y-103730000D01*
D44*
X152232217Y-102975112D02*
X151925112Y-102975112D01*
X151925112Y-102975112D02*
X151430000Y-102480000D01*
X143637319Y-105392506D02*
X143612194Y-105392506D01*
X143612194Y-105392506D02*
X143151100Y-105853600D01*
D42*
X151460000Y-102580000D02*
X151460000Y-103710000D01*
D44*
%TO.N,/GPIO3_LATCH*%
X143637319Y-104614694D02*
X142348413Y-105903600D01*
X142348413Y-105903600D02*
X142301100Y-105903600D01*
%TO.N,/GPIO2_STRP*%
X144180438Y-103743600D02*
X142561100Y-103743600D01*
X144344425Y-103907588D02*
X144180438Y-103743600D01*
X142561100Y-103743600D02*
X142301100Y-104003600D01*
D42*
%TO.N,/GPIO0_CS0*%
X143708033Y-102690000D02*
X144541053Y-102690000D01*
X140540000Y-103090000D02*
X139880000Y-103090000D01*
X138690000Y-103550000D02*
X139140000Y-103100000D01*
X139140000Y-103100000D02*
X139870000Y-103100000D01*
X143731791Y-102690000D02*
X143732319Y-102690528D01*
X144541053Y-102690000D02*
X145051531Y-103200478D01*
X139870000Y-103100000D02*
X139880000Y-103090000D01*
X143708033Y-102690000D02*
X143731791Y-102690000D01*
D44*
%TO.N,/GPIO1_CS1*%
X143263718Y-103242400D02*
X144386347Y-103242400D01*
X143213279Y-103191961D02*
X143263718Y-103242400D01*
X144386347Y-103242400D02*
X144697979Y-103554032D01*
%TO.N,/GPIO10_SCL*%
X140777573Y-109704693D02*
X140114693Y-109704693D01*
X140114693Y-109704693D02*
X140040000Y-109630000D01*
X146427859Y-108183050D02*
X146112191Y-107867382D01*
X140040000Y-109630000D02*
X140040000Y-108624500D01*
X140040000Y-108624500D02*
X139950000Y-108534500D01*
X146427859Y-108948437D02*
X146427859Y-108183050D01*
D45*
%TO.N,/GPIO9_STRP_SDA*%
X140910000Y-108043100D02*
X140764700Y-108188400D01*
D42*
X144500000Y-109480000D02*
X144440000Y-109540000D01*
D45*
X140755600Y-106821457D02*
X140910000Y-106975857D01*
D44*
X145522878Y-108898529D02*
X145522878Y-107749589D01*
X145522878Y-107749589D02*
X145758638Y-107513829D01*
D42*
X145192841Y-109480000D02*
X144500000Y-109480000D01*
D44*
X145648595Y-109024246D02*
X145522878Y-108898529D01*
D45*
X140764700Y-108188400D02*
X140496100Y-108188400D01*
X140755600Y-106609878D02*
X140755600Y-106821457D01*
D42*
X145648595Y-109024246D02*
X145192841Y-109480000D01*
D45*
X140910000Y-106975857D02*
X140910000Y-108043100D01*
D44*
%TO.N,/GPIO8_STRP*%
X144910000Y-108340000D02*
X145072400Y-108177600D01*
X145072400Y-107492960D02*
X145405084Y-107160276D01*
D42*
X144990000Y-108330000D02*
X144980000Y-108340000D01*
X144980000Y-108340000D02*
X144910000Y-108340000D01*
D44*
X145072400Y-108177600D02*
X145072400Y-107492960D01*
%TO.N,/GPIO7_CSEND*%
X144753216Y-107272421D02*
X144520000Y-107505637D01*
D42*
X139980000Y-104740000D02*
X140289964Y-104740000D01*
X139880000Y-104110000D02*
X140217654Y-104110000D01*
X140289964Y-104740000D02*
X140568809Y-104461155D01*
X139850000Y-104870000D02*
X139980000Y-104740000D01*
D44*
X145051531Y-106806722D02*
X144753216Y-107105037D01*
X144753216Y-107105037D02*
X144753216Y-107272421D01*
D42*
X140217654Y-104110000D02*
X140568809Y-104461155D01*
X144520000Y-107570000D02*
X144520000Y-107540992D01*
D44*
X144520000Y-107505637D02*
X144520000Y-107570000D01*
D42*
%TO.N,Net-(L_RX_1-S)*%
X156237601Y-104510000D02*
X155627601Y-103900000D01*
X156800000Y-105730000D02*
X156700000Y-105830000D01*
X156800000Y-104510000D02*
X156800000Y-105730000D01*
X156800000Y-104510000D02*
X156237601Y-104510000D01*
%TO.N,Net-(U3-ISEL2)*%
X153665666Y-104529067D02*
X153688299Y-104551700D01*
X152981709Y-104529067D02*
X153665666Y-104529067D01*
%TO.N,Net-(D4-K)*%
X154688300Y-101778300D02*
X154610000Y-101700000D01*
X154688300Y-102748300D02*
X154688300Y-101778300D01*
%TD*%
M02*
