%TF.GenerationSoftware,KiCad,Pcbnew,7.0.10*%
%TF.CreationDate,2024-07-12T16:17:24+02:00*%
%TF.ProjectId,MouthIO_v3,4d6f7574-6849-44f5-9f76-332e6b696361,rev?*%
%TF.SameCoordinates,Original*%
%TF.FileFunction,Copper,L2,Inr*%
%TF.FilePolarity,Positive*%
%FSLAX46Y46*%
G04 Gerber Fmt 4.6, Leading zero omitted, Abs format (unit mm)*
G04 Created by KiCad (PCBNEW 7.0.10) date 2024-07-12 16:17:24*
%MOMM*%
%LPD*%
G01*
G04 APERTURE LIST*
%TA.AperFunction,ComponentPad*%
%ADD10O,2.000000X1.000000*%
%TD*%
%TA.AperFunction,ViaPad*%
%ADD11C,0.504800*%
%TD*%
%TA.AperFunction,Conductor*%
%ADD12C,0.250000*%
%TD*%
%TA.AperFunction,Conductor*%
%ADD13C,0.300000*%
%TD*%
%TA.AperFunction,Conductor*%
%ADD14C,0.200000*%
%TD*%
G04 APERTURE END LIST*
D10*
%TO.N,GND*%
%TO.C,USB-C0*%
X151901100Y-100683600D03*
X151901100Y-109323600D03*
X156051100Y-100683600D03*
X156051100Y-109323600D03*
%TD*%
D11*
%TO.N,GND*%
X148330000Y-109870000D03*
X148921100Y-103293600D03*
X146501100Y-105003600D03*
X143863120Y-101126942D03*
X140440000Y-102303600D03*
X143237600Y-109227600D03*
X141020000Y-102303600D03*
X142120832Y-102117974D03*
X146501100Y-103803600D03*
X139235745Y-102290884D03*
X145251100Y-100303600D03*
X146501100Y-106343600D03*
X143340000Y-101127400D03*
X145301100Y-105003600D03*
X139837692Y-102314308D03*
X142490000Y-101760000D03*
X142875000Y-101375000D03*
X138532409Y-109162963D03*
X155719063Y-106076958D03*
X140790000Y-109000000D03*
X141580000Y-102303600D03*
X145993538Y-101206000D03*
X138600000Y-102300000D03*
X147701100Y-105003600D03*
%TO.N,+3V3*%
X152710287Y-103704942D03*
X156840000Y-107300000D03*
X147431100Y-108323600D03*
X143648700Y-101832203D03*
X143545803Y-107614754D03*
X139415665Y-109063902D03*
X155244347Y-105556005D03*
X146691100Y-101453600D03*
X138550000Y-106620000D03*
X155460000Y-101700000D03*
%TO.N,/EN_LDO*%
X153932400Y-106557600D03*
X148831928Y-106904431D03*
%TO.N,Net-(D2-PadA)*%
X149551475Y-108502012D03*
X141461437Y-106617600D03*
%TO.N,+VBAT*%
X153830000Y-107200000D03*
X150501100Y-101162200D03*
X155845189Y-104936042D03*
%TO.N,Net-(R1-Pad2)*%
X143061549Y-107102656D03*
%TO.N,Net-(USB-C0-CC1)*%
X152690000Y-106070000D03*
%TO.N,Net-(USB-C0-CC2)*%
X149922593Y-106130615D03*
%TO.N,/GPIO19_DP*%
X150101100Y-104603600D03*
%TO.N,/GPIO18_DM*%
X149951100Y-105253600D03*
%TO.N,/GPIO6_DIN*%
X144200816Y-107043609D03*
%TO.N,/GPIO5_BUTTON*%
X143256000Y-106426000D03*
X149525590Y-109750299D03*
%TO.N,/GPIO4_ADC*%
X152232217Y-102975112D03*
X143151100Y-105853600D03*
%TO.N,/GPIO0_CS0*%
X143708033Y-102690000D03*
X140540000Y-103090000D03*
%TO.N,/GPIO1_CS1*%
X143213279Y-103191961D03*
X140556181Y-105289737D03*
%TO.N,/GPIO10_SCL*%
X140777573Y-109704693D03*
X146427859Y-108948437D03*
%TO.N,/GPIO9_STRP_SDA*%
X145648595Y-109024246D03*
X140755600Y-106609878D03*
%TO.N,/GPIO7_CSEND*%
X140568809Y-104461155D03*
X144520000Y-107570000D03*
%TO.N,Net-(U3-ISEL2)*%
X152981709Y-104529067D03*
X148351294Y-107458514D03*
%TD*%
D12*
%TO.N,+3V3*%
X141370000Y-105920000D02*
X139250000Y-105920000D01*
D13*
X143545803Y-107614754D02*
X144254649Y-108323600D01*
D12*
X143209557Y-107951000D02*
X142721933Y-107951000D01*
X142370000Y-104920000D02*
X141370000Y-105920000D01*
D13*
X156840000Y-107300000D02*
X156300000Y-107840000D01*
X148489155Y-108323600D02*
X147431100Y-108323600D01*
D12*
X143545803Y-107614754D02*
X143209557Y-107951000D01*
X139250000Y-105920000D02*
X138550000Y-106620000D01*
X142370000Y-103110903D02*
X143648700Y-101832203D01*
X142721933Y-107951000D02*
X142370000Y-107599067D01*
D13*
X144254649Y-108323600D02*
X147431100Y-108323600D01*
X152100000Y-107120000D02*
X151330000Y-107890000D01*
X152720000Y-107120000D02*
X152100000Y-107120000D01*
X153440000Y-107840000D02*
X152720000Y-107120000D01*
X156300000Y-107840000D02*
X153440000Y-107840000D01*
D12*
X142370000Y-107599067D02*
X142370000Y-104920000D01*
D13*
X151330000Y-107890000D02*
X148922755Y-107890000D01*
D12*
X138550000Y-108198237D02*
X139415665Y-109063902D01*
X138550000Y-106620000D02*
X138550000Y-108198237D01*
D13*
X148922755Y-107890000D02*
X148489155Y-108323600D01*
D12*
X142370000Y-104920000D02*
X142370000Y-103110903D01*
D14*
%TO.N,/EN_LDO*%
X151292999Y-107340000D02*
X149267497Y-107340000D01*
X153048801Y-106557600D02*
X152887801Y-106718600D01*
X153932400Y-106557600D02*
X153048801Y-106557600D01*
X152887801Y-106718600D02*
X151914399Y-106718600D01*
X151914399Y-106718600D02*
X151292999Y-107340000D01*
X149267497Y-107340000D02*
X148831928Y-106904431D01*
%TO.N,Net-(D2-PadA)*%
X147490242Y-109780000D02*
X148248642Y-109021600D01*
X149307988Y-108502012D02*
X149551475Y-108502012D01*
X142570000Y-109780000D02*
X147490242Y-109780000D01*
X148248642Y-109021600D02*
X148788400Y-109021600D01*
X141461437Y-106617600D02*
X141461437Y-108671437D01*
X148788400Y-109021600D02*
X149307988Y-108502012D01*
X141461437Y-108671437D02*
X142570000Y-109780000D01*
%TO.N,/GPIO4_ADC*%
X149548700Y-104351300D02*
X150924888Y-102975112D01*
X148261100Y-105783600D02*
X149548700Y-104496000D01*
X143151100Y-105853600D02*
X143221100Y-105783600D01*
X149548700Y-104496000D02*
X149548700Y-104351300D01*
X150924888Y-102975112D02*
X152232217Y-102975112D01*
X143221100Y-105783600D02*
X148261100Y-105783600D01*
D12*
%TO.N,Net-(U3-ISEL2)*%
X150802761Y-106708015D02*
X152981709Y-104529067D01*
X149658015Y-106708015D02*
X150802761Y-106708015D01*
X148254528Y-106665264D02*
X148592761Y-106327031D01*
X148351294Y-107458514D02*
X148254528Y-107361748D01*
X149277031Y-106327031D02*
X149658015Y-106708015D01*
X148254528Y-107361748D02*
X148254528Y-106665264D01*
X148592761Y-106327031D02*
X149277031Y-106327031D01*
%TD*%
%TA.AperFunction,Conductor*%
%TO.N,GND*%
G36*
X140399416Y-106259852D02*
G01*
X140413768Y-106294500D01*
X140401800Y-106326588D01*
X140370681Y-106362500D01*
X140370680Y-106362502D01*
X140316575Y-106480971D01*
X140298043Y-106609876D01*
X140298043Y-106609879D01*
X140316575Y-106738784D01*
X140331652Y-106771797D01*
X140370679Y-106857252D01*
X140370680Y-106857253D01*
X140370681Y-106857255D01*
X140455962Y-106955675D01*
X140455964Y-106955677D01*
X140565524Y-107026086D01*
X140565526Y-107026087D01*
X140590824Y-107033515D01*
X140690483Y-107062778D01*
X140690488Y-107062778D01*
X140820712Y-107062778D01*
X140820717Y-107062778D01*
X140927643Y-107031380D01*
X140945673Y-107026087D01*
X140945673Y-107026086D01*
X140945676Y-107026086D01*
X141055236Y-106955677D01*
X141068141Y-106940782D01*
X141101674Y-106923996D01*
X141137259Y-106935838D01*
X141142201Y-106940780D01*
X141148966Y-106948586D01*
X141160937Y-106980677D01*
X141160937Y-108614427D01*
X141159261Y-108624698D01*
X141159291Y-108624703D01*
X141158664Y-108629196D01*
X141158664Y-108629201D01*
X141158664Y-108629202D01*
X141160074Y-108659692D01*
X141160885Y-108677246D01*
X141160937Y-108679508D01*
X141160937Y-108699280D01*
X141161596Y-108702806D01*
X141162378Y-108709546D01*
X141162971Y-108722383D01*
X141163852Y-108741427D01*
X141163852Y-108741431D01*
X141170165Y-108755728D01*
X141173504Y-108766512D01*
X141176375Y-108781866D01*
X141176377Y-108781872D01*
X141193171Y-108808996D01*
X141196334Y-108814997D01*
X141209229Y-108844201D01*
X141209230Y-108844202D01*
X141220279Y-108855250D01*
X141227289Y-108864099D01*
X141232600Y-108872676D01*
X141235518Y-108877389D01*
X141260987Y-108896622D01*
X141266106Y-108901077D01*
X142317200Y-109952171D01*
X142323281Y-109960621D01*
X142323305Y-109960604D01*
X142326040Y-109964225D01*
X142326042Y-109964228D01*
X142361608Y-109996651D01*
X142363222Y-109998193D01*
X142377198Y-110012170D01*
X142377201Y-110012172D01*
X142377203Y-110012174D01*
X142380163Y-110014201D01*
X142385476Y-110018410D01*
X142409067Y-110039916D01*
X142423641Y-110045561D01*
X142433626Y-110050825D01*
X142446519Y-110059657D01*
X142477595Y-110066966D01*
X142484065Y-110068970D01*
X142491432Y-110071824D01*
X142518555Y-110097724D01*
X142519419Y-110135217D01*
X142493519Y-110162340D01*
X142474007Y-110166513D01*
X141051252Y-110174596D01*
X141016523Y-110160442D01*
X141001975Y-110125875D01*
X141016129Y-110091146D01*
X141024474Y-110084382D01*
X141077209Y-110050492D01*
X141162494Y-109952067D01*
X141216596Y-109833602D01*
X141216596Y-109833600D01*
X141216597Y-109833599D01*
X141235130Y-109704694D01*
X141235130Y-109704691D01*
X141216597Y-109575786D01*
X141204429Y-109549143D01*
X141162494Y-109457319D01*
X141160241Y-109454719D01*
X141077210Y-109358895D01*
X141077209Y-109358894D01*
X140967649Y-109288485D01*
X140967646Y-109288483D01*
X140842691Y-109251793D01*
X140842690Y-109251793D01*
X140712456Y-109251793D01*
X140712454Y-109251793D01*
X140587499Y-109288483D01*
X140477935Y-109358895D01*
X140392654Y-109457315D01*
X140392653Y-109457317D01*
X140338548Y-109575786D01*
X140320016Y-109704691D01*
X140320016Y-109704694D01*
X140338548Y-109833599D01*
X140359378Y-109879208D01*
X140392652Y-109952067D01*
X140392653Y-109952068D01*
X140392654Y-109952070D01*
X140475443Y-110047614D01*
X140477937Y-110050492D01*
X140535455Y-110087456D01*
X140556843Y-110118259D01*
X140550185Y-110155167D01*
X140519380Y-110176556D01*
X140509241Y-110177675D01*
X138053084Y-110191630D01*
X138018355Y-110177476D01*
X138003807Y-110142909D01*
X138003806Y-110142631D01*
X138003806Y-106688627D01*
X138018158Y-106653979D01*
X138052806Y-106639627D01*
X138087454Y-106653979D01*
X138101307Y-106681654D01*
X138110975Y-106748906D01*
X138132589Y-106796233D01*
X138165079Y-106867374D01*
X138165080Y-106867375D01*
X138165081Y-106867377D01*
X138212532Y-106922138D01*
X138224500Y-106954226D01*
X138224500Y-108181878D01*
X138224314Y-108186148D01*
X138220736Y-108227044D01*
X138229991Y-108261586D01*
X138231361Y-108266697D01*
X138232285Y-108270869D01*
X138239411Y-108311281D01*
X138239412Y-108311283D01*
X138243455Y-108318285D01*
X138248351Y-108330104D01*
X138250445Y-108337919D01*
X138273988Y-108371544D01*
X138276284Y-108375148D01*
X138296804Y-108410690D01*
X138296805Y-108410692D01*
X138328253Y-108437079D01*
X138331405Y-108439968D01*
X138947040Y-109055603D01*
X138960893Y-109083278D01*
X138976640Y-109192808D01*
X138986709Y-109214855D01*
X139030744Y-109311276D01*
X139030745Y-109311277D01*
X139030746Y-109311279D01*
X139111522Y-109404500D01*
X139116029Y-109409701D01*
X139215313Y-109473506D01*
X139225591Y-109480111D01*
X139288068Y-109498456D01*
X139350548Y-109516802D01*
X139350553Y-109516802D01*
X139480777Y-109516802D01*
X139480782Y-109516802D01*
X139605741Y-109480110D01*
X139715301Y-109409701D01*
X139800586Y-109311276D01*
X139854688Y-109192811D01*
X139854688Y-109192809D01*
X139854689Y-109192808D01*
X139873222Y-109063903D01*
X139873222Y-109063900D01*
X139854689Y-108934995D01*
X139839050Y-108900752D01*
X139800586Y-108816528D01*
X139799259Y-108814997D01*
X139715302Y-108718104D01*
X139715301Y-108718103D01*
X139605741Y-108647694D01*
X139605738Y-108647692D01*
X139480783Y-108611002D01*
X139480782Y-108611002D01*
X139443388Y-108611002D01*
X139408740Y-108596650D01*
X138889852Y-108077762D01*
X138875500Y-108043114D01*
X138875500Y-106954226D01*
X138887468Y-106922138D01*
X138893913Y-106914700D01*
X138934921Y-106867374D01*
X138989023Y-106748909D01*
X138989023Y-106748907D01*
X138989024Y-106748906D01*
X139004770Y-106639377D01*
X139018621Y-106611703D01*
X139370475Y-106259852D01*
X139405123Y-106245500D01*
X140364768Y-106245500D01*
X140399416Y-106259852D01*
G37*
%TD.AperFunction*%
%TA.AperFunction,Conductor*%
G36*
X157337162Y-107419558D02*
G01*
X157362717Y-107447007D01*
X157365806Y-107464130D01*
X157365806Y-109081434D01*
X157351454Y-109116082D01*
X157316806Y-109130434D01*
X157282158Y-109116082D01*
X157271813Y-109100842D01*
X157205040Y-108946046D01*
X157205040Y-108946045D01*
X157100343Y-108805414D01*
X156966037Y-108692717D01*
X156809362Y-108614032D01*
X156809360Y-108614031D01*
X156638761Y-108573600D01*
X156176100Y-108573600D01*
X156176100Y-109050299D01*
X156107180Y-109023600D01*
X156023298Y-109023600D01*
X155940850Y-109039012D01*
X155926100Y-109048144D01*
X155926100Y-108573600D01*
X155507421Y-108573600D01*
X155376959Y-108588848D01*
X155376958Y-108588849D01*
X155212213Y-108648811D01*
X155212209Y-108648813D01*
X155065728Y-108745154D01*
X155065723Y-108745158D01*
X154945416Y-108872676D01*
X154945411Y-108872683D01*
X154857751Y-109024515D01*
X154857747Y-109024524D01*
X154807467Y-109192470D01*
X154807465Y-109192480D01*
X154807109Y-109198600D01*
X155774758Y-109198600D01*
X155747205Y-109295440D01*
X155757554Y-109407121D01*
X155778208Y-109448600D01*
X154811571Y-109448600D01*
X154827716Y-109540165D01*
X154827716Y-109540166D01*
X154897159Y-109701153D01*
X154897159Y-109701154D01*
X155001856Y-109841785D01*
X155136162Y-109954482D01*
X155229548Y-110001382D01*
X155254070Y-110029757D01*
X155251345Y-110067161D01*
X155222970Y-110091683D01*
X155207835Y-110094169D01*
X152716105Y-110108325D01*
X152681376Y-110094171D01*
X152666828Y-110059604D01*
X152680982Y-110024875D01*
X152699069Y-110013281D01*
X152739983Y-109998390D01*
X152739990Y-109998386D01*
X152886471Y-109902045D01*
X152886476Y-109902041D01*
X153006783Y-109774523D01*
X153006788Y-109774516D01*
X153094448Y-109622684D01*
X153094452Y-109622675D01*
X153144732Y-109454729D01*
X153144734Y-109454719D01*
X153145091Y-109448600D01*
X152177442Y-109448600D01*
X152204995Y-109351760D01*
X152194646Y-109240079D01*
X152173992Y-109198600D01*
X153140628Y-109198600D01*
X153124483Y-109107034D01*
X153124483Y-109107033D01*
X153055040Y-108946046D01*
X153055040Y-108946045D01*
X152950343Y-108805414D01*
X152816037Y-108692717D01*
X152659362Y-108614032D01*
X152659360Y-108614031D01*
X152488761Y-108573600D01*
X152026100Y-108573600D01*
X152026100Y-109050299D01*
X151957180Y-109023600D01*
X151873298Y-109023600D01*
X151790850Y-109039012D01*
X151776100Y-109048144D01*
X151776100Y-108573600D01*
X151357421Y-108573600D01*
X151226959Y-108588848D01*
X151226958Y-108588849D01*
X151062213Y-108648811D01*
X151062209Y-108648813D01*
X150915728Y-108745154D01*
X150915723Y-108745158D01*
X150795416Y-108872676D01*
X150795411Y-108872683D01*
X150707751Y-109024515D01*
X150707747Y-109024524D01*
X150657467Y-109192470D01*
X150657465Y-109192480D01*
X150657109Y-109198600D01*
X151624758Y-109198600D01*
X151597205Y-109295440D01*
X151607554Y-109407121D01*
X151628208Y-109448600D01*
X150661571Y-109448600D01*
X150677716Y-109540165D01*
X150677716Y-109540166D01*
X150747159Y-109701153D01*
X150747159Y-109701154D01*
X150851856Y-109841785D01*
X150986162Y-109954482D01*
X151125969Y-110024696D01*
X151150491Y-110053071D01*
X151147766Y-110090475D01*
X151119391Y-110114997D01*
X151104256Y-110117483D01*
X149908381Y-110124277D01*
X149873652Y-110110123D01*
X149859104Y-110075556D01*
X149871071Y-110043190D01*
X149896193Y-110014197D01*
X149910511Y-109997673D01*
X149964613Y-109879208D01*
X149964613Y-109879206D01*
X149964614Y-109879205D01*
X149983147Y-109750300D01*
X149983147Y-109750297D01*
X149964614Y-109621392D01*
X149931618Y-109549143D01*
X149910511Y-109502925D01*
X149890213Y-109479500D01*
X149825227Y-109404501D01*
X149825226Y-109404500D01*
X149715666Y-109334091D01*
X149715663Y-109334089D01*
X149590708Y-109297399D01*
X149590707Y-109297399D01*
X149460473Y-109297399D01*
X149460471Y-109297399D01*
X149335516Y-109334089D01*
X149225952Y-109404501D01*
X149140671Y-109502921D01*
X149140670Y-109502923D01*
X149086565Y-109621392D01*
X149068033Y-109750297D01*
X149068033Y-109750300D01*
X149086565Y-109879205D01*
X149115614Y-109942812D01*
X149140669Y-109997673D01*
X149140670Y-109997674D01*
X149140671Y-109997676D01*
X149183856Y-110047514D01*
X149195699Y-110083098D01*
X149178912Y-110116634D01*
X149147102Y-110128601D01*
X147658092Y-110137061D01*
X147623363Y-110122907D01*
X147608815Y-110088340D01*
X147622969Y-110053611D01*
X147638017Y-110043239D01*
X147663007Y-110032206D01*
X147674061Y-110021150D01*
X147682904Y-110014146D01*
X147696194Y-110005919D01*
X147715433Y-109980440D01*
X147719876Y-109975335D01*
X148358762Y-109336452D01*
X148393410Y-109322100D01*
X148731390Y-109322100D01*
X148741661Y-109323775D01*
X148741666Y-109323746D01*
X148746159Y-109324372D01*
X148746161Y-109324371D01*
X148746165Y-109324373D01*
X148792736Y-109322220D01*
X148794211Y-109322152D01*
X148796473Y-109322100D01*
X148816243Y-109322100D01*
X148816244Y-109322100D01*
X148819765Y-109321441D01*
X148826507Y-109320658D01*
X148858392Y-109319185D01*
X148872693Y-109312869D01*
X148883471Y-109309532D01*
X148898833Y-109306661D01*
X148925970Y-109289858D01*
X148931950Y-109286705D01*
X148961165Y-109273806D01*
X148972219Y-109262750D01*
X148981062Y-109255746D01*
X148994352Y-109247519D01*
X149013591Y-109222040D01*
X149018034Y-109216935D01*
X149306692Y-108928277D01*
X149341339Y-108913926D01*
X149357945Y-108917541D01*
X149358036Y-108917233D01*
X149418521Y-108934993D01*
X149486358Y-108954912D01*
X149486363Y-108954912D01*
X149616587Y-108954912D01*
X149616592Y-108954912D01*
X149741551Y-108918220D01*
X149851111Y-108847811D01*
X149936396Y-108749386D01*
X149990498Y-108630921D01*
X149990498Y-108630919D01*
X149990499Y-108630918D01*
X150009032Y-108502013D01*
X150009032Y-108502010D01*
X149990498Y-108373104D01*
X149990498Y-108373102D01*
X149961614Y-108309855D01*
X149960275Y-108272376D01*
X149985831Y-108244928D01*
X150006186Y-108240500D01*
X151288567Y-108240500D01*
X151298622Y-108241543D01*
X151302566Y-108242369D01*
X151315315Y-108245043D01*
X151348743Y-108240876D01*
X151354804Y-108240500D01*
X151359038Y-108240500D01*
X151359040Y-108240500D01*
X151379554Y-108237076D01*
X151381531Y-108236788D01*
X151431393Y-108230573D01*
X151431640Y-108230452D01*
X151445105Y-108226137D01*
X151445381Y-108226092D01*
X151489560Y-108202181D01*
X151491356Y-108201258D01*
X151504072Y-108195042D01*
X151536484Y-108179198D01*
X151536680Y-108179001D01*
X151548014Y-108170549D01*
X151548258Y-108170418D01*
X151582296Y-108133441D01*
X151583652Y-108132028D01*
X151750543Y-107965137D01*
X151785190Y-107950786D01*
X151819838Y-107965138D01*
X151833771Y-107993390D01*
X151840412Y-108043835D01*
X151898399Y-108183828D01*
X151898402Y-108183833D01*
X151963818Y-108269085D01*
X151990649Y-108304051D01*
X152110867Y-108396298D01*
X152110869Y-108396298D01*
X152110871Y-108396300D01*
X152209320Y-108437079D01*
X152250864Y-108454287D01*
X152363380Y-108469100D01*
X152363384Y-108469100D01*
X152438816Y-108469100D01*
X152438820Y-108469100D01*
X152551336Y-108454287D01*
X152691333Y-108396298D01*
X152811551Y-108304051D01*
X152903798Y-108183833D01*
X152961787Y-108043836D01*
X152970499Y-107977660D01*
X152989251Y-107945183D01*
X153025476Y-107935476D01*
X153053726Y-107949408D01*
X153077419Y-107973100D01*
X153162859Y-108058540D01*
X153169232Y-108066387D01*
X153178563Y-108080669D01*
X153205146Y-108101359D01*
X153209698Y-108105379D01*
X153212694Y-108108375D01*
X153229555Y-108120413D01*
X153229594Y-108120441D01*
X153231218Y-108121652D01*
X153246397Y-108133466D01*
X153270874Y-108152517D01*
X153271141Y-108152608D01*
X153283705Y-108159076D01*
X153283934Y-108159240D01*
X153332084Y-108173575D01*
X153334003Y-108174190D01*
X153339666Y-108176134D01*
X153381512Y-108190500D01*
X153381797Y-108190500D01*
X153395770Y-108192535D01*
X153396046Y-108192617D01*
X153446227Y-108190541D01*
X153448250Y-108190500D01*
X156258567Y-108190500D01*
X156268622Y-108191543D01*
X156272566Y-108192369D01*
X156285315Y-108195043D01*
X156318743Y-108190876D01*
X156324804Y-108190500D01*
X156329038Y-108190500D01*
X156329040Y-108190500D01*
X156349554Y-108187076D01*
X156351531Y-108186788D01*
X156401393Y-108180573D01*
X156401640Y-108180452D01*
X156415105Y-108176137D01*
X156415381Y-108176092D01*
X156459560Y-108152181D01*
X156461356Y-108151258D01*
X156506484Y-108129198D01*
X156506680Y-108129001D01*
X156518014Y-108120549D01*
X156518258Y-108120418D01*
X156552296Y-108083441D01*
X156553652Y-108082028D01*
X156868430Y-107767252D01*
X156901656Y-107753488D01*
X156901644Y-107753399D01*
X156901995Y-107753348D01*
X156903078Y-107752900D01*
X156905112Y-107752900D01*
X156905117Y-107752900D01*
X157030076Y-107716208D01*
X157139636Y-107645799D01*
X157224921Y-107547374D01*
X157272234Y-107443773D01*
X157299683Y-107418219D01*
X157337162Y-107419558D01*
G37*
%TD.AperFunction*%
%TA.AperFunction,Conductor*%
G36*
X142030148Y-105789473D02*
G01*
X142044500Y-105824121D01*
X142044500Y-107582708D01*
X142044314Y-107586978D01*
X142040736Y-107627874D01*
X142051361Y-107667527D01*
X142052285Y-107671699D01*
X142059411Y-107712111D01*
X142059412Y-107712113D01*
X142063455Y-107719115D01*
X142068351Y-107730934D01*
X142070445Y-107738749D01*
X142093988Y-107772374D01*
X142096284Y-107775978D01*
X142116804Y-107811520D01*
X142116805Y-107811522D01*
X142148253Y-107837909D01*
X142151405Y-107840798D01*
X142480207Y-108169601D01*
X142483095Y-108172753D01*
X142509474Y-108204191D01*
X142509476Y-108204192D01*
X142509478Y-108204194D01*
X142545032Y-108224720D01*
X142548622Y-108227007D01*
X142582249Y-108250553D01*
X142590061Y-108252646D01*
X142601878Y-108257541D01*
X142608888Y-108261588D01*
X142649328Y-108268718D01*
X142653480Y-108269639D01*
X142693126Y-108280263D01*
X142734013Y-108276686D01*
X142738283Y-108276500D01*
X143193198Y-108276500D01*
X143197468Y-108276686D01*
X143200243Y-108276928D01*
X143238364Y-108280264D01*
X143278014Y-108269638D01*
X143282175Y-108268715D01*
X143322602Y-108261588D01*
X143329611Y-108257540D01*
X143341428Y-108252646D01*
X143349241Y-108250554D01*
X143382871Y-108227004D01*
X143386442Y-108224729D01*
X143422012Y-108204194D01*
X143448411Y-108172731D01*
X143451281Y-108169601D01*
X143493478Y-108127403D01*
X143528124Y-108113053D01*
X143562772Y-108127405D01*
X143977510Y-108542143D01*
X143983882Y-108549989D01*
X143993212Y-108564269D01*
X144005201Y-108573600D01*
X144019791Y-108584956D01*
X144024343Y-108588976D01*
X144027342Y-108591975D01*
X144044278Y-108604068D01*
X144045900Y-108605278D01*
X144085518Y-108636114D01*
X144085521Y-108636115D01*
X144085523Y-108636117D01*
X144085790Y-108636208D01*
X144098353Y-108642676D01*
X144098581Y-108642839D01*
X144098582Y-108642839D01*
X144098583Y-108642840D01*
X144146751Y-108657180D01*
X144148607Y-108657774D01*
X144196161Y-108674100D01*
X144196447Y-108674100D01*
X144210420Y-108676135D01*
X144210696Y-108676217D01*
X144260875Y-108674141D01*
X144262900Y-108674100D01*
X145245431Y-108674100D01*
X145280079Y-108688452D01*
X145294431Y-108723100D01*
X145282463Y-108755188D01*
X145263676Y-108776868D01*
X145263675Y-108776870D01*
X145209570Y-108895339D01*
X145191038Y-109024244D01*
X145191038Y-109024247D01*
X145209570Y-109153152D01*
X145229053Y-109195812D01*
X145263674Y-109271620D01*
X145263675Y-109271621D01*
X145263676Y-109271623D01*
X145348959Y-109370045D01*
X145378887Y-109389279D01*
X145400276Y-109420084D01*
X145393617Y-109456991D01*
X145362812Y-109478380D01*
X145352396Y-109479500D01*
X142714767Y-109479500D01*
X142680119Y-109465148D01*
X141776289Y-108561318D01*
X141761937Y-108526670D01*
X141761937Y-106980677D01*
X141773905Y-106948589D01*
X141777432Y-106944519D01*
X141846358Y-106864974D01*
X141900460Y-106746509D01*
X141900460Y-106746507D01*
X141900461Y-106746506D01*
X141918994Y-106617601D01*
X141918994Y-106617598D01*
X141900461Y-106488693D01*
X141890276Y-106466392D01*
X141846358Y-106370226D01*
X141844570Y-106368163D01*
X141761074Y-106271802D01*
X141761073Y-106271801D01*
X141651513Y-106201392D01*
X141651510Y-106201391D01*
X141651507Y-106201389D01*
X141651446Y-106201371D01*
X141651417Y-106201347D01*
X141648322Y-106199934D01*
X141648683Y-106199143D01*
X141622250Y-106177833D01*
X141618249Y-106140544D01*
X141630611Y-106119713D01*
X141960853Y-105789472D01*
X141995500Y-105775121D01*
X142030148Y-105789473D01*
G37*
%TD.AperFunction*%
%TA.AperFunction,Conductor*%
G36*
X148214361Y-106085775D02*
G01*
X148214366Y-106085746D01*
X148218859Y-106086372D01*
X148218861Y-106086371D01*
X148218865Y-106086373D01*
X148254220Y-106084738D01*
X148289493Y-106097475D01*
X148305430Y-106131423D01*
X148292693Y-106166697D01*
X148291130Y-106168334D01*
X148035931Y-106423533D01*
X148032781Y-106426420D01*
X148001334Y-106452808D01*
X147980805Y-106488363D01*
X147978510Y-106491966D01*
X147954973Y-106525581D01*
X147954972Y-106525581D01*
X147952879Y-106533396D01*
X147947986Y-106545209D01*
X147943942Y-106552214D01*
X147943938Y-106552224D01*
X147936815Y-106592621D01*
X147935891Y-106596793D01*
X147925264Y-106636457D01*
X147925541Y-106639627D01*
X147928842Y-106677351D01*
X147929028Y-106681621D01*
X147929028Y-107282252D01*
X147924600Y-107302607D01*
X147912269Y-107329606D01*
X147893737Y-107458512D01*
X147893737Y-107458515D01*
X147912269Y-107587420D01*
X147938930Y-107645797D01*
X147966373Y-107705888D01*
X147966374Y-107705889D01*
X147966375Y-107705891D01*
X148051656Y-107804311D01*
X148051658Y-107804313D01*
X148106072Y-107839282D01*
X148161220Y-107874723D01*
X148169264Y-107877085D01*
X148198465Y-107900617D01*
X148202474Y-107937905D01*
X148178942Y-107967106D01*
X148155459Y-107973100D01*
X147737809Y-107973100D01*
X147711318Y-107965322D01*
X147621173Y-107907390D01*
X147496218Y-107870700D01*
X147496217Y-107870700D01*
X147365983Y-107870700D01*
X147365981Y-107870700D01*
X147241026Y-107907390D01*
X147150882Y-107965322D01*
X147124391Y-107973100D01*
X144877280Y-107973100D01*
X144842632Y-107958748D01*
X144828280Y-107924100D01*
X144840248Y-107892012D01*
X144904918Y-107817377D01*
X144904921Y-107817374D01*
X144959023Y-107698909D01*
X144959023Y-107698907D01*
X144959024Y-107698906D01*
X144977557Y-107570001D01*
X144977557Y-107569998D01*
X144959024Y-107441093D01*
X144949189Y-107419558D01*
X144904921Y-107322626D01*
X144876348Y-107289651D01*
X144819637Y-107224202D01*
X144819636Y-107224201D01*
X144710076Y-107153792D01*
X144710073Y-107153791D01*
X144686004Y-107146723D01*
X144656803Y-107123190D01*
X144651309Y-107092736D01*
X144658373Y-107043609D01*
X144658373Y-107043607D01*
X144639840Y-106914702D01*
X144632233Y-106898046D01*
X144585737Y-106796235D01*
X144564563Y-106771799D01*
X144500453Y-106697811D01*
X144500452Y-106697810D01*
X144390892Y-106627401D01*
X144390889Y-106627399D01*
X144265934Y-106590709D01*
X144265933Y-106590709D01*
X144135699Y-106590709D01*
X144135697Y-106590709D01*
X144010742Y-106627399D01*
X143901178Y-106697811D01*
X143815897Y-106796231D01*
X143815896Y-106796233D01*
X143761791Y-106914702D01*
X143743259Y-107043607D01*
X143743259Y-107043610D01*
X143755991Y-107132168D01*
X143746716Y-107168506D01*
X143714463Y-107187642D01*
X143693685Y-107186156D01*
X143610921Y-107161854D01*
X143610920Y-107161854D01*
X143567144Y-107161854D01*
X143532496Y-107147502D01*
X143518144Y-107112854D01*
X143518642Y-107105884D01*
X143519106Y-107102655D01*
X143519106Y-107102653D01*
X143500573Y-106973749D01*
X143492320Y-106955678D01*
X143459401Y-106883598D01*
X143458063Y-106846122D01*
X143477480Y-106822025D01*
X143555636Y-106771799D01*
X143640921Y-106673374D01*
X143695023Y-106554909D01*
X143695023Y-106554907D01*
X143695024Y-106554906D01*
X143713557Y-106426001D01*
X143713557Y-106425998D01*
X143695024Y-106297093D01*
X143683473Y-106271801D01*
X143640921Y-106178626D01*
X143640763Y-106178444D01*
X143629278Y-106165189D01*
X143617434Y-106129605D01*
X143634220Y-106096069D01*
X143666309Y-106084100D01*
X148204090Y-106084100D01*
X148214361Y-106085775D01*
G37*
%TD.AperFunction*%
%TA.AperFunction,Conductor*%
G36*
X151145647Y-99904262D02*
G01*
X151159999Y-99938910D01*
X151145647Y-99973558D01*
X151127758Y-99984955D01*
X151062213Y-100008811D01*
X151062209Y-100008813D01*
X150915728Y-100105154D01*
X150915723Y-100105158D01*
X150795416Y-100232676D01*
X150795411Y-100232683D01*
X150707751Y-100384515D01*
X150707747Y-100384524D01*
X150657467Y-100552470D01*
X150657465Y-100552480D01*
X150657109Y-100558600D01*
X151624758Y-100558600D01*
X151597205Y-100655440D01*
X151607554Y-100767121D01*
X151628208Y-100808600D01*
X150802985Y-100808600D01*
X150776494Y-100800822D01*
X150691173Y-100745990D01*
X150566218Y-100709300D01*
X150566217Y-100709300D01*
X150435983Y-100709300D01*
X150435981Y-100709300D01*
X150311026Y-100745990D01*
X150201462Y-100816402D01*
X150116181Y-100914822D01*
X150116180Y-100914824D01*
X150062075Y-101033293D01*
X150043543Y-101162198D01*
X150043543Y-101162201D01*
X150062075Y-101291106D01*
X150086335Y-101344226D01*
X150116179Y-101409574D01*
X150116180Y-101409575D01*
X150116181Y-101409577D01*
X150182752Y-101486404D01*
X150201464Y-101507999D01*
X150311024Y-101578408D01*
X150311026Y-101578409D01*
X150332891Y-101584829D01*
X150435983Y-101615100D01*
X150435988Y-101615100D01*
X150566212Y-101615100D01*
X150566217Y-101615100D01*
X150691176Y-101578408D01*
X150800736Y-101507999D01*
X150886021Y-101409574D01*
X150918906Y-101337565D01*
X150946354Y-101312010D01*
X150983833Y-101313349D01*
X150985469Y-101314133D01*
X151142837Y-101393167D01*
X151142839Y-101393168D01*
X151313439Y-101433600D01*
X151776100Y-101433600D01*
X151776100Y-100956900D01*
X151845020Y-100983600D01*
X151928902Y-100983600D01*
X152011350Y-100968188D01*
X152026100Y-100959055D01*
X152026100Y-101433600D01*
X152444779Y-101433600D01*
X152575240Y-101418351D01*
X152575241Y-101418350D01*
X152739986Y-101358388D01*
X152739990Y-101358386D01*
X152886471Y-101262045D01*
X152886476Y-101262041D01*
X153006783Y-101134523D01*
X153006788Y-101134516D01*
X153094448Y-100982684D01*
X153094452Y-100982675D01*
X153144732Y-100814729D01*
X153144734Y-100814719D01*
X153145091Y-100808600D01*
X152177442Y-100808600D01*
X152204995Y-100711760D01*
X152194646Y-100600079D01*
X152173992Y-100558600D01*
X153140628Y-100558600D01*
X153124483Y-100467034D01*
X153124483Y-100467033D01*
X153055040Y-100306046D01*
X153055040Y-100306045D01*
X152950343Y-100165414D01*
X152816037Y-100052717D01*
X152676617Y-99982698D01*
X152652095Y-99954323D01*
X152654820Y-99916919D01*
X152683195Y-99892397D01*
X152698608Y-99889910D01*
X155260999Y-99889910D01*
X155295647Y-99904262D01*
X155309999Y-99938910D01*
X155295647Y-99973558D01*
X155277758Y-99984955D01*
X155212213Y-100008811D01*
X155212209Y-100008813D01*
X155065728Y-100105154D01*
X155065723Y-100105158D01*
X154945416Y-100232676D01*
X154945411Y-100232683D01*
X154857751Y-100384515D01*
X154857747Y-100384524D01*
X154807467Y-100552470D01*
X154807465Y-100552480D01*
X154807109Y-100558600D01*
X155774758Y-100558600D01*
X155747205Y-100655440D01*
X155757554Y-100767121D01*
X155778208Y-100808600D01*
X154811571Y-100808600D01*
X154827716Y-100900165D01*
X154827716Y-100900166D01*
X154897159Y-101061153D01*
X154897159Y-101061154D01*
X155001856Y-101201785D01*
X155131966Y-101310961D01*
X155149283Y-101344226D01*
X155138005Y-101379994D01*
X155137501Y-101380585D01*
X155075081Y-101452622D01*
X155075080Y-101452624D01*
X155020975Y-101571093D01*
X155002443Y-101699998D01*
X155002443Y-101700001D01*
X155020975Y-101828906D01*
X155050024Y-101892513D01*
X155075079Y-101947374D01*
X155075080Y-101947375D01*
X155075081Y-101947377D01*
X155088934Y-101963364D01*
X155160364Y-102045799D01*
X155265866Y-102113600D01*
X155269926Y-102116209D01*
X155332403Y-102134554D01*
X155394883Y-102152900D01*
X155394888Y-102152900D01*
X155525112Y-102152900D01*
X155525117Y-102152900D01*
X155650076Y-102116208D01*
X155759636Y-102045799D01*
X155844921Y-101947374D01*
X155899023Y-101828909D01*
X155899023Y-101828907D01*
X155899024Y-101828906D01*
X155917557Y-101700001D01*
X155917557Y-101699998D01*
X155899024Y-101571093D01*
X155867906Y-101502956D01*
X155866567Y-101465477D01*
X155892122Y-101438028D01*
X155912478Y-101433600D01*
X155926100Y-101433600D01*
X155926100Y-100956900D01*
X155995020Y-100983600D01*
X156078902Y-100983600D01*
X156161350Y-100968188D01*
X156176100Y-100959055D01*
X156176100Y-101433600D01*
X156594779Y-101433600D01*
X156725240Y-101418351D01*
X156725241Y-101418350D01*
X156889986Y-101358388D01*
X156889990Y-101358386D01*
X157036471Y-101262045D01*
X157036476Y-101262041D01*
X157156783Y-101134523D01*
X157156788Y-101134516D01*
X157244448Y-100982684D01*
X157244452Y-100982673D01*
X157269865Y-100897792D01*
X157293551Y-100868715D01*
X157330859Y-100864904D01*
X157359936Y-100888590D01*
X157365806Y-100911845D01*
X157365806Y-107135869D01*
X157351454Y-107170517D01*
X157316806Y-107184869D01*
X157282158Y-107170517D01*
X157272234Y-107156225D01*
X157257147Y-107123190D01*
X157224921Y-107052626D01*
X157213547Y-107039500D01*
X157139637Y-106954202D01*
X157139636Y-106954201D01*
X157030076Y-106883792D01*
X157030073Y-106883790D01*
X156905118Y-106847100D01*
X156905117Y-106847100D01*
X156774883Y-106847100D01*
X156774881Y-106847100D01*
X156649926Y-106883790D01*
X156540362Y-106954202D01*
X156455081Y-107052622D01*
X156455080Y-107052624D01*
X156400977Y-107171090D01*
X156391165Y-107239331D01*
X156377311Y-107267005D01*
X156272509Y-107371809D01*
X156169170Y-107475148D01*
X156134522Y-107489500D01*
X154271928Y-107489500D01*
X154237280Y-107475148D01*
X154222928Y-107440500D01*
X154227355Y-107420147D01*
X154269023Y-107328909D01*
X154269023Y-107328907D01*
X154269024Y-107328906D01*
X154287557Y-107200001D01*
X154287557Y-107199998D01*
X154269024Y-107071093D01*
X154260588Y-107052622D01*
X154218902Y-106961344D01*
X154217564Y-106923869D01*
X154229866Y-106906156D01*
X154229741Y-106906048D01*
X154230751Y-106904881D01*
X154231398Y-106903951D01*
X154232029Y-106903402D01*
X154232036Y-106903399D01*
X154317321Y-106804974D01*
X154371423Y-106686509D01*
X154371423Y-106686507D01*
X154371424Y-106686506D01*
X154389957Y-106557601D01*
X154389957Y-106557598D01*
X154371424Y-106428693D01*
X154361120Y-106406132D01*
X154317321Y-106310226D01*
X154305941Y-106297093D01*
X154232037Y-106211802D01*
X154232036Y-106211801D01*
X154122476Y-106141392D01*
X154122473Y-106141390D01*
X153997518Y-106104700D01*
X153997517Y-106104700D01*
X153867283Y-106104700D01*
X153867281Y-106104700D01*
X153742326Y-106141390D01*
X153632763Y-106211801D01*
X153608167Y-106240188D01*
X153574631Y-106256975D01*
X153571135Y-106257100D01*
X153177206Y-106257100D01*
X153142558Y-106242748D01*
X153128206Y-106208100D01*
X153128705Y-106201127D01*
X153147557Y-106070001D01*
X153147557Y-106069998D01*
X153129024Y-105941093D01*
X153125029Y-105932346D01*
X153074921Y-105822626D01*
X153058246Y-105803382D01*
X152989637Y-105724202D01*
X152989636Y-105724201D01*
X152880076Y-105653792D01*
X152880073Y-105653790D01*
X152755118Y-105617100D01*
X152755117Y-105617100D01*
X152624883Y-105617100D01*
X152624881Y-105617100D01*
X152499926Y-105653790D01*
X152390362Y-105724202D01*
X152305081Y-105822622D01*
X152305080Y-105822624D01*
X152250975Y-105941093D01*
X152232443Y-106069998D01*
X152232443Y-106070001D01*
X152250975Y-106198906D01*
X152256865Y-106211802D01*
X152305079Y-106317374D01*
X152305080Y-106317375D01*
X152305081Y-106317377D01*
X152322095Y-106337012D01*
X152333938Y-106372596D01*
X152317151Y-106406132D01*
X152285063Y-106418100D01*
X151971409Y-106418100D01*
X151961137Y-106416424D01*
X151961133Y-106416454D01*
X151956639Y-106415827D01*
X151956634Y-106415827D01*
X151915741Y-106417717D01*
X151908588Y-106418048D01*
X151906326Y-106418100D01*
X151886555Y-106418100D01*
X151885598Y-106418278D01*
X151883021Y-106418760D01*
X151876292Y-106419540D01*
X151844405Y-106421015D01*
X151830102Y-106427329D01*
X151819322Y-106430667D01*
X151803969Y-106433538D01*
X151803965Y-106433539D01*
X151776827Y-106450340D01*
X151770830Y-106453500D01*
X151741636Y-106466392D01*
X151741634Y-106466394D01*
X151730584Y-106477443D01*
X151721737Y-106484450D01*
X151708447Y-106492680D01*
X151689213Y-106518149D01*
X151684759Y-106523267D01*
X151182880Y-107025148D01*
X151148232Y-107039500D01*
X151054603Y-107039500D01*
X151019955Y-107025148D01*
X151005603Y-106990500D01*
X151017066Y-106959005D01*
X151041604Y-106929760D01*
X151044482Y-106926618D01*
X152415095Y-105556006D01*
X154786790Y-105556006D01*
X154805322Y-105684911D01*
X154823490Y-105724691D01*
X154859426Y-105803379D01*
X154859427Y-105803380D01*
X154859428Y-105803382D01*
X154928624Y-105883239D01*
X154944711Y-105901804D01*
X155005844Y-105941091D01*
X155054273Y-105972214D01*
X155088293Y-105982203D01*
X155179230Y-106008905D01*
X155179235Y-106008905D01*
X155309459Y-106008905D01*
X155309464Y-106008905D01*
X155434423Y-105972213D01*
X155543983Y-105901804D01*
X155629268Y-105803379D01*
X155683370Y-105684914D01*
X155683370Y-105684912D01*
X155683371Y-105684911D01*
X155701904Y-105556006D01*
X155701904Y-105556003D01*
X155684231Y-105433082D01*
X155693506Y-105396744D01*
X155725759Y-105377608D01*
X155746531Y-105379093D01*
X155780072Y-105388942D01*
X155780077Y-105388942D01*
X155910301Y-105388942D01*
X155910306Y-105388942D01*
X156035265Y-105352250D01*
X156144825Y-105281841D01*
X156230110Y-105183416D01*
X156284212Y-105064951D01*
X156284212Y-105064949D01*
X156284213Y-105064948D01*
X156302746Y-104936043D01*
X156302746Y-104936040D01*
X156284213Y-104807135D01*
X156280218Y-104798388D01*
X156230110Y-104688668D01*
X156203515Y-104657976D01*
X156144826Y-104590244D01*
X156144825Y-104590243D01*
X156035265Y-104519834D01*
X156035262Y-104519832D01*
X155910307Y-104483142D01*
X155910306Y-104483142D01*
X155780072Y-104483142D01*
X155780070Y-104483142D01*
X155655115Y-104519832D01*
X155545551Y-104590244D01*
X155460270Y-104688664D01*
X155460269Y-104688666D01*
X155406164Y-104807135D01*
X155387632Y-104936040D01*
X155387632Y-104936043D01*
X155405304Y-105058964D01*
X155396029Y-105095302D01*
X155363776Y-105114438D01*
X155342999Y-105112952D01*
X155325151Y-105107711D01*
X155309465Y-105103105D01*
X155309464Y-105103105D01*
X155179230Y-105103105D01*
X155179228Y-105103105D01*
X155054273Y-105139795D01*
X154944709Y-105210207D01*
X154859428Y-105308627D01*
X154859427Y-105308629D01*
X154805322Y-105427098D01*
X154786790Y-105556003D01*
X154786790Y-105556006D01*
X152415095Y-105556006D01*
X152974783Y-104996319D01*
X153009431Y-104981967D01*
X153046821Y-104981967D01*
X153046826Y-104981967D01*
X153171785Y-104945275D01*
X153281345Y-104874866D01*
X153366630Y-104776441D01*
X153420732Y-104657976D01*
X153420732Y-104657974D01*
X153420733Y-104657973D01*
X153439266Y-104529068D01*
X153439266Y-104529065D01*
X153420733Y-104400160D01*
X153413233Y-104383737D01*
X153366630Y-104281693D01*
X153352479Y-104265362D01*
X153281346Y-104183269D01*
X153281345Y-104183268D01*
X153175672Y-104115357D01*
X153171782Y-104112857D01*
X153086309Y-104087760D01*
X153073000Y-104083852D01*
X153043800Y-104060321D01*
X153039791Y-104023033D01*
X153049774Y-104004750D01*
X153095205Y-103952319D01*
X153095208Y-103952316D01*
X153149310Y-103833851D01*
X153149310Y-103833849D01*
X153149311Y-103833848D01*
X153167844Y-103704943D01*
X153167844Y-103704940D01*
X153149311Y-103576035D01*
X153131830Y-103537758D01*
X153095208Y-103457568D01*
X153079409Y-103439335D01*
X153009924Y-103359144D01*
X153009923Y-103359143D01*
X152918742Y-103300545D01*
X152900360Y-103288732D01*
X152775405Y-103252042D01*
X152775404Y-103252042D01*
X152679886Y-103252042D01*
X152645238Y-103237690D01*
X152630886Y-103203042D01*
X152635314Y-103182686D01*
X152671240Y-103104021D01*
X152671240Y-103104019D01*
X152671241Y-103104018D01*
X152689774Y-102975113D01*
X152689774Y-102975110D01*
X152671241Y-102846205D01*
X152658775Y-102818909D01*
X152617138Y-102727738D01*
X152617135Y-102727734D01*
X152610173Y-102719699D01*
X152598331Y-102684115D01*
X152615119Y-102650579D01*
X152628451Y-102642344D01*
X152691333Y-102616298D01*
X152811551Y-102524051D01*
X152903798Y-102403833D01*
X152961787Y-102263836D01*
X152981566Y-102113600D01*
X152961787Y-101963364D01*
X152955164Y-101947374D01*
X152903800Y-101823371D01*
X152903797Y-101823366D01*
X152885406Y-101799399D01*
X152811551Y-101703149D01*
X152808720Y-101700977D01*
X152691333Y-101610902D01*
X152691328Y-101610899D01*
X152551335Y-101552912D01*
X152473994Y-101542730D01*
X152438820Y-101538100D01*
X152363380Y-101538100D01*
X152331525Y-101542293D01*
X152250864Y-101552912D01*
X152110871Y-101610899D01*
X152110866Y-101610902D01*
X151990649Y-101703148D01*
X151990648Y-101703149D01*
X151898402Y-101823366D01*
X151898399Y-101823371D01*
X151840412Y-101963364D01*
X151820634Y-102113600D01*
X151840412Y-102263835D01*
X151898399Y-102403828D01*
X151898402Y-102403833D01*
X151992604Y-102526599D01*
X151991195Y-102527680D01*
X152003367Y-102557065D01*
X151989015Y-102591713D01*
X151980858Y-102598286D01*
X151932583Y-102629309D01*
X151932581Y-102629311D01*
X151907984Y-102657700D01*
X151874448Y-102674487D01*
X151870952Y-102674612D01*
X150981899Y-102674612D01*
X150971627Y-102672936D01*
X150971623Y-102672966D01*
X150967129Y-102672339D01*
X150967124Y-102672339D01*
X150926231Y-102674229D01*
X150919078Y-102674560D01*
X150916816Y-102674612D01*
X150897044Y-102674612D01*
X150896087Y-102674790D01*
X150893510Y-102675272D01*
X150886781Y-102676052D01*
X150854895Y-102677527D01*
X150840592Y-102683841D01*
X150829812Y-102687179D01*
X150814458Y-102690050D01*
X150814456Y-102690050D01*
X150801300Y-102698195D01*
X150787321Y-102706850D01*
X150781326Y-102710010D01*
X150752127Y-102722903D01*
X150752122Y-102722907D01*
X150741073Y-102733955D01*
X150732226Y-102740962D01*
X150718936Y-102749192D01*
X150699702Y-102774661D01*
X150695248Y-102779779D01*
X149376525Y-104098502D01*
X149368074Y-104104584D01*
X149368093Y-104104608D01*
X149364468Y-104107345D01*
X149332058Y-104142895D01*
X149330497Y-104144530D01*
X149316533Y-104158494D01*
X149316524Y-104158505D01*
X149314490Y-104161473D01*
X149310287Y-104166778D01*
X149288785Y-104190365D01*
X149288783Y-104190368D01*
X149283136Y-104204944D01*
X149277872Y-104214930D01*
X149269043Y-104227819D01*
X149269043Y-104227820D01*
X149261736Y-104258883D01*
X149259730Y-104265362D01*
X149248200Y-104295128D01*
X149248200Y-104310753D01*
X149246898Y-104321972D01*
X149243321Y-104337176D01*
X149243321Y-104337182D01*
X149244752Y-104347439D01*
X149235325Y-104383737D01*
X149230870Y-104388856D01*
X148150981Y-105468748D01*
X148116333Y-105483100D01*
X143426688Y-105483100D01*
X143400197Y-105475322D01*
X143341173Y-105437390D01*
X143216218Y-105400700D01*
X143216217Y-105400700D01*
X143085983Y-105400700D01*
X143085981Y-105400700D01*
X142961026Y-105437390D01*
X142851462Y-105507802D01*
X142781532Y-105588506D01*
X142747996Y-105605293D01*
X142712412Y-105593450D01*
X142695625Y-105559914D01*
X142695500Y-105556418D01*
X142695500Y-104969305D01*
X142697170Y-104956621D01*
X142699105Y-104949399D01*
X142699264Y-104948807D01*
X142695686Y-104907908D01*
X142695500Y-104903638D01*
X142695500Y-103373667D01*
X142709852Y-103339019D01*
X142744500Y-103324667D01*
X142779148Y-103339019D01*
X142789070Y-103353309D01*
X142828358Y-103439335D01*
X142828359Y-103439336D01*
X142828360Y-103439338D01*
X142861005Y-103477012D01*
X142913643Y-103537760D01*
X143023203Y-103608169D01*
X143023205Y-103608170D01*
X143085682Y-103626515D01*
X143148162Y-103644861D01*
X143148167Y-103644861D01*
X143278391Y-103644861D01*
X143278396Y-103644861D01*
X143403355Y-103608169D01*
X143512915Y-103537760D01*
X143598200Y-103439335D01*
X143652302Y-103320870D01*
X143652302Y-103320868D01*
X143652303Y-103320867D01*
X143670836Y-103191962D01*
X143670836Y-103191900D01*
X143670849Y-103191866D01*
X143671335Y-103188492D01*
X143672196Y-103188615D01*
X143685188Y-103157252D01*
X143719836Y-103142900D01*
X143773145Y-103142900D01*
X143773150Y-103142900D01*
X143898109Y-103106208D01*
X144007669Y-103035799D01*
X144092954Y-102937374D01*
X144147056Y-102818909D01*
X144147056Y-102818907D01*
X144147057Y-102818906D01*
X144165590Y-102690001D01*
X144165590Y-102689998D01*
X144147057Y-102561093D01*
X144130140Y-102524051D01*
X144092954Y-102442626D01*
X144067333Y-102413058D01*
X144046069Y-102388517D01*
X144034226Y-102352933D01*
X144051013Y-102319397D01*
X144082385Y-102307434D01*
X145540515Y-102286211D01*
X145575367Y-102300057D01*
X145575875Y-102300558D01*
X146119806Y-102844489D01*
X146778385Y-102185910D01*
X146581748Y-101989273D01*
X146567396Y-101954625D01*
X146581748Y-101919977D01*
X146616396Y-101905625D01*
X146623374Y-101906124D01*
X146625978Y-101906498D01*
X146625983Y-101906500D01*
X146625988Y-101906500D01*
X146756212Y-101906500D01*
X146756217Y-101906500D01*
X146881176Y-101869808D01*
X146990736Y-101799399D01*
X147076021Y-101700974D01*
X147130123Y-101582509D01*
X147130123Y-101582507D01*
X147130124Y-101582506D01*
X147148657Y-101453601D01*
X147148657Y-101453598D01*
X147130124Y-101324693D01*
X147114785Y-101291106D01*
X147076021Y-101206226D01*
X147037873Y-101162201D01*
X146990737Y-101107802D01*
X146990736Y-101107801D01*
X146881176Y-101037392D01*
X146881173Y-101037390D01*
X146756218Y-101000700D01*
X146756217Y-101000700D01*
X146625983Y-101000700D01*
X146625981Y-101000700D01*
X146501026Y-101037390D01*
X146391462Y-101107802D01*
X146306181Y-101206222D01*
X146306180Y-101206224D01*
X146252075Y-101324693D01*
X146233543Y-101453598D01*
X146233543Y-101453601D01*
X146244070Y-101526825D01*
X146234795Y-101563163D01*
X146202542Y-101582299D01*
X146166204Y-101573024D01*
X146160921Y-101568446D01*
X145034158Y-100441683D01*
X145019806Y-100407035D01*
X145019806Y-99938910D01*
X145034158Y-99904262D01*
X145068806Y-99889910D01*
X151110999Y-99889910D01*
X151145647Y-99904262D01*
G37*
%TD.AperFunction*%
%TA.AperFunction,Conductor*%
G36*
X142607008Y-102343261D02*
G01*
X142621863Y-102377697D01*
X142608017Y-102412550D01*
X142607516Y-102413058D01*
X142151403Y-102869172D01*
X142148253Y-102872059D01*
X142116806Y-102898447D01*
X142096277Y-102934002D01*
X142093982Y-102937605D01*
X142070445Y-102971220D01*
X142070444Y-102971220D01*
X142068351Y-102979035D01*
X142063458Y-102990848D01*
X142059414Y-102997853D01*
X142059410Y-102997863D01*
X142052287Y-103038260D01*
X142051363Y-103042432D01*
X142040736Y-103082095D01*
X142044314Y-103122990D01*
X142044500Y-103127260D01*
X142044500Y-104764878D01*
X142030148Y-104799526D01*
X141249526Y-105580148D01*
X141214878Y-105594500D01*
X140991139Y-105594500D01*
X140956491Y-105580148D01*
X140942139Y-105545500D01*
X140946567Y-105525144D01*
X140954487Y-105507802D01*
X140995204Y-105418646D01*
X140995204Y-105418644D01*
X140995205Y-105418643D01*
X141013738Y-105289738D01*
X141013738Y-105289735D01*
X140995205Y-105160830D01*
X140978701Y-105124692D01*
X140941102Y-105042363D01*
X140909789Y-105006226D01*
X140855817Y-104943938D01*
X140843532Y-104936043D01*
X140819695Y-104920724D01*
X140798307Y-104889919D01*
X140804965Y-104853012D01*
X140819694Y-104838283D01*
X140868445Y-104806954D01*
X140953730Y-104708529D01*
X141007832Y-104590064D01*
X141007832Y-104590062D01*
X141007833Y-104590061D01*
X141026366Y-104461156D01*
X141026366Y-104461153D01*
X141007833Y-104332248D01*
X140998016Y-104310753D01*
X140953730Y-104213781D01*
X140930863Y-104187391D01*
X140868446Y-104115357D01*
X140868445Y-104115356D01*
X140758885Y-104044947D01*
X140758882Y-104044945D01*
X140633927Y-104008255D01*
X140633926Y-104008255D01*
X140503692Y-104008255D01*
X140503690Y-104008255D01*
X140378735Y-104044945D01*
X140269171Y-104115357D01*
X140183890Y-104213777D01*
X140183889Y-104213779D01*
X140129784Y-104332248D01*
X140111252Y-104461153D01*
X140111252Y-104461156D01*
X140129784Y-104590061D01*
X140135968Y-104603601D01*
X140183888Y-104708529D01*
X140183889Y-104708530D01*
X140183890Y-104708532D01*
X140269172Y-104806953D01*
X140269173Y-104806954D01*
X140269452Y-104807133D01*
X140305292Y-104830166D01*
X140326681Y-104860972D01*
X140320023Y-104897879D01*
X140305293Y-104912609D01*
X140256544Y-104943938D01*
X140171262Y-105042359D01*
X140171261Y-105042361D01*
X140117156Y-105160830D01*
X140098624Y-105289735D01*
X140098624Y-105289738D01*
X140117156Y-105418643D01*
X140165795Y-105525144D01*
X140167134Y-105562623D01*
X140141579Y-105590072D01*
X140121223Y-105594500D01*
X139266347Y-105594500D01*
X139262077Y-105594314D01*
X139242977Y-105592643D01*
X139221193Y-105590737D01*
X139221192Y-105590737D01*
X139221190Y-105590737D01*
X139181541Y-105601360D01*
X139177371Y-105602284D01*
X139136954Y-105609411D01*
X139129939Y-105613461D01*
X139118131Y-105618352D01*
X139110318Y-105620446D01*
X139110313Y-105620448D01*
X139076698Y-105643985D01*
X139073094Y-105646281D01*
X139037546Y-105666804D01*
X139011159Y-105698249D01*
X139008272Y-105701399D01*
X138556926Y-106152748D01*
X138522278Y-106167100D01*
X138484881Y-106167100D01*
X138359926Y-106203790D01*
X138250362Y-106274202D01*
X138165081Y-106372622D01*
X138165080Y-106372624D01*
X138110975Y-106491093D01*
X138101307Y-106558345D01*
X138082171Y-106590598D01*
X138045833Y-106599873D01*
X138013580Y-106580737D01*
X138003806Y-106551372D01*
X138003806Y-103090001D01*
X140082443Y-103090001D01*
X140100975Y-103218906D01*
X140125757Y-103273168D01*
X140155079Y-103337374D01*
X140155080Y-103337375D01*
X140155081Y-103337377D01*
X140240362Y-103435797D01*
X140240364Y-103435799D01*
X140304494Y-103477012D01*
X140349926Y-103506209D01*
X140412403Y-103524554D01*
X140474883Y-103542900D01*
X140474888Y-103542900D01*
X140605112Y-103542900D01*
X140605117Y-103542900D01*
X140730076Y-103506208D01*
X140839636Y-103435799D01*
X140924921Y-103337374D01*
X140979023Y-103218909D01*
X140979023Y-103218907D01*
X140979024Y-103218906D01*
X140997557Y-103090001D01*
X140997557Y-103089998D01*
X140979024Y-102961093D01*
X140968192Y-102937375D01*
X140924921Y-102842626D01*
X140904370Y-102818909D01*
X140839637Y-102744202D01*
X140839636Y-102744201D01*
X140731271Y-102674560D01*
X140730073Y-102673790D01*
X140605118Y-102637100D01*
X140605117Y-102637100D01*
X140474883Y-102637100D01*
X140474881Y-102637100D01*
X140349926Y-102673790D01*
X140240362Y-102744202D01*
X140155081Y-102842622D01*
X140155080Y-102842624D01*
X140155079Y-102842625D01*
X140155079Y-102842626D01*
X140151085Y-102851370D01*
X140100975Y-102961093D01*
X140082443Y-103089998D01*
X140082443Y-103090001D01*
X138003806Y-103090001D01*
X138003806Y-102444202D01*
X138018158Y-102409554D01*
X138052092Y-102395207D01*
X142572158Y-102329416D01*
X142607008Y-102343261D01*
G37*
%TD.AperFunction*%
%TD*%
M02*
