%TF.GenerationSoftware,KiCad,Pcbnew,7.0.10*%
%TF.CreationDate,2024-07-12T16:17:24+02:00*%
%TF.ProjectId,MouthIO_v3,4d6f7574-6849-44f5-9f76-332e6b696361,rev?*%
%TF.SameCoordinates,Original*%
%TF.FileFunction,Paste,Top*%
%TF.FilePolarity,Positive*%
%FSLAX46Y46*%
G04 Gerber Fmt 4.6, Leading zero omitted, Abs format (unit mm)*
G04 Created by KiCad (PCBNEW 7.0.10) date 2024-07-12 16:17:24*
%MOMM*%
%LPD*%
G01*
G04 APERTURE LIST*
G04 Aperture macros list*
%AMRoundRect*
0 Rectangle with rounded corners*
0 $1 Rounding radius*
0 $2 $3 $4 $5 $6 $7 $8 $9 X,Y pos of 4 corners*
0 Add a 4 corners polygon primitive as box body*
4,1,4,$2,$3,$4,$5,$6,$7,$8,$9,$2,$3,0*
0 Add four circle primitives for the rounded corners*
1,1,$1+$1,$2,$3*
1,1,$1+$1,$4,$5*
1,1,$1+$1,$6,$7*
1,1,$1+$1,$8,$9*
0 Add four rect primitives between the rounded corners*
20,1,$1+$1,$2,$3,$4,$5,0*
20,1,$1+$1,$4,$5,$6,$7,0*
20,1,$1+$1,$6,$7,$8,$9,0*
20,1,$1+$1,$8,$9,$2,$3,0*%
G04 Aperture macros list end*
%ADD10RoundRect,0.200000X-0.550000X-0.300000X0.550000X-0.300000X0.550000X0.300000X-0.550000X0.300000X0*%
%ADD11R,0.254000X0.203200*%
%ADD12R,0.203200X0.254000*%
%ADD13RoundRect,0.050800X0.249200X0.299200X-0.249200X0.299200X-0.249200X-0.299200X0.249200X-0.299200X0*%
%ADD14RoundRect,0.050800X-0.249200X-0.299200X0.249200X-0.299200X0.249200X0.299200X-0.249200X0.299200X0*%
%ADD15RoundRect,0.050800X0.699200X0.449200X-0.699200X0.449200X-0.699200X-0.449200X0.699200X-0.449200X0*%
%ADD16RoundRect,0.054000X-0.216000X-0.266000X0.216000X-0.266000X0.216000X0.266000X-0.216000X0.266000X0*%
%ADD17RoundRect,0.200000X0.300000X-0.550000X0.300000X0.550000X-0.300000X0.550000X-0.300000X-0.550000X0*%
%ADD18RoundRect,0.200000X-0.300000X0.550000X-0.300000X-0.550000X0.300000X-0.550000X0.300000X0.550000X0*%
%ADD19RoundRect,0.050800X-0.529199X0.035355X0.035355X-0.529199X0.529199X-0.035355X-0.035355X0.529199X0*%
%ADD20RoundRect,0.050800X-0.199200X0.299200X-0.199200X-0.299200X0.199200X-0.299200X0.199200X0.299200X0*%
%ADD21RoundRect,0.140000X-0.170000X0.140000X-0.170000X-0.140000X0.170000X-0.140000X0.170000X0.140000X0*%
%ADD22RoundRect,0.050800X0.267569X0.000000X0.000000X0.267569X-0.267569X0.000000X0.000000X-0.267569X0*%
%ADD23RoundRect,0.050800X0.299200X-0.249200X0.299200X0.249200X-0.299200X0.249200X-0.299200X-0.249200X0*%
%ADD24RoundRect,0.050800X0.035355X-0.387777X0.387777X-0.035355X-0.035355X0.387777X-0.387777X0.035355X0*%
%ADD25RoundRect,0.135000X0.135000X0.185000X-0.135000X0.185000X-0.135000X-0.185000X0.135000X-0.185000X0*%
%ADD26RoundRect,0.050800X-0.149200X0.849200X-0.149200X-0.849200X0.149200X-0.849200X0.149200X0.849200X0*%
%ADD27R,0.228600X0.812800*%
%ADD28R,0.812800X0.228600*%
%ADD29R,0.711200X0.711200*%
%ADD30RoundRect,0.054000X-0.266000X0.216000X-0.266000X-0.216000X0.266000X-0.216000X0.266000X0.216000X0*%
%ADD31RoundRect,0.050800X-0.035355X0.387777X-0.387777X0.035355X0.035355X-0.387777X0.387777X-0.035355X0*%
%ADD32RoundRect,0.140000X0.170000X-0.140000X0.170000X0.140000X-0.170000X0.140000X-0.170000X-0.140000X0*%
G04 APERTURE END LIST*
%TO.C,U2*%
G36*
X154931100Y-107408600D02*
G01*
X154931100Y-107478600D01*
X154451100Y-107478600D01*
X154451100Y-107228600D01*
X154751100Y-107228600D01*
X154931100Y-107408600D01*
G37*
G36*
X155751100Y-107478600D02*
G01*
X155271100Y-107478600D01*
X155271100Y-107408600D01*
X155451100Y-107228600D01*
X155751100Y-107228600D01*
X155751100Y-107478600D01*
G37*
G36*
X154931100Y-106598600D02*
G01*
X154751100Y-106778600D01*
X154451100Y-106778600D01*
X154451100Y-106528600D01*
X154931100Y-106528600D01*
X154931100Y-106598600D01*
G37*
G36*
X155751100Y-106778600D02*
G01*
X155451100Y-106778600D01*
X155271100Y-106598600D01*
X155271100Y-106528600D01*
X155751100Y-106528600D01*
X155751100Y-106778600D01*
G37*
%TO.C,ESP1*%
G36*
X146042612Y-102599437D02*
G01*
X145864704Y-102777345D01*
X145474664Y-102387305D01*
X145652572Y-102209397D01*
X146042612Y-102599437D01*
G37*
G36*
X145689059Y-102952990D02*
G01*
X145511151Y-103130898D01*
X145121110Y-102740858D01*
X145299018Y-102562950D01*
X145689059Y-102952990D01*
G37*
G36*
X145335505Y-103306544D02*
G01*
X145157597Y-103484452D01*
X144767557Y-103094412D01*
X144945465Y-102916504D01*
X145335505Y-103306544D01*
G37*
G36*
X144981952Y-103660097D02*
G01*
X144804044Y-103838005D01*
X144414004Y-103447965D01*
X144591912Y-103270057D01*
X144981952Y-103660097D01*
G37*
G36*
X144628398Y-104013651D02*
G01*
X144450490Y-104191559D01*
X144060450Y-103801518D01*
X144238358Y-103623610D01*
X144628398Y-104013651D01*
G37*
G36*
X144274845Y-104367204D02*
G01*
X144096937Y-104545112D01*
X143706897Y-104155072D01*
X143884805Y-103977164D01*
X144274845Y-104367204D01*
G37*
G36*
X147219520Y-103925969D02*
G01*
X146501100Y-104644390D01*
X145872482Y-104015772D01*
X146590903Y-103297351D01*
X147219520Y-103925969D01*
G37*
G36*
X146141890Y-105003600D02*
G01*
X145423469Y-105722020D01*
X144794851Y-105093403D01*
X145513272Y-104374982D01*
X146141890Y-105003600D01*
G37*
G36*
X147527536Y-102387305D02*
G01*
X147137496Y-102777345D01*
X146959588Y-102599437D01*
X147349628Y-102209397D01*
X147527536Y-102387305D01*
G37*
G36*
X144274845Y-105639996D02*
G01*
X143884805Y-106030036D01*
X143706897Y-105852128D01*
X144096937Y-105462088D01*
X144274845Y-105639996D01*
G37*
G36*
X147881090Y-102740858D02*
G01*
X147491049Y-103130898D01*
X147313141Y-102952990D01*
X147703182Y-102562950D01*
X147881090Y-102740858D01*
G37*
G36*
X144628398Y-105993549D02*
G01*
X144238358Y-106383590D01*
X144060450Y-106205682D01*
X144450490Y-105815641D01*
X144628398Y-105993549D01*
G37*
G36*
X148234643Y-103094412D02*
G01*
X147844603Y-103484452D01*
X147666695Y-103306544D01*
X148056735Y-102916504D01*
X148234643Y-103094412D01*
G37*
G36*
X144981952Y-106347103D02*
G01*
X144591912Y-106737143D01*
X144414004Y-106559235D01*
X144804044Y-106169195D01*
X144981952Y-106347103D01*
G37*
G36*
X148207349Y-104913797D02*
G01*
X147488928Y-105632218D01*
X146860310Y-105003600D01*
X147578731Y-104285180D01*
X148207349Y-104913797D01*
G37*
G36*
X147129718Y-105991428D02*
G01*
X146411297Y-106709849D01*
X145782680Y-106081231D01*
X146501100Y-105362810D01*
X147129718Y-105991428D01*
G37*
G36*
X148588196Y-103447965D02*
G01*
X148198156Y-103838005D01*
X148020248Y-103660097D01*
X148410288Y-103270057D01*
X148588196Y-103447965D01*
G37*
G36*
X145335505Y-106700656D02*
G01*
X144945465Y-107090696D01*
X144767557Y-106912788D01*
X145157597Y-106522748D01*
X145335505Y-106700656D01*
G37*
G36*
X148941750Y-103801518D02*
G01*
X148551710Y-104191559D01*
X148373802Y-104013651D01*
X148763842Y-103623610D01*
X148941750Y-103801518D01*
G37*
G36*
X145689059Y-107054210D02*
G01*
X145299018Y-107444250D01*
X145121110Y-107266342D01*
X145511151Y-106876302D01*
X145689059Y-107054210D01*
G37*
G36*
X149295303Y-104155072D02*
G01*
X148905263Y-104545112D01*
X148727355Y-104367204D01*
X149117395Y-103977164D01*
X149295303Y-104155072D01*
G37*
G36*
X146042612Y-107407763D02*
G01*
X145652572Y-107797803D01*
X145474664Y-107619895D01*
X145864704Y-107229855D01*
X146042612Y-107407763D01*
G37*
G36*
X149295303Y-105852128D02*
G01*
X149117395Y-106030036D01*
X148727355Y-105639996D01*
X148905263Y-105462088D01*
X149295303Y-105852128D01*
G37*
G36*
X148941750Y-106205682D02*
G01*
X148763842Y-106383590D01*
X148373802Y-105993549D01*
X148551710Y-105815641D01*
X148941750Y-106205682D01*
G37*
G36*
X148588196Y-106559235D02*
G01*
X148410288Y-106737143D01*
X148020248Y-106347103D01*
X148198156Y-106169195D01*
X148588196Y-106559235D01*
G37*
G36*
X148234643Y-106912788D02*
G01*
X148056735Y-107090696D01*
X147666695Y-106700656D01*
X147844603Y-106522748D01*
X148234643Y-106912788D01*
G37*
G36*
X147881090Y-107266342D02*
G01*
X147703182Y-107444250D01*
X147313141Y-107054210D01*
X147491049Y-106876302D01*
X147881090Y-107266342D01*
G37*
G36*
X147527536Y-107619895D02*
G01*
X147349628Y-107797803D01*
X146959588Y-107407763D01*
X147137496Y-107229855D01*
X147527536Y-107619895D01*
G37*
G36*
X146339768Y-102189486D02*
G01*
X146339768Y-102302281D01*
X146218257Y-102423792D01*
X145828217Y-102033752D01*
X146006125Y-101855843D01*
X146339768Y-102189486D01*
G37*
G36*
X143921292Y-104720757D02*
G01*
X143799781Y-104842268D01*
X143686986Y-104842268D01*
X143353343Y-104508625D01*
X143531252Y-104330717D01*
X143921292Y-104720757D01*
G37*
G36*
X147173983Y-102033752D02*
G01*
X146783943Y-102423792D01*
X146662432Y-102302281D01*
X146662432Y-102189486D01*
X146996075Y-101855843D01*
X147173983Y-102033752D01*
G37*
G36*
X143921292Y-105286443D02*
G01*
X143531252Y-105676483D01*
X143353343Y-105498575D01*
X143686986Y-105164932D01*
X143799781Y-105164932D01*
X143921292Y-105286443D01*
G37*
G36*
X149648857Y-104508625D02*
G01*
X149315214Y-104842268D01*
X149202419Y-104842268D01*
X149080908Y-104720757D01*
X149470948Y-104330717D01*
X149648857Y-104508625D01*
G37*
G36*
X146339768Y-107704919D02*
G01*
X146339768Y-107817714D01*
X146006125Y-108151357D01*
X145828217Y-107973448D01*
X146218257Y-107583408D01*
X146339768Y-107704919D01*
G37*
G36*
X149648857Y-105498575D02*
G01*
X149470948Y-105676483D01*
X149080908Y-105286443D01*
X149202419Y-105164932D01*
X149315214Y-105164932D01*
X149648857Y-105498575D01*
G37*
G36*
X147173983Y-107973448D02*
G01*
X146996075Y-108151357D01*
X146662432Y-107817714D01*
X146662432Y-107704919D01*
X146783943Y-107583408D01*
X147173983Y-107973448D01*
G37*
%TD*%
D10*
%TO.C,GPIO9*%
X144460000Y-109510000D03*
%TD*%
D11*
%TO.C,U1*%
X140496100Y-108588399D03*
X140496100Y-108188400D03*
X140496100Y-107788400D03*
X140496100Y-107388401D03*
D12*
X139950000Y-107442300D03*
D11*
X139403900Y-107388401D03*
X139403900Y-107788400D03*
X139403900Y-108188400D03*
X139403900Y-108588399D03*
D12*
X139950000Y-108534500D03*
%TD*%
D13*
%TO.C,C13*%
X142530000Y-109410000D03*
X141530000Y-109410000D03*
%TD*%
%TO.C,R3*%
X150501100Y-106903600D03*
X149501100Y-106903600D03*
%TD*%
D14*
%TO.C,R10*%
X143910000Y-108340000D03*
X144910000Y-108340000D03*
%TD*%
D13*
%TO.C,C2*%
X156701100Y-108103600D03*
X155701100Y-108103600D03*
%TD*%
D15*
%TO.C,BAT+0*%
X154001100Y-109403600D03*
%TD*%
D16*
%TO.C,R5*%
X139160000Y-106630000D03*
X140180000Y-106630000D03*
%TD*%
D17*
%TO.C,L_RX_1*%
X156700000Y-105830000D03*
%TD*%
D18*
%TO.C,CAPSENS_PAD_0*%
X138690000Y-103550000D03*
%TD*%
%TO.C,L_RX_2*%
X156680000Y-102210000D03*
%TD*%
D14*
%TO.C,R13*%
X151701100Y-106903600D03*
X152701100Y-106903600D03*
%TD*%
D13*
%TO.C,C9*%
X147610000Y-109690000D03*
X146610000Y-109690000D03*
%TD*%
D14*
%TO.C,R2*%
X141301100Y-105903600D03*
X142301100Y-105903600D03*
%TD*%
D13*
%TO.C,R4*%
X142510000Y-108400000D03*
X141510000Y-108400000D03*
%TD*%
%TO.C,R12*%
X151910000Y-105560000D03*
X150910000Y-105560000D03*
%TD*%
D19*
%TO.C,X1*%
X148467217Y-101747534D03*
X149457166Y-102737483D03*
X150234983Y-101959666D03*
X149245034Y-100969717D03*
%TD*%
D17*
%TO.C,CAPSENS_PAD_1*%
X138690000Y-105280000D03*
%TD*%
D13*
%TO.C,C8*%
X146951100Y-100403600D03*
X145951100Y-100403600D03*
%TD*%
D20*
%TO.C,D2*%
X150101100Y-109303600D03*
X150101100Y-108003600D03*
%TD*%
D21*
%TO.C,C4*%
X156800000Y-103550000D03*
X156800000Y-104510000D03*
%TD*%
D14*
%TO.C,R11*%
X141301100Y-104003600D03*
X142301100Y-104003600D03*
%TD*%
D22*
%TO.C,U2*%
X155101100Y-107003600D03*
%TD*%
D20*
%TO.C,D1*%
X149001100Y-109303600D03*
X149001100Y-108003600D03*
%TD*%
D23*
%TO.C,R/2*%
X151430000Y-102550000D03*
X151430000Y-101550000D03*
%TD*%
D24*
%TO.C,C21*%
X149947547Y-103707153D03*
X150654653Y-103000047D03*
%TD*%
D15*
%TO.C,BAT-0*%
X154001100Y-100603600D03*
%TD*%
D14*
%TO.C,C1*%
X153501100Y-108103600D03*
X154501100Y-108103600D03*
%TD*%
D25*
%TO.C,D4*%
X154500000Y-101690000D03*
X153480000Y-101690000D03*
%TD*%
D26*
%TO.C,RF0*%
X141600000Y-100920000D03*
X138500000Y-100920000D03*
%TD*%
D23*
%TO.C,R/1*%
X151480000Y-104680000D03*
X151480000Y-103680000D03*
%TD*%
D27*
%TO.C,U3*%
X155188301Y-102748300D03*
X154688300Y-102748300D03*
X154188300Y-102748300D03*
X153688299Y-102748300D03*
D28*
X153536600Y-103400000D03*
X153536600Y-103900000D03*
D27*
X153688299Y-104551700D03*
X154188300Y-104551700D03*
X154688300Y-104551700D03*
X155188301Y-104551700D03*
D28*
X155340000Y-103900000D03*
X155340000Y-103400000D03*
D29*
X154438300Y-103650000D03*
%TD*%
D14*
%TO.C,R1*%
X141490000Y-107420000D03*
X142490000Y-107420000D03*
%TD*%
D30*
%TO.C,R8*%
X139880000Y-103090000D03*
X139880000Y-104110000D03*
%TD*%
D14*
%TO.C,R7*%
X141301100Y-104903600D03*
X142301100Y-104903600D03*
%TD*%
D13*
%TO.C,C4*%
X154450000Y-105810000D03*
X153450000Y-105810000D03*
%TD*%
D16*
%TO.C,R6*%
X139200000Y-109660000D03*
X140220000Y-109660000D03*
%TD*%
D14*
%TO.C,C7*%
X141301100Y-103103600D03*
X142301100Y-103103600D03*
%TD*%
D30*
%TO.C,R9*%
X139880000Y-104730000D03*
X139880000Y-105750000D03*
%TD*%
D31*
%TO.C,C20*%
X148154653Y-100600047D03*
X147447547Y-101307153D03*
%TD*%
D32*
%TO.C,C3*%
X138520000Y-108540000D03*
X138520000Y-107580000D03*
%TD*%
M02*
